<svg id="Слой_1" xmlns="http://www.w3.org/2000/svg" viewBox="0 0 310 266"><style>.st0{fill:#edf2f2}.st1{fill:#fff;fill-opacity:0;stroke:#edf2f3;stroke-width:4;stroke-linecap:square;stroke-miterlimit:50}</style><g transform="translate(-175 -967)"><path id="gvnca" class="st0" d="M185 1168c0-1.7 1.3-3 3-3h44c1.7 0 3 1.3 3 3v44c0 1.7-1.3 3-3 3h-44c-1.7 0-3-1.3-3-3v-44z"/></g><g transform="translate(-175 -967)"><path id="gvncb" class="st0" d="M185 1078c0-1.7 1.3-3 3-3h44c1.7 0 3 1.3 3 3v44c0 1.7-1.3 3-3 3h-44c-1.7 0-3-1.3-3-3v-44z"/></g><g transform="translate(-175 -967)"><path id="gvncc" class="st0" d="M276 1078c0-1.7 1.3-3 3-3h44c1.7 0 3 1.3 3 3v44c0 1.7-1.3 3-3 3h-44c-1.7 0-3-1.3-3-3v-44z"/></g><g transform="translate(-175 -967)"><path id="gvncd" class="st0" d="M305 988c0-1.7 1.3-3 3-3h44c1.7 0 3 1.3 3 3v44c0 1.7-1.3 3-3 3h-44c-1.7 0-3-1.3-3-3v-44z"/></g><g transform="translate(-175 -967)"><path id="gvnce" class="st1" d="M210.5 1125.5v40"/></g><g transform="translate(-175 -967)"><path id="gvncf" class="st1" d="M269 1146v20"/></g><g transform="translate(-175 -967)"><path id="gvncg" class="st1" d="M329 1146v20"/></g><g transform="translate(-175 -967)"><path id="gvnch" class="st1" d="M389 1146v20"/></g><g transform="translate(-175 -967)"><path id="gvnci" class="st1" d="M449 1146v20"/></g><g transform="translate(-175 -967)"><path id="gvncj" class="st1" d="M269 1146h60"/></g><g transform="translate(-175 -967)"><path id="gvnck" class="st1" d="M389 1146h60"/></g><g transform="translate(-175 -967)"><path id="gvncl" class="st1" d="M210 1056h210"/></g><g transform="translate(-175 -967)"><path id="gvncm" class="st1" d="M422 1056v20"/></g><g transform="translate(-175 -967)"><path id="gvncn" class="st1" d="M301 1056v20"/></g><g transform="translate(-175 -967)"><path id="gvnco" class="st1" d="M330 1036v20"/></g><g transform="translate(-175 -967)"><path id="gvncp" class="st1" d="M301 1126v20"/></g><g transform="translate(-175 -967)"><path id="gvncq" class="st1" d="M422 1126v20"/></g><g transform="translate(-175 -967)"><path id="gvncr" class="st1" d="M210 1056v20"/></g><g transform="translate(-175 -967)"><path id="gvncs" class="st0" d="M305 1168c0-1.7 1.3-3 3-3h44c1.7 0 3 1.3 3 3v44c0 1.7-1.3 3-3 3h-44c-1.7 0-3-1.3-3-3v-44z"/></g><g transform="translate(-175 -967)"><path id="gvnct" class="st0" d="M425 1168c0-1.7 1.3-3 3-3h44c1.7 0 3 1.3 3 3v44c0 1.7-1.3 3-3 3h-44c-1.7 0-3-1.3-3-3v-44z"/></g><g transform="translate(-175 -967)"><path id="gvncu" class="st0" d="M397 1078c0-1.7 1.3-3 3-3h44c1.7 0 3 1.3 3 3v44c0 1.7-1.3 3-3 3h-44c-1.7 0-3-1.3-3-3v-44z"/></g><g transform="translate(-175 -967)"><path id="gvncv" class="st0" d="M245 1168c0-1.7 1.3-3 3-3h44c1.7 0 3 1.3 3 3v44c0 1.7-1.3 3-3 3h-44c-1.7 0-3-1.3-3-3v-44z"/></g><g transform="translate(-175 -967)"><path id="gvncw" class="st0" d="M365 1168c0-1.7 1.3-3 3-3h44c1.7 0 3 1.3 3 3v44c0 1.7-1.3 3-3 3h-44c-1.7 0-3-1.3-3-3v-44z"/></g></svg>