<svg id="Layer_1" xmlns="http://www.w3.org/2000/svg" viewBox="0 0 310 266"><style>.st0{fill:#e0e8ea}.st1{fill:#edf2f3}.st3{enable-background:new}.st4{fill:#a0acae}</style><path class="st0" d="M109 21.167H45a3 3 0 0 0-3 3v4a3 3 0 0 0 3 3h64a3 3 0 0 0 3-3v-4a3 3 0 0 0-3-3z"/><path class="st1" d="M129.5 36.167h-85a2.5 2.5 0 1 0 0 5h85a2.5 2.5 0 1 0 0-5z"/><path id="Rectangle-5-Copy-3" class="st0" d="M85 61.167h64a3 3 0 0 1 3 3v4a3 3 0 0 1-3 3H85a3 3 0 0 1-3-3v-4a3 3 0 0 1 3-3z"/><path id="Rectangle-5-Copy-2" class="st1" d="M84.5 76.167h85a2.5 2.5 0 1 1 0 5h-85a2.5 2.5 0 1 1 0-5z"/><path id="Rectangle-5-Copy-29" class="st0" d="M85 101.167h64a3 3 0 0 1 3 3v4a3 3 0 0 1-3 3H85a3 3 0 0 1-3-3v-4a3 3 0 0 1 3-3z"/><path id="Rectangle-5-Copy-4" class="st1" d="M84.5 116.167h85a2.5 2.5 0 1 1 0 5h-85a2.5 2.5 0 1 1 0-5z"/><path id="Rectangle-5-Copy-31" class="st0" d="M125 141.167h64a3 3 0 0 1 3 3v4a3 3 0 0 1-3 3h-64a3 3 0 0 1-3-3v-4a3 3 0 0 1 3-3z"/><path id="Rectangle-5-Copy-30" class="st1" d="M124.5 156.167h85a2.5 2.5 0 1 1 0 5h-85a2.5 2.5 0 1 1 0-5z"/><path id="Rectangle-5-Copy-33" class="st0" d="M125 181.167h64a3 3 0 0 1 3 3v4a3 3 0 0 1-3 3h-64a3 3 0 0 1-3-3v-4a3 3 0 0 1 3-3z"/><path class="st1" d="M209.5 196.167h-85a2.5 2.5 0 1 0 0 5h85a2.5 2.5 0 1 0 0-5z"/><path class="st0" d="M189 221.167h-64a3 3 0 0 0-3 3v4a3 3 0 0 0 3 3h64a3 3 0 0 0 3-3v-4a3 3 0 0 0-3-3z"/><path class="st1" d="M209.5 236.167h-85a2.5 2.5 0 1 0 0 5h85a2.5 2.5 0 1 0 0-5zM9.917 29.5H27V27a2.5 2.5 0 0 0-2.5-2.5h-8.333l-3.333-3.333H4.5a2.5 2.5 0 0 0-2.5 2.5v14.482l3.598-6.168A5.016 5.016 0 0 1 9.917 29.5z"/><path class="st1" d="M30.748 31.167H9.917c-1.186 0-2.282.63-2.879 1.654l-3.772 6.466a1.25 1.25 0 0 0 1.08 1.88h20.831c1.186 0 2.282-.63 2.879-1.654l3.772-6.466a1.25 1.25 0 0 0-1.08-1.88zM49.917 109.5H67V107a2.5 2.5 0 0 0-2.5-2.5h-8.333l-3.333-3.333H44.5a2.5 2.5 0 0 0-2.5 2.5v14.482l3.598-6.168a5.016 5.016 0 0 1 4.319-2.481z"/><path class="st1" d="M70.748 111.167H49.917c-1.186 0-2.282.63-2.879 1.654l-3.772 6.466a1.25 1.25 0 0 0 1.08 1.88h20.831c1.186 0 2.282-.63 2.879-1.654l3.772-6.466a1.25 1.25 0 0 0-1.08-1.88zM69.188 60.167H44.813A2.813 2.813 0 0 0 42 62.98v16.875a2.813 2.813 0 0 0 2.813 2.813h24.375a2.813 2.813 0 0 0 2.813-2.813V62.979a2.814 2.814 0 0 0-2.813-2.812zm-20.625 3.281a3.281 3.281 0 1 1 0 6.562 3.281 3.281 0 0 1 0-6.562zM68.25 78.917h-22.5v-2.813l4.19-4.19a.702.702 0 0 1 .994 0l3.253 3.253 7.94-7.94a.702.702 0 0 1 .994 0l5.128 5.128v6.562zM109.188 140.167H84.813A2.813 2.813 0 0 0 82 142.98v16.875a2.813 2.813 0 0 0 2.813 2.813h24.375a2.813 2.813 0 0 0 2.813-2.813V142.98a2.814 2.814 0 0 0-2.813-2.813zm-20.625 3.281a3.281 3.281 0 1 1 0 6.562 3.281 3.281 0 0 1 0-6.562zm19.687 15.469h-22.5v-2.813l4.19-4.19a.702.702 0 0 1 .994 0l3.253 3.253 7.94-7.94a.702.702 0 0 1 .994 0l5.128 5.128v6.562zM99.667 185.25v-7.083H89.25c-.693 0-1.25.557-1.25 1.25v24.167c0 .693.557 1.25 1.25 1.25h17.5c.693 0 1.25-.557 1.25-1.25V186.5h-7.083c-.688 0-1.25-.562-1.25-1.25zM103 197.542a.627.627 0 0 1-.625.625h-8.75a.627.627 0 0 1-.625-.625v-.417c0-.344.281-.625.625-.625h8.75c.344 0 .625.281.625.625v.417zm0-3.334a.627.627 0 0 1-.625.625h-8.75a.627.627 0 0 1-.625-.625v-.417c0-.344.281-.625.625-.625h8.75c.344 0 .625.281.625.625v.417zm0-3.75v.417a.627.627 0 0 1-.625.625h-8.75a.627.627 0 0 1-.625-.625v-.417c0-.344.281-.625.625-.625h8.75c.344 0 .625.282.625.625z"/><path class="st1" d="M107.635 183.635l-5.099-5.104a1.25 1.25 0 0 0-.885-.365h-.318v6.667H108v-.318c0-.327-.13-.645-.365-.88zM100.667 225.25v-7.083h-3.313v1.667h-1.667v-1.667H90.25c-.693 0-1.25.557-1.25 1.25v24.167c0 .693.557 1.25 1.25 1.25h17.5c.693 0 1.25-.557 1.25-1.25V226.5h-7.083c-.688 0-1.25-.562-1.25-1.25zm-6.672-5.417h1.667v1.667h-1.667v-1.667zm1.682 20A2.73 2.73 0 0 1 93 236.557l1.021-5.057v-1.667h1.667v-1.667h-1.667V226.5h1.667v-1.667h-1.667v-1.667h1.667V221.5h1.667v1.667h-1.667v1.667h1.667v1.667h-1.667v1.667h1.667v1.667h-1.667v1.667h1.151c.297 0 .557.214.615.505l.901 4.568a2.73 2.73 0 0 1-2.678 3.258z"/><path class="st1" d="M95.688 235.667c-.932 0-1.688.63-1.688 1.406 0 .781.76 1.406 1.693 1.406.932 0 1.688-.63 1.688-1.406-.001-.776-.761-1.406-1.693-1.406zM108.635 223.635l-5.099-5.104a1.25 1.25 0 0 0-.885-.365h-.318v6.667H109v-.318c0-.327-.13-.645-.365-.88z"/><path d="M305 41.167H171a3 3 0 0 0-3 3v168a3 3 0 0 0 3 3h134a3 3 0 0 0 3-3v-168a3 3 0 0 0-3-3z" fill="#fff"/><path class="st1" d="M304 215.167H172c-2.206 0-4-1.794-4-4v-166c0-2.206 1.794-4 4-4h132c2.206 0 4 1.794 4 4v166c0 2.206-1.794 4-4 4zm-132-172c-1.103 0-2 .897-2 2v166c0 1.103.897 2 2 2h132c1.103 0 2-.897 2-2v-166c0-1.103-.897-2-2-2H172z"/><path id="Triangle-2" class="st0" d="M298 106.667l-9 4.5v-9z"/><path id="Triangle-2-Copy" class="st0" d="M298 128.667l-9 4.5v-9z"/><path id="Rectangle-10" class="st1" d="M170 142.167h136v2H170z"/><path id="Rectangle-10-Copy" class="st1" d="M170 190.167h136v2H170z"/><g class="st3"><path class="st4" d="M189.396 52.344h-4.356c-.04 0-.06.021-.06.061v2.939c0 .04.02.061.06.061h3.036c.104 0 .156.052.156.155v.433c0 .104-.053.156-.156.156h-3.036c-.04 0-.06.02-.06.06v3.636c0 .104-.053.156-.156.156h-.54c-.104 0-.156-.052-.156-.156v-8.088c0-.104.052-.156.156-.156h5.112c.104 0 .155.053.155.156v.433c.001.102-.051.154-.155.154zM190.824 52.662a.598.598 0 0 1-.18-.45c0-.184.06-.332.18-.444.119-.111.275-.168.468-.168s.349.057.468.168a.58.58 0 0 1 .18.444c0 .185-.06.334-.18.45-.119.116-.275.174-.468.174s-.349-.058-.468-.174zm.048 7.182v-5.76c0-.104.052-.156.155-.156h.541c.104 0 .156.053.156.156v5.76c0 .104-.053.156-.156.156h-.541c-.103 0-.155-.052-.155-.156zM193.716 59.844v-8.088c0-.104.052-.156.156-.156h.54c.104 0 .156.053.156.156v8.088c0 .104-.053.156-.156.156h-.54c-.104 0-.156-.052-.156-.156zM199.794 59.118c.26-.156.462-.374.606-.654a.145.145 0 0 1 .084-.084.127.127 0 0 1 .119.012l.349.192c.096.056.12.124.071.204-.191.4-.479.718-.863.954-.385.236-.84.354-1.368.354-.56 0-1.032-.132-1.416-.396a2.192 2.192 0 0 1-.828-1.104c-.151-.399-.228-.951-.228-1.655 0-.345.006-.618.018-.822s.042-.395.09-.57c.137-.52.41-.936.822-1.248.412-.312.91-.468 1.494-.468.695 0 1.242.18 1.638.54s.649.868.763 1.524c.047.256.071.655.071 1.199 0 .104-.052.156-.155.156h-3.84c-.041 0-.061.021-.061.06 0 .4.023.692.072.877.088.359.273.646.558.857s.642.318 1.074.318c.361-.008.67-.09.93-.246zm-2.034-4.236a1.433 1.433 0 0 0-.504.822c-.048.16-.08.432-.096.815 0 .041.02.061.061.061h3.084c.039 0 .06-.02.06-.061a5.856 5.856 0 0 0-.072-.768 1.521 1.521 0 0 0-.534-.858c-.268-.212-.605-.317-1.014-.317-.401 0-.729.102-.985.306z"/></g><g class="st3"><path class="st4" d="M185.221 83.748a2.451 2.451 0 0 1-1.003-.979c-.235-.42-.354-.905-.354-1.458v-3.023c0-.552.119-1.038.354-1.458.236-.42.57-.746 1.003-.979.432-.231.932-.348 1.5-.348.567 0 1.069.116 1.506.348.436.232.771.559 1.008.979.235.42.354.906.354 1.458v3.023c0 .553-.118 1.038-.354 1.458a2.452 2.452 0 0 1-1.008.979c-.437.232-.938.348-1.506.348-.569 0-1.069-.116-1.5-.348zm2.963-.936c.368-.367.553-.855.553-1.464v-3.071c0-.608-.185-1.099-.553-1.471-.367-.372-.855-.558-1.463-.558-.601 0-1.085.186-1.453.558-.367.372-.552.862-.552 1.471v3.071c0 .608.185 1.097.552 1.464.368.368.853.553 1.453.553.607-.001 1.095-.185 1.463-.553zM196.309 80.964c0 .664-.049 1.16-.145 1.488-.145.512-.408.914-.792 1.206s-.86.438-1.429.438c-.312 0-.6-.062-.863-.186s-.484-.302-.66-.534c-.016-.024-.032-.032-.048-.024-.017.009-.024.024-.024.049v2.771c0 .104-.052.156-.156.156h-.539c-.104 0-.156-.053-.156-.156v-8.088c0-.104.052-.156.156-.156h.539c.104 0 .156.053.156.156v.456c0 .024.008.038.024.042.016.004.032-.002.048-.018.176-.232.395-.412.654-.54s.55-.192.869-.192c.561 0 1.03.144 1.41.432.381.288.643.681.786 1.177.113.359.17.868.17 1.523zm-.919.918c.044-.22.066-.525.066-.918 0-.376-.017-.67-.048-.882a2.021 2.021 0 0 0-.168-.57 1.315 1.315 0 0 0-.51-.684 1.5 1.5 0 0 0-.871-.252c-.319 0-.588.084-.804.252s-.376.392-.479.672a2.1 2.1 0 0 0-.156.564c-.032.216-.048.516-.048.899s.016.687.048.906c.031.22.088.414.168.582.096.271.254.49.475.654.219.164.481.245.785.245.32 0 .596-.079.828-.239s.4-.372.504-.637c.095-.174.166-.371.21-.592zM201.294 83.118c.26-.156.462-.374.606-.654a.145.145 0 0 1 .084-.084.127.127 0 0 1 .119.012l.349.192c.096.056.12.124.071.204-.191.4-.479.718-.863.954-.385.236-.84.354-1.368.354-.56 0-1.032-.132-1.416-.396a2.192 2.192 0 0 1-.828-1.104c-.151-.399-.228-.951-.228-1.655 0-.345.006-.618.018-.822s.042-.395.09-.57c.137-.52.41-.936.822-1.248.412-.312.91-.468 1.494-.468.695 0 1.242.18 1.638.54s.649.868.763 1.524c.047.256.071.655.071 1.199 0 .104-.052.156-.155.156h-3.84c-.041 0-.061.021-.061.06 0 .4.023.692.072.877.088.359.273.646.558.857s.642.318 1.074.318c.361-.008.67-.09.93-.246zm-2.034-4.236a1.433 1.433 0 0 0-.504.822c-.048.16-.08.432-.096.815 0 .041.02.061.061.061h3.084c.039 0 .06-.02.06-.061a5.856 5.856 0 0 0-.072-.768 1.521 1.521 0 0 0-.534-.858c-.268-.212-.605-.317-1.014-.317-.401 0-.729.102-.985.306zM208.445 78.408c.381.376.57.88.57 1.512v3.924c0 .104-.052.156-.156.156h-.539c-.104 0-.156-.052-.156-.156v-3.756c0-.448-.133-.81-.396-1.086s-.607-.414-1.031-.414c-.408 0-.746.116-1.015.348a1.344 1.344 0 0 0-.462.912v3.996c0 .104-.053.156-.156.156h-.539c-.105 0-.156-.052-.156-.156v-5.76c0-.104.051-.156.156-.156h.539c.104 0 .156.053.156.156v.444c0 .023.008.042.023.054.017.012.028.006.037-.018.352-.48.887-.721 1.607-.721.633.001 1.139.189 1.518.565zM211.002 83.76a.672.672 0 0 1-.211-.504c0-.191.074-.357.223-.498a.746.746 0 0 1 1.038 0 .662.662 0 0 1 .228.498c0 .2-.072.368-.216.504a.734.734 0 0 1-.528.204.733.733 0 0 1-.534-.204zm3.131 0a.678.678 0 0 1-.209-.504c0-.191.074-.357.222-.498a.745.745 0 0 1 1.038 0 .66.66 0 0 1 .229.498c0 .2-.072.368-.217.504a.735.735 0 0 1-.527.204.736.736 0 0 1-.536-.204zm3.072 0a.674.674 0 0 1-.209-.504c0-.191.073-.357.221-.498a.745.745 0 0 1 1.039 0 .662.662 0 0 1 .228.498c0 .2-.071.368-.216.504a.737.737 0 0 1-.527.204.738.738 0 0 1-.536-.204z"/></g><g class="st3"><path class="st4" d="M185.221 107.748a2.451 2.451 0 0 1-1.003-.979c-.235-.42-.354-.905-.354-1.458v-3.023c0-.552.119-1.038.354-1.458.236-.42.57-.746 1.003-.979.432-.231.932-.348 1.5-.348.567 0 1.069.116 1.506.348.436.232.771.559 1.008.979.235.42.354.906.354 1.458v3.023c0 .553-.118 1.038-.354 1.458a2.452 2.452 0 0 1-1.008.979c-.437.232-.938.348-1.506.348-.569 0-1.069-.116-1.5-.348zm2.963-.936c.368-.367.553-.855.553-1.464v-3.071c0-.608-.185-1.099-.553-1.471-.367-.372-.855-.558-1.463-.558-.601 0-1.085.186-1.453.558-.367.372-.552.862-.552 1.471v3.071c0 .608.185 1.097.552 1.464.368.368.853.553 1.453.553.607-.001 1.095-.185 1.463-.553zM196.309 104.964c0 .664-.049 1.16-.145 1.488-.145.512-.408.914-.792 1.206s-.86.438-1.429.438c-.312 0-.6-.062-.863-.186s-.484-.302-.66-.534c-.016-.024-.032-.032-.048-.024-.017.009-.024.024-.024.049v2.771c0 .104-.052.156-.156.156h-.539c-.104 0-.156-.053-.156-.156v-8.088c0-.104.052-.156.156-.156h.539c.104 0 .156.053.156.156v.456c0 .024.008.038.024.042.016.004.032-.002.048-.018.176-.232.395-.412.654-.54s.55-.192.869-.192c.561 0 1.03.144 1.41.432.381.288.643.681.786 1.177.113.359.17.868.17 1.523zm-.919.918c.044-.22.066-.525.066-.918 0-.376-.017-.67-.048-.882a2.021 2.021 0 0 0-.168-.57 1.315 1.315 0 0 0-.51-.684 1.5 1.5 0 0 0-.871-.252c-.319 0-.588.084-.804.252s-.376.392-.479.672a2.1 2.1 0 0 0-.156.564c-.032.216-.048.516-.048.899s.016.687.048.906c.031.22.088.414.168.582.096.271.254.49.475.654.219.164.481.245.785.245.32 0 .596-.079.828-.239s.4-.372.504-.637c.095-.174.166-.371.21-.592zM201.294 107.118c.26-.156.462-.374.606-.654a.145.145 0 0 1 .084-.084.127.127 0 0 1 .119.012l.349.192c.096.056.12.124.071.204-.191.4-.479.718-.863.954-.385.236-.84.354-1.368.354-.56 0-1.032-.132-1.416-.396a2.192 2.192 0 0 1-.828-1.104c-.151-.399-.228-.951-.228-1.655 0-.345.006-.618.018-.822s.042-.395.09-.57c.137-.52.41-.936.822-1.248.412-.312.91-.468 1.494-.468.695 0 1.242.18 1.638.54s.649.868.763 1.524c.047.256.071.655.071 1.199 0 .104-.052.156-.155.156h-3.84c-.041 0-.061.021-.061.06 0 .4.023.692.072.877.088.359.273.646.558.857s.642.318 1.074.318c.361-.008.67-.09.93-.246zm-2.034-4.236a1.433 1.433 0 0 0-.504.822c-.048.16-.08.432-.096.815 0 .041.02.061.061.061h3.084c.039 0 .06-.02.06-.061a5.856 5.856 0 0 0-.072-.768 1.521 1.521 0 0 0-.534-.858c-.268-.212-.605-.317-1.014-.317-.401 0-.729.102-.985.306zM208.445 102.408c.381.376.57.88.57 1.512v3.924c0 .104-.052.156-.156.156h-.539c-.104 0-.156-.052-.156-.156v-3.756c0-.448-.133-.81-.396-1.086s-.607-.414-1.031-.414c-.408 0-.746.116-1.015.348a1.344 1.344 0 0 0-.462.912v3.996c0 .104-.053.156-.156.156h-.539c-.105 0-.156-.052-.156-.156v-5.76c0-.104.051-.156.156-.156h.539c.104 0 .156.053.156.156v.444c0 .023.008.042.023.054.017.012.028.006.037-.018.352-.48.887-.721 1.607-.721.633.001 1.139.189 1.518.565zM218.184 107.88l-1.752-3.696c-.016-.031-.041-.048-.072-.048h-2.004c-.04 0-.061.021-.061.061v3.647c0 .104-.052.156-.155.156h-.54c-.104 0-.156-.052-.156-.156v-8.1c0-.104.053-.156.156-.156h3.072c.688 0 1.244.212 1.668.636.424.425.636.98.636 1.668 0 .561-.15 1.034-.45 1.423-.3.388-.71.642-1.23.762-.039.008-.052.032-.035.072l1.787 3.672a.17.17 0 0 1 .024.071c0 .072-.048.108-.144.108h-.553a.198.198 0 0 1-.191-.12zm-3.889-7.488v3c0 .04.021.061.061.061h2.22c.464 0 .841-.142 1.128-.426.288-.284.432-.658.432-1.122s-.144-.842-.432-1.135c-.287-.291-.664-.438-1.128-.438h-2.22c-.041 0-.061.021-.061.06zM223.877 107.118a1.59 1.59 0 0 0 .606-.654.15.15 0 0 1 .084-.084.13.13 0 0 1 .12.012l.348.192c.096.056.121.124.072.204-.191.4-.48.718-.863.954-.385.236-.841.354-1.369.354-.56 0-1.031-.132-1.416-.396a2.198 2.198 0 0 1-.828-1.104c-.151-.399-.228-.951-.228-1.655 0-.345.007-.618.019-.822s.041-.395.09-.57c.136-.52.41-.936.822-1.248.412-.312.91-.468 1.494-.468.695 0 1.241.18 1.637.54.396.36.65.868.763 1.524.048.256.071.655.071 1.199 0 .104-.051.156-.155.156h-3.84c-.04 0-.06.021-.06.06 0 .4.023.692.071.877.088.359.274.646.558.857.284.212.643.318 1.074.318.361-.008.67-.09.93-.246zm-2.033-4.236a1.433 1.433 0 0 0-.504.822c-.049.16-.08.432-.096.815 0 .041.02.061.06.061h3.084c.04 0 .06-.02.06-.061a5.684 5.684 0 0 0-.072-.768 1.52 1.52 0 0 0-.533-.858c-.269-.212-.606-.317-1.014-.317-.401 0-.729.102-.985.306zM227.802 107.646a2.263 2.263 0 0 1-.847-1.219c-.104-.352-.155-.848-.155-1.487 0-.576.052-1.064.155-1.465.145-.495.425-.894.841-1.193.415-.3.911-.45 1.487-.45.584 0 1.09.148 1.519.444.428.296.706.664.834 1.104.032.112.056.221.071.324v.023c0 .089-.047.141-.143.156l-.529.061H231c-.072 0-.12-.044-.145-.133a.726.726 0 0 0-.023-.144c-.072-.304-.248-.562-.528-.774-.28-.212-.62-.317-1.021-.317-.399 0-.733.105-1.002.317a1.455 1.455 0 0 0-.521.847c-.072.304-.107.708-.107 1.212 0 .528.035.936.107 1.224.08.36.254.646.521.858.269.212.603.317 1.002.317.393 0 .73-.102 1.015-.306s.458-.462.522-.773a.138.138 0 0 0 .012-.061l.012-.012c.008-.104.068-.148.18-.132l.516.084c.104.016.152.076.145.18l-.048.204c-.12.464-.396.84-.828 1.128-.432.288-.94.432-1.524.432-.578.001-1.071-.149-1.483-.449zM236.489 107.118c.26-.156.462-.374.606-.654a.145.145 0 0 1 .084-.084.127.127 0 0 1 .119.012l.349.192c.096.056.12.124.071.204-.191.4-.479.718-.863.954-.385.236-.84.354-1.368.354-.56 0-1.032-.132-1.416-.396a2.192 2.192 0 0 1-.828-1.104c-.151-.399-.228-.951-.228-1.655 0-.345.006-.618.018-.822s.042-.395.09-.57c.137-.52.41-.936.822-1.248.412-.312.91-.468 1.494-.468.695 0 1.242.18 1.638.54s.649.868.763 1.524c.047.256.071.655.071 1.199 0 .104-.052.156-.155.156h-3.84c-.041 0-.061.021-.061.06 0 .4.023.692.072.877.088.359.273.646.558.857s.642.318 1.074.318c.361-.008.67-.09.93-.246zm-2.034-4.236a1.433 1.433 0 0 0-.504.822c-.048.16-.08.432-.096.815 0 .041.02.061.061.061H237c.039 0 .06-.02.06-.061a5.856 5.856 0 0 0-.072-.768 1.521 1.521 0 0 0-.534-.858c-.268-.212-.605-.317-1.014-.317-.401 0-.729.102-.985.306zM243.642 102.408c.38.376.569.88.569 1.512v3.924c0 .104-.051.156-.155.156h-.54c-.104 0-.156-.052-.156-.156v-3.756c0-.448-.132-.81-.396-1.086s-.607-.414-1.031-.414c-.408 0-.746.116-1.014.348a1.349 1.349 0 0 0-.463.912v3.996c0 .104-.052.156-.156.156h-.539c-.104 0-.156-.052-.156-.156v-5.76c0-.104.052-.156.156-.156h.539c.104 0 .156.053.156.156v.444c0 .023.008.042.024.054s.028.006.036-.018c.352-.48.888-.721 1.607-.721.633.001 1.139.189 1.519.565zM248.639 102.636h-1.307c-.041 0-.061.021-.061.061v3.504c0 .384.086.653.258.81s.441.234.811.234h.264c.104 0 .156.052.156.156v.42c0 .104-.053.16-.156.168h-.408c-.576 0-1.012-.108-1.309-.324-.295-.216-.443-.616-.443-1.2v-3.768c0-.04-.02-.061-.061-.061h-.684c-.104 0-.156-.052-.156-.155v-.396c0-.104.053-.156.156-.156h.684c.041 0 .061-.02.061-.06v-1.344c0-.104.052-.156.156-.156h.516c.104 0 .156.052.156.156v1.344c0 .04.02.06.061.06h1.307c.104 0 .156.053.156.156v.396c-.001.103-.053.155-.157.155z"/></g><g class="st3"><path class="st4" d="M189.408 124.344h-4.368c-.04 0-.06.021-.06.061v2.939c0 .04.02.061.06.061h3.048c.104 0 .156.052.156.155v.433c0 .104-.053.156-.156.156h-3.048c-.04 0-.06.02-.06.06v2.988c0 .04.02.06.06.06h4.368c.104 0 .156.053.156.156v.432c0 .104-.053.156-.156.156h-5.124c-.104 0-.156-.052-.156-.156v-8.088c0-.104.052-.156.156-.156h5.124c.104 0 .156.053.156.156v.433c0 .102-.052.154-.156.154zM190.638 131.94c-.021-.04-.015-.084.019-.133l1.967-2.808a.057.057 0 0 0 0-.072l-1.967-2.808c-.024-.04-.037-.068-.037-.084 0-.032.013-.058.037-.078a.142.142 0 0 1 .096-.03h.576c.08 0 .144.032.191.097l1.536 2.231c.017.017.032.024.048.024s.028-.008.036-.024l1.536-2.231a.227.227 0 0 1 .191-.097h.637c.064 0 .105.021.126.061.02.04.01.084-.03.132l-1.98 2.808a.111.111 0 0 0 0 .072l1.98 2.808c.023.032.036.061.036.084a.098.098 0 0 1-.036.078c-.023.021-.056.03-.096.03h-.588a.227.227 0 0 1-.192-.096l-1.536-2.232c-.008-.016-.02-.023-.035-.023-.017 0-.033.008-.049.023l-1.548 2.232a.23.23 0 0 1-.192.096h-.611c-.058 0-.095-.02-.115-.06zM201.828 128.964c0 .664-.049 1.16-.145 1.488-.144.512-.408.914-.791 1.206-.385.292-.861.438-1.429.438-.312 0-.601-.062-.864-.186s-.484-.302-.66-.534c-.016-.024-.031-.032-.047-.024-.017.009-.025.024-.025.049v2.771c0 .104-.051.156-.155.156h-.54c-.104 0-.156-.053-.156-.156v-8.088c0-.104.053-.156.156-.156h.54c.104 0 .155.053.155.156v.456c0 .024.009.038.025.042.016.004.031-.002.047-.018.176-.232.395-.412.654-.54s.551-.192.87-.192c.56 0 1.03.144 1.41.432s.642.681.786 1.177c.112.359.169.868.169 1.523zm-.918.918a5.02 5.02 0 0 0 .066-.918c0-.376-.017-.67-.049-.882a1.989 1.989 0 0 0-.168-.57c-.096-.288-.266-.516-.51-.684s-.534-.252-.87-.252c-.319 0-.588.084-.804.252a1.469 1.469 0 0 0-.48.672c-.072.16-.124.348-.156.564-.031.216-.047.516-.047.899s.016.687.047.906c.032.22.088.414.168.582.097.271.254.49.475.654.22.164.482.245.785.245.32 0 .597-.079.828-.239.232-.16.4-.372.504-.637.097-.174.166-.371.211-.592zM204.354 131.652a2.278 2.278 0 0 1-.857-1.225c-.113-.367-.168-.859-.168-1.476 0-.608.051-1.096.155-1.464.16-.512.446-.916.858-1.212s.914-.444 1.506-.444c.576 0 1.07.148 1.482.444s.693.695.846 1.199c.111.385.168.876.168 1.477 0 .616-.057 1.108-.168 1.476-.16.521-.446.929-.858 1.225s-.901.443-1.47.443c-.584.001-1.082-.147-1.494-.443zm2.478-.618c.271-.212.455-.498.552-.858.063-.256.096-.66.096-1.212 0-.576-.032-.979-.096-1.212a1.502 1.502 0 0 0-.546-.858c-.276-.212-.614-.317-1.014-.317-.385 0-.713.105-.984.317a1.574 1.574 0 0 0-.553.858c-.063.232-.096.636-.096 1.212s.032.98.096 1.212c.088.36.271.646.547.858.275.212.613.317 1.014.317.383.001.712-.105.984-.317zM213.18 126.012c.08.032.107.097.084.192l-.12.528c-.024.096-.089.128-.192.096a1.819 1.819 0 0 0-.588-.061 1.43 1.43 0 0 0-1.031.463c-.273.292-.408.661-.408 1.109v3.504c0 .104-.053.156-.156.156h-.54c-.104 0-.156-.052-.156-.156v-5.76c0-.104.052-.156.156-.156h.54c.104 0 .156.053.156.156v.672c0 .032.006.05.018.054.012.005.025-.006.042-.029.168-.288.382-.512.642-.672s.559-.24.895-.24c.261 0 .482.048.658.144zM217.176 126.636h-1.309c-.04 0-.06.021-.06.061v3.504c0 .384.086.653.258.81s.442.234.81.234h.265c.104 0 .155.052.155.156v.42c0 .104-.052.16-.155.168h-.408c-.576 0-1.013-.108-1.308-.324-.297-.216-.444-.616-.444-1.2v-3.768c0-.04-.021-.061-.06-.061h-.685c-.104 0-.155-.052-.155-.155v-.396c0-.104.051-.156.155-.156h.685c.039 0 .06-.02.06-.06v-1.344c0-.104.052-.156.155-.156h.517c.104 0 .156.052.156.156v1.344c0 .04.02.06.06.06h1.309c.104 0 .156.053.156.156v.396c-.001.103-.054.155-.157.155zM225.149 126.384c.396.368.595.856.595 1.464v3.996c0 .104-.053.156-.156.156h-.541c-.104 0-.155-.052-.155-.156v-.432c0-.024-.009-.04-.024-.048s-.031 0-.048.023c-.216.232-.485.408-.81.528s-.678.18-1.063.18c-.56 0-1.029-.144-1.41-.432-.38-.288-.57-.728-.57-1.32 0-.6.219-1.074.654-1.422.437-.348 1.043-.521 1.818-.521h1.393c.039 0 .06-.021.06-.061v-.443c0-.408-.114-.73-.343-.967-.228-.235-.582-.354-1.062-.354-.376 0-.684.072-.924.216a.953.953 0 0 0-.456.6c-.023.097-.084.137-.18.12l-.588-.071c-.104-.017-.152-.061-.145-.133.08-.439.326-.796.738-1.067.412-.272.926-.408 1.542-.408.721 0 1.28.185 1.675.552zm-.78 4.626c.348-.235.522-.554.522-.954v-.924c0-.04-.021-.06-.06-.06h-1.261c-.528 0-.952.107-1.272.324a1.028 1.028 0 0 0-.479.899c0 .353.124.618.372.798.248.181.564.271.948.271.472 0 .882-.118 1.23-.354zM228.305 131.844c-.348-.144-.615-.336-.803-.576a1.27 1.27 0 0 1-.283-.804v-.107c0-.104.053-.156.156-.156h.517c.048 0 .085.01.114.03.027.02.041.046.041.077v.108c0 .264.137.494.408.69.271.195.616.294 1.032.294s.752-.095 1.009-.282c.256-.188.383-.426.383-.714 0-.2-.063-.364-.191-.492a1.335 1.335 0 0 0-.469-.3 12.158 12.158 0 0 0-.827-.276 8.593 8.593 0 0 1-1.104-.384 2.106 2.106 0 0 1-.732-.534c-.199-.228-.299-.518-.299-.87 0-.512.201-.92.605-1.224s.934-.456 1.59-.456c.439 0 .83.072 1.17.216s.602.342.786.594.276.534.276.847c0 .104-.053.155-.156.155h-.492c-.104 0-.156-.027-.156-.084v-.071c0-.272-.13-.5-.39-.685-.26-.184-.61-.275-1.05-.275-.408 0-.736.082-.984.245a.772.772 0 0 0-.371.679.69.69 0 0 0 .354.624c.236.144.605.288 1.109.432.465.128.84.252 1.129.372.287.12.535.296.744.528.207.231.312.532.312.899 0 .521-.202.937-.606 1.248-.404.313-.945.468-1.625.468-.451 0-.849-.072-1.197-.216z"/></g><g class="st3"><path class="st4" d="M189.018 151.236c.428.432.643 1 .643 1.704 0 .695-.219 1.256-.654 1.68s-1.01.636-1.722.636h-2.328c-.04 0-.06.021-.06.061v3.527c0 .104-.053.156-.156.156h-.54c-.104 0-.156-.052-.156-.156v-8.1c0-.104.052-.156.156-.156h3.12c.702 0 1.269.216 1.697.648zm-.642 2.874c.296-.292.444-.679.444-1.158 0-.488-.148-.88-.444-1.176s-.681-.444-1.151-.444h-2.269c-.04 0-.06.021-.06.06v3.097c0 .04.02.06.06.06h2.269c.47-.001.855-.147 1.151-.439zM194.172 153.012c.08.032.107.097.084.192l-.119.528c-.025.096-.089.128-.193.096a1.815 1.815 0 0 0-.588-.061 1.43 1.43 0 0 0-1.031.463c-.272.292-.408.661-.408 1.109v3.504c0 .104-.053.156-.156.156h-.539c-.105 0-.156-.052-.156-.156v-5.76c0-.104.051-.156.156-.156h.539c.104 0 .156.053.156.156v.672c0 .032.006.05.018.054.012.005.026-.006.043-.029.168-.288.381-.512.642-.672.26-.16.558-.24.894-.24.261 0 .482.048.658.144zM195.479 151.662a.598.598 0 0 1-.18-.45c0-.184.06-.332.18-.444a.663.663 0 0 1 .468-.168c.192 0 .349.057.469.168.119.112.18.261.18.444a.6.6 0 0 1-.18.45.646.646 0 0 1-.469.174.648.648 0 0 1-.468-.174zm.048 7.182v-5.76c0-.104.053-.156.156-.156h.54c.104 0 .156.053.156.156v5.76c0 .104-.052.156-.156.156h-.54c-.103 0-.156-.052-.156-.156zM202.41 153.408c.38.376.57.88.57 1.512v3.924c0 .104-.053.156-.156.156h-.54c-.104 0-.156-.052-.156-.156v-3.756c0-.448-.132-.81-.396-1.086s-.608-.414-1.032-.414c-.408 0-.746.116-1.015.348a1.342 1.342 0 0 0-.461.912v3.996c0 .104-.053.156-.156.156h-.54c-.104 0-.156-.052-.156-.156v-5.76c0-.104.052-.156.156-.156h.54c.104 0 .156.053.156.156v.444c0 .023.008.042.023.054s.027.006.036-.018c.353-.48.888-.721 1.608-.721.632.001 1.139.189 1.519.565zM207.408 153.636H206.1c-.04 0-.06.021-.06.061v3.504c0 .384.086.653.258.81s.442.234.81.234h.265c.104 0 .155.052.155.156v.42c0 .104-.052.16-.155.168h-.408c-.576 0-1.013-.108-1.308-.324-.297-.216-.444-.616-.444-1.2v-3.768c0-.04-.021-.061-.06-.061h-.685c-.104 0-.155-.052-.155-.155v-.396c0-.104.051-.156.155-.156h.685c.039 0 .06-.02.06-.06v-1.344c0-.104.052-.156.155-.156h.517c.104 0 .156.052.156.156v1.344c0 .04.02.06.06.06h1.309c.104 0 .156.053.156.156v.396c-.002.103-.054.155-.158.155z"/></g><g class="st3"><path class="st4" d="M189.018 175.236c.428.432.643 1 .643 1.704 0 .695-.219 1.256-.654 1.68s-1.01.636-1.722.636h-2.328c-.04 0-.06.021-.06.061v3.527c0 .104-.053.156-.156.156h-.54c-.104 0-.156-.052-.156-.156v-8.1c0-.104.052-.156.156-.156h3.12c.702 0 1.269.216 1.697.648zm-.642 2.874c.296-.292.444-.679.444-1.158 0-.488-.148-.88-.444-1.176s-.681-.444-1.151-.444h-2.269c-.04 0-.06.021-.06.06v3.097c0 .04.02.06.06.06h2.269c.47-.001.855-.147 1.151-.439zM194.802 177.384c.396.368.595.856.595 1.464v3.996c0 .104-.053.156-.156.156h-.541c-.104 0-.155-.052-.155-.156v-.432c0-.024-.009-.04-.024-.048s-.031 0-.048.023c-.216.232-.485.408-.81.528s-.678.18-1.063.18c-.56 0-1.029-.144-1.41-.432-.38-.288-.57-.728-.57-1.32 0-.6.219-1.074.654-1.422.437-.348 1.043-.521 1.818-.521h1.393c.039 0 .06-.021.06-.061v-.443c0-.408-.114-.73-.343-.967-.228-.235-.582-.354-1.062-.354-.376 0-.684.072-.924.216a.953.953 0 0 0-.456.6c-.023.097-.084.137-.18.12l-.588-.071c-.104-.017-.152-.061-.145-.133.08-.439.326-.796.738-1.067.412-.272.926-.408 1.542-.408.721 0 1.279.185 1.675.552zm-.781 4.626c.348-.235.522-.554.522-.954v-.924c0-.04-.021-.06-.06-.06h-1.261c-.528 0-.952.107-1.272.324a1.028 1.028 0 0 0-.479.899c0 .353.124.618.372.798.248.181.564.271.948.271.473 0 .883-.118 1.23-.354zM201.06 176.928h.54c.104 0 .156.053.156.156v5.712c0 .896-.26 1.552-.78 1.968s-1.228.624-2.124.624c-.168 0-.296-.004-.384-.012-.104-.008-.156-.064-.156-.168l.024-.48c0-.111.052-.159.156-.144.848.04 1.461-.084 1.842-.372.379-.288.57-.768.57-1.439v-.421c0-.023-.009-.039-.024-.048-.017-.008-.032 0-.048.024-.368.472-.889.708-1.561.708-.52 0-.982-.14-1.386-.42-.404-.28-.675-.676-.81-1.188-.097-.328-.145-.815-.145-1.464 0-.352.01-.647.03-.888.02-.24.062-.456.126-.648.145-.479.404-.865.779-1.158.377-.291.828-.438 1.356-.438.696 0 1.231.228 1.608.684.016.024.031.032.048.024.016-.008.024-.024.024-.048v-.408c.003-.104.054-.156.159-.156zm-.168 3.792c.008-.176.013-.432.013-.768 0-.408-.005-.682-.013-.822a1.943 1.943 0 0 0-.06-.39c-.064-.336-.223-.614-.475-.834s-.57-.33-.953-.33c-.377 0-.695.107-.955.324-.26.216-.441.496-.545.84-.08.256-.121.656-.121 1.2 0 .584.041.987.121 1.212.079.336.254.613.521.834.268.22.594.33.979.33.391 0 .713-.108.965-.324s.41-.492.475-.828c.023-.12.04-.268.048-.444zM206.873 182.118a1.59 1.59 0 0 0 .606-.654.15.15 0 0 1 .084-.084.13.13 0 0 1 .12.012l.348.192c.096.056.121.124.072.204-.191.4-.48.718-.863.954-.385.236-.841.354-1.369.354-.56 0-1.031-.132-1.416-.396a2.198 2.198 0 0 1-.828-1.104c-.151-.399-.228-.951-.228-1.655 0-.345.007-.618.019-.822s.041-.395.09-.57c.136-.52.41-.936.822-1.248.412-.312.91-.468 1.494-.468.695 0 1.241.18 1.637.54.396.36.65.868.763 1.524.048.256.071.655.071 1.199 0 .104-.051.156-.155.156h-3.84c-.04 0-.06.021-.06.06 0 .4.023.692.071.877.088.359.274.646.558.857.284.212.643.318 1.074.318.361-.008.67-.09.93-.246zm-2.033-4.236a1.433 1.433 0 0 0-.504.822c-.049.16-.08.432-.096.815 0 .041.02.061.06.061h3.084c.04 0 .06-.02.06-.061a5.684 5.684 0 0 0-.072-.768 1.52 1.52 0 0 0-.533-.858c-.269-.212-.606-.317-1.014-.317-.401 0-.729.102-.985.306zM213.186 182.844c-.348-.144-.615-.336-.804-.576a1.27 1.27 0 0 1-.282-.804v-.107c0-.104.053-.156.156-.156h.516a.19.19 0 0 1 .114.03c.028.02.042.046.042.077v.108c0 .264.136.494.408.69.271.195.615.294 1.031.294s.752-.095 1.009-.282c.256-.188.384-.426.384-.714a.67.67 0 0 0-.191-.492 1.345 1.345 0 0 0-.469-.3c-.184-.072-.46-.164-.828-.276a8.648 8.648 0 0 1-1.104-.384 2.088 2.088 0 0 1-.732-.534c-.199-.228-.3-.518-.3-.87 0-.512.202-.92.606-1.224.403-.304.934-.456 1.59-.456.439 0 .83.072 1.17.216s.602.342.785.594c.185.252.277.534.277.847 0 .104-.053.155-.156.155h-.492c-.104 0-.156-.027-.156-.084v-.071c0-.272-.131-.5-.391-.685-.26-.184-.609-.275-1.049-.275-.408 0-.736.082-.984.245a.773.773 0 0 0-.372.679c0 .271.118.479.354.624.235.144.605.288 1.109.432.464.128.84.252 1.128.372s.536.296.744.528c.208.231.312.532.312.899 0 .521-.201.937-.605 1.248-.404.313-.946.468-1.626.468-.448 0-.847-.072-1.194-.216zM221.465 182.118a1.59 1.59 0 0 0 .606-.654.15.15 0 0 1 .084-.084.13.13 0 0 1 .12.012l.348.192c.096.056.121.124.072.204-.191.4-.48.718-.863.954-.385.236-.841.354-1.369.354-.56 0-1.031-.132-1.416-.396a2.198 2.198 0 0 1-.828-1.104c-.151-.399-.228-.951-.228-1.655 0-.345.007-.618.019-.822s.041-.395.09-.57c.136-.52.41-.936.822-1.248.412-.312.91-.468 1.494-.468.695 0 1.241.18 1.637.54.396.36.65.868.763 1.524.048.256.071.655.071 1.199 0 .104-.051.156-.155.156h-3.84c-.04 0-.06.021-.06.06 0 .4.023.692.071.877.088.359.274.646.558.857.284.212.643.318 1.074.318.361-.008.67-.09.93-.246zm-2.033-4.236a1.433 1.433 0 0 0-.504.822c-.049.16-.08.432-.096.815 0 .041.02.061.06.061h3.084c.04 0 .06-.02.06-.061a5.684 5.684 0 0 0-.072-.768 1.52 1.52 0 0 0-.533-.858c-.269-.212-.606-.317-1.014-.317-.401 0-.729.102-.985.306zM227.063 177.636h-1.308c-.041 0-.061.021-.061.061v3.504c0 .384.086.653.258.81s.442.234.811.234h.264c.104 0 .156.052.156.156v.42c0 .104-.053.16-.156.168h-.408c-.576 0-1.012-.108-1.308-.324s-.444-.616-.444-1.2v-3.768c0-.04-.02-.061-.06-.061h-.685c-.104 0-.155-.052-.155-.155v-.396c0-.104.052-.156.155-.156h.685c.04 0 .06-.02.06-.06v-1.344c0-.104.053-.156.156-.156h.516c.104 0 .156.052.156.156v1.344c0 .04.02.06.061.06h1.308c.104 0 .156.053.156.156v.396c0 .103-.052.155-.157.155zM232.691 176.928h.541c.104 0 .155.053.155.156v5.76c0 .104-.052.156-.155.156h-.541c-.104 0-.156-.052-.156-.156v-.456c0-.023-.008-.04-.023-.048s-.031 0-.048.024c-.345.479-.872.72-1.584.72-.384 0-.738-.078-1.062-.234-.324-.155-.58-.382-.769-.678s-.282-.651-.282-1.068v-4.02c0-.104.053-.156.156-.156h.54c.104 0 .155.053.155.156v3.768c0 .456.129.818.385 1.087.256.268.604.401 1.044.401.456 0 .817-.136 1.086-.408.269-.271.401-.632.401-1.08v-3.768c.001-.104.054-.156.157-.156zM240.18 179.964c0 .664-.049 1.16-.145 1.488-.144.512-.408.914-.791 1.206-.385.292-.861.438-1.429.438-.312 0-.601-.062-.864-.186s-.484-.302-.66-.534c-.016-.024-.031-.032-.047-.024-.017.009-.025.024-.025.049v2.771c0 .104-.051.156-.155.156h-.54c-.104 0-.156-.053-.156-.156v-8.088c0-.104.053-.156.156-.156h.54c.104 0 .155.053.155.156v.456c0 .024.009.038.025.042.016.004.031-.002.047-.018.176-.232.395-.412.654-.54s.551-.192.87-.192c.56 0 1.03.144 1.41.432s.642.681.786 1.177c.112.359.169.868.169 1.523zm-.918.918a5.02 5.02 0 0 0 .066-.918c0-.376-.017-.67-.049-.882a1.989 1.989 0 0 0-.168-.57c-.096-.288-.266-.516-.51-.684s-.534-.252-.87-.252c-.319 0-.588.084-.804.252a1.469 1.469 0 0 0-.48.672c-.072.16-.124.348-.156.564-.031.216-.047.516-.047.899s.016.687.047.906c.032.22.088.414.168.582.097.271.254.49.475.654.22.164.482.245.785.245.32 0 .597-.079.828-.239.232-.16.4-.372.504-.637.096-.174.166-.371.211-.592z"/></g><g class="st3"><path class="st4" d="M189.408 199.344h-4.368c-.04 0-.06.021-.06.061v2.939c0 .04.02.061.06.061h3.048c.104 0 .156.052.156.155v.433c0 .104-.053.156-.156.156h-3.048c-.04 0-.06.02-.06.06v2.988c0 .04.02.06.06.06h4.368c.104 0 .156.053.156.156v.432c0 .104-.053.156-.156.156h-5.124c-.104 0-.156-.052-.156-.156v-8.088c0-.104.052-.156.156-.156h5.124c.104 0 .156.053.156.156v.433c0 .102-.052.154-.156.154zM190.638 206.94c-.021-.04-.015-.084.019-.133l1.967-2.808a.057.057 0 0 0 0-.072l-1.967-2.808c-.024-.04-.037-.068-.037-.084 0-.032.013-.058.037-.078a.142.142 0 0 1 .096-.03h.576c.08 0 .144.032.191.097l1.536 2.231c.017.017.032.024.048.024s.028-.008.036-.024l1.536-2.231a.227.227 0 0 1 .191-.097h.637c.064 0 .105.021.126.061.02.04.01.084-.03.132l-1.98 2.808a.111.111 0 0 0 0 .072l1.98 2.808c.023.032.036.061.036.084a.098.098 0 0 1-.036.078c-.023.021-.056.03-.096.03h-.588a.227.227 0 0 1-.192-.096l-1.536-2.232c-.008-.016-.02-.023-.035-.023-.017 0-.033.008-.049.023l-1.548 2.232a.23.23 0 0 1-.192.096h-.611c-.058 0-.095-.02-.115-.06zM196.992 199.662a.598.598 0 0 1-.18-.45c0-.184.06-.332.18-.444.119-.111.275-.168.468-.168s.349.057.468.168a.58.58 0 0 1 .18.444c0 .185-.06.334-.18.45-.119.116-.275.174-.468.174s-.349-.058-.468-.174zm.048 7.182v-5.76c0-.104.052-.156.155-.156h.541c.104 0 .156.053.156.156v5.76c0 .104-.053.156-.156.156h-.541c-.103 0-.155-.052-.155-.156zM202.451 201.636h-1.307c-.041 0-.061.021-.061.061v3.504c0 .384.086.653.258.81s.441.234.811.234h.264c.104 0 .156.052.156.156v.42c0 .104-.053.16-.156.168h-.408c-.576 0-1.012-.108-1.309-.324-.295-.216-.443-.616-.443-1.2v-3.768c0-.04-.02-.061-.061-.061h-.684c-.104 0-.156-.052-.156-.155v-.396c0-.104.053-.156.156-.156h.684c.041 0 .061-.02.061-.06v-1.344c0-.104.052-.156.156-.156h.516c.104 0 .156.052.156.156v1.344c0 .04.02.06.061.06h1.307c.104 0 .156.053.156.156v.396c-.001.103-.052.155-.157.155z"/></g></svg>