<svg id="Слой_1" xmlns="http://www.w3.org/2000/svg" viewBox="0 0 310 266"><style>.st0{fill:#fff;fill-opacity:0;stroke:#edf2f3;stroke-width:3;stroke-linecap:square;stroke-miterlimit:50}.st1{fill:#edf2f2}</style><g transform="translate(-575 -975)"><path id="_x35_p3ga" class="st0" d="M810 1008.5v40"/></g><g transform="translate(-575 -975)"><path id="_x35_p3gb" class="st0" d="M730 1028.5v60"/></g><g transform="translate(-575 -975)"><path id="_x35_p3gc" class="st0" d="M650 1058.5v110"/></g><g transform="translate(-575 -975)"><path id="_x35_p3gd" class="st0" d="M810 1078.5v20"/></g><g transform="translate(-575 -975)"><path id="_x35_p3ge" class="st0" d="M810 1128.5v80"/></g><g transform="translate(-575 -975)"><path id="_x35_p3gf" class="st0" d="M810 1008.5h15"/></g><g transform="translate(-575 -975)"><path id="_x35_p3gg" class="st0" d="M794 1028.5h30"/></g><g transform="translate(-575 -975)"><path id="_x35_p3gh" class="st0" d="M810 1048.5h15"/></g><g transform="translate(-575 -975)"><path id="_x35_p3gi" class="st0" d="M810 1078.5h15"/></g><g transform="translate(-575 -975)"><path id="_x35_p3gj" class="st0" d="M810 1098.5h15"/></g><g transform="translate(-575 -975)"><path id="_x35_p3gk" class="st0" d="M795 1088.5h15"/></g><g transform="translate(-575 -975)"><path id="_x35_p3gl" class="st0" d="M730 1088.5h15"/></g><g transform="translate(-575 -975)"><path id="_x35_p3gm" class="st0" d="M715 1058.5h15"/></g><g transform="translate(-575 -975)"><path id="_x35_p3gn" class="st0" d="M650 1058.5h15"/></g><g transform="translate(-575 -975)"><path id="_x35_p3go" class="st0" d="M650 1168.5h15"/></g><g transform="translate(-575 -975)"><path id="_x35_p3gp" class="st0" d="M635 1113.5h15"/></g><g transform="translate(-575 -975)"><path id="_x35_p3gq" class="st0" d="M730 1028.5h15"/></g><g transform="translate(-575 -975)"><path id="_x35_p3gr" class="st0" d="M715 1168.5h30"/></g><g transform="translate(-575 -975)"><path id="_x35_p3gs" class="st0" d="M810 1128.5h15"/></g><g transform="translate(-575 -975)"><path id="_x35_p3gt" class="st0" d="M810 1148.5h15"/></g><g transform="translate(-575 -975)"><path id="_x35_p3gu" class="st0" d="M795 1168.5h30"/></g><g transform="translate(-575 -975)"><path id="_x35_p3gv" class="st0" d="M810 1188.5h15"/></g><g transform="translate(-575 -975)"><path id="_x35_p3gw" class="st0" d="M810 1208.5h15"/></g><g transform="translate(-575 -975)"><path id="_x35_p3gx" class="st1" d="M825 1003.5c0-1.7 1.3-3 3-3h44c1.7 0 3 1.3 3 3v9c0 1.7-1.3 3-3 3h-44c-1.7 0-3-1.3-3-3v-9z"/></g><g transform="translate(-575 -975)"><path id="_x35_p3gy" class="st1" d="M825 1023.5c0-1.7 1.3-3 3-3h44c1.7 0 3 1.3 3 3v9c0 1.7-1.3 3-3 3h-44c-1.7 0-3-1.3-3-3v-9z"/></g><g transform="translate(-575 -975)"><path id="_x35_p3gz" class="st1" d="M745 1023.5c0-1.7 1.3-3 3-3h44c1.7 0 3 1.3 3 3v9c0 1.7-1.3 3-3 3h-44c-1.7 0-3-1.3-3-3v-9z"/></g><g transform="translate(-575 -975)"><path id="_x35_p3gA" class="st1" d="M825 1043.5c0-1.7 1.3-3 3-3h44c1.7 0 3 1.3 3 3v9c0 1.7-1.3 3-3 3h-44c-1.7 0-3-1.3-3-3v-9z"/></g><g transform="translate(-575 -975)"><path id="_x35_p3gB" class="st1" d="M825 1073.5c0-1.7 1.3-3 3-3h44c1.7 0 3 1.3 3 3v9c0 1.7-1.3 3-3 3h-44c-1.7 0-3-1.3-3-3v-9z"/></g><g transform="translate(-575 -975)"><path id="_x35_p3gC" class="st1" d="M745 1083.5c0-1.7 1.3-3 3-3h44c1.7 0 3 1.3 3 3v9c0 1.7-1.3 3-3 3h-44c-1.7 0-3-1.3-3-3v-9z"/></g><g transform="translate(-575 -975)"><path id="_x35_p3gD" class="st1" d="M825 1093.5c0-1.7 1.3-3 3-3h44c1.7 0 3 1.3 3 3v9c0 1.7-1.3 3-3 3h-44c-1.7 0-3-1.3-3-3v-9z"/></g><g transform="translate(-575 -975)"><path id="_x35_p3gE" class="st1" d="M825 1123.5c0-1.7 1.3-3 3-3h44c1.7 0 3 1.3 3 3v9c0 1.7-1.3 3-3 3h-44c-1.7 0-3-1.3-3-3v-9z"/></g><g transform="translate(-575 -975)"><path id="_x35_p3gF" class="st1" d="M825 1143.5c0-1.7 1.3-3 3-3h44c1.7 0 3 1.3 3 3v9c0 1.7-1.3 3-3 3h-44c-1.7 0-3-1.3-3-3v-9z"/></g><g transform="translate(-575 -975)"><path id="_x35_p3gG" class="st1" d="M825 1163.5c0-1.7 1.3-3 3-3h44c1.7 0 3 1.3 3 3v9c0 1.7-1.3 3-3 3h-44c-1.7 0-3-1.3-3-3v-9z"/></g><g transform="translate(-575 -975)"><path id="_x35_p3gH" class="st1" d="M745 1163.5c0-1.7 1.3-3 3-3h44c1.7 0 3 1.3 3 3v9c0 1.7-1.3 3-3 3h-44c-1.7 0-3-1.3-3-3v-9z"/></g><g transform="translate(-575 -975)"><path id="_x35_p3gI" class="st1" d="M665 1163.5c0-1.7 1.3-3 3-3h44c1.7 0 3 1.3 3 3v9c0 1.7-1.3 3-3 3h-44c-1.7 0-3-1.3-3-3v-9z"/></g><g transform="translate(-575 -975)"><path id="_x35_p3gJ" class="st1" d="M665 1053.5c0-1.7 1.3-3 3-3h44c1.7 0 3 1.3 3 3v9c0 1.7-1.3 3-3 3h-44c-1.7 0-3-1.3-3-3v-9z"/></g><g transform="translate(-575 -975)"><path id="_x35_p3gK" class="st1" d="M585 1108.5c0-1.7 1.3-3 3-3h44c1.7 0 3 1.3 3 3v9c0 1.7-1.3 3-3 3h-44c-1.7 0-3-1.3-3-3v-9z"/></g><g transform="translate(-575 -975)"><path id="_x35_p3gL" class="st1" d="M825 1183.5c0-1.7 1.3-3 3-3h44c1.7 0 3 1.3 3 3v9c0 1.7-1.3 3-3 3h-44c-1.7 0-3-1.3-3-3v-9z"/></g><g transform="translate(-575 -975)"><path id="_x35_p3gM" class="st1" d="M825 1203.5c0-1.7 1.3-3 3-3h44c1.7 0 3 1.3 3 3v9c0 1.7-1.3 3-3 3h-44c-1.7 0-3-1.3-3-3v-9z"/></g></svg>