<svg xmlns="http://www.w3.org/2000/svg" viewBox="0 0 190.73 204.87"><defs><style>.cls-1{fill:#019dd9;}.cls-2{fill:#006cb5;}.cls-3{fill:#fff;}.cls-4{fill:none;stroke:#fff;stroke-miterlimit:10;stroke-width:5px;}</style></defs><g id="Layer_2" data-name="Layer 2"><g id="Layer_1-2" data-name="Layer 1"><polygon class="cls-1" points="95.36 0 95.36 0 95.36 0 0 34.01 14.54 160.1 95.36 204.87 95.36 204.87 95.36 204.87 176.18 160.1 190.73 34.01 95.36 0"/><polygon class="cls-2" points="95.2 0 95.2 22.74 95.2 22.64 95.2 126.4 95.2 126.4 95.2 204.87 95.2 204.87 176.02 160.1 190.57 34.01 95.2 0"/><rect class="cls-3" x="59.32" y="44.28" width="19.04" height="19.04"/><polygon class="cls-3" points="82.37 67.9 81.41 67.9 81.41 66.76 81.8 66.76 81.8 66.38 82.94 66.38 82.94 67.33 82.37 67.9"/><path class="cls-3" d="M79.48,67.9H77.54V66.76h1.94Zm-3.87,0H73.68V66.76h1.93ZM64,67.9H62.07V66.76H64Zm-3.87,0H58.2V66.76h1.93Z"/><polygon class="cls-3" points="56.27 67.9 55.31 67.9 54.74 67.33 54.74 66.38 55.88 66.38 55.88 66.76 56.27 66.76 56.27 67.9"/><path class="cls-3" d="M55.88,64.44H54.74V62.51h1.14Zm0-3.87H54.74V58.64h1.14Zm0-3.86H54.74V54.77h1.14Zm0-3.87H54.74V50.9h1.14Zm0-3.87H54.74V47h1.14Zm0-3.87H54.74V43.16h1.14Z"/><polygon class="cls-3" points="55.88 41.23 54.74 41.23 54.74 40.28 55.31 39.7 56.27 39.7 56.27 40.85 55.88 40.85 55.88 41.23"/><path class="cls-3" d="M79.48,40.85H77.54V39.7h1.94Zm-3.87,0H73.68V39.7h1.93Zm-3.87,0H69.81V39.7h1.93Zm-3.87,0H65.94V39.7h1.93Zm-3.87,0H62.07V39.7H64Zm-3.87,0H58.2V39.7h1.93Z"/><polygon class="cls-3" points="82.94 41.23 81.8 41.23 81.8 40.85 81.41 40.85 81.41 39.7 82.37 39.7 82.94 40.28 82.94 41.23"/><path class="cls-3" d="M82.94,64.44H81.8V62.51h1.14Zm0-3.87H81.8V58.64h1.14Zm0-3.86H81.8V54.77h1.14Zm0-3.87H81.8V50.9h1.14Zm0-3.87H81.8V47h1.14Zm0-3.87H81.8V43.16h1.14Z"/><rect class="cls-3" x="85.84" y="70.81" width="19.04" height="19.04"/><rect class="cls-3" x="112.37" y="96.65" width="19.04" height="19.04"/><rect class="cls-3" x="112.37" y="119.1" width="19.04" height="19.04"/><rect class="cls-3" x="112.37" y="141.54" width="19.04" height="19.04"/><polyline class="cls-4" points="85.84 80.33 68.84 80.33 68.84 63.33"/><polyline class="cls-4" points="112.37 106.85 95.36 106.85 95.36 89.85"/><polyline class="cls-4" points="112.37 128.62 95.36 128.62 95.36 89.85"/><polyline class="cls-4" points="112.37 151.06 95.36 151.06 95.36 89.85"/></g></g></svg>