<svg id="Слой_1" xmlns="http://www.w3.org/2000/svg" xmlns:xlink="http://www.w3.org/1999/xlink" viewBox="0 0 310 266"><style>.st0{fill:#edf2f3}.st1{opacity:.5}.st2{fill:#f5f7f8}.st3{fill:#dfe8e9}.st4,.st6{fill:#fff}.st6{fill-opacity:0;stroke:#edf2f3;stroke-width:6;stroke-miterlimit:50}.st7{fill:#c7d1d3}</style><g transform="translate(-970 -1463)"><path id="n5k3c" class="st0" d="M970 1499c0-1.7 1.4-3 3.1-3h303.8c1.7 0 3.1 1.3 3.1 3v34c0 1.7-1.4 3-3.1 3H973.1c-1.7 0-3.1-1.3-3.1-3v-34z"/></g><g transform="translate(-970 -1463)"><path id="n5k3d" class="st2" d="M970 1579c0-1.7 1.4-3 3.1-3h303.8c1.7 0 3.1 1.3 3.1 3v34c0 1.7-1.4 3-3.1 3H973.1c-1.7 0-3.1-1.3-3.1-3v-34z"/></g><g transform="translate(-970 -1463)"><path id="n5k3e" class="st2" d="M970 1659c0-1.7 1.4-3 3.1-3h303.8c1.7 0 3.1 1.3 3.1 3v34c0 1.7-1.4 3-3.1 3H973.1c-1.7 0-3.1-1.3-3.1-3v-34z"/></g><g transform="translate(-970 -1463)"><path id="n5k3f" class="st3" d="M980.3 1549c0-1.7 1.4-3 3.1-3h66.1c1.7 0 3.1 1.3 3.1 3v4c0 1.7-1.4 3-3.1 3h-66.1c-1.7 0-3.1-1.3-3.1-3v-4z"/></g><g transform="translate(-970 -1463)"><path id="n5k3g" class="st0" d="M980.3 1563.5c0-1.4 1.2-2.5 2.6-2.5h87.8c1.4 0 2.6 1.1 2.6 2.5s-1.2 2.5-2.6 2.5h-87.8c-1.4 0-2.6-1.1-2.6-2.5z"/></g><g transform="translate(-970 -1463)"><path id="n5k3h" class="st3" d="M980.3 1589c0-1.7 1.4-3 3.1-3h66.1c1.7 0 3.1 1.3 3.1 3v4c0 1.7-1.4 3-3.1 3h-66.1c-1.7 0-3.1-1.3-3.1-3v-4z"/></g><g transform="translate(-970 -1463)"><path id="n5k3i" class="st0" d="M980.3 1603.5c0-1.4 1.2-2.5 2.6-2.5h87.8c1.4 0 2.6 1.1 2.6 2.5s-1.2 2.5-2.6 2.5h-87.8c-1.4 0-2.6-1.1-2.6-2.5z"/></g><g transform="translate(-970 -1463)"><path id="n5k3j" class="st3" d="M980.3 1629c0-1.7 1.4-3 3.1-3h66.1c1.7 0 3.1 1.3 3.1 3v4c0 1.7-1.4 3-3.1 3h-66.1c-1.7 0-3.1-1.3-3.1-3v-4z"/></g><g transform="translate(-970 -1463)"><path id="n5k3k" class="st0" d="M980.3 1643.5c0-1.4 1.2-2.5 2.6-2.5h87.8c1.4 0 2.6 1.1 2.6 2.5s-1.2 2.5-2.6 2.5h-87.8c-1.4 0-2.6-1.1-2.6-2.5z"/></g><g transform="translate(-970 -1463)"><path id="n5k3l" class="st3" d="M980.3 1669c0-1.7 1.4-3 3.1-3h66.1c1.7 0 3.1 1.3 3.1 3v4c0 1.7-1.4 3-3.1 3h-66.1c-1.7 0-3.1-1.3-3.1-3v-4z"/></g><g transform="translate(-970 -1463)"><path id="n5k3m" class="st0" d="M980.3 1683.5c0-1.4 1.2-2.5 2.6-2.5h87.8c1.4 0 2.6 1.1 2.6 2.5s-1.2 2.5-2.6 2.5h-87.8c-1.4 0-2.6-1.1-2.6-2.5z"/></g><g transform="translate(-970 -1463)"><path id="n5k3n" class="st3" d="M1104.3 1549c0-1.7 1.4-3 3.1-3h66.1c1.7 0 3.1 1.3 3.1 3v4c0 1.7-1.4 3-3.1 3h-66.1c-1.7 0-3.1-1.3-3.1-3v-4z"/></g><g transform="translate(-970 -1463)"><path id="n5k3o" class="st4" d="M980.3 1514c0-1.7 1.4-3 3.1-3h66.1c1.7 0 3.1 1.3 3.1 3v4c0 1.7-1.4 3-3.1 3h-66.1c-1.7 0-3.1-1.3-3.1-3v-4z"/></g><g transform="translate(-970 -1463)"><path id="n5k3p" class="st4" d="M1104.3 1514c0-1.7 1.4-3 3.1-3h66.1c1.7 0 3.1 1.3 3.1 3v4c0 1.7-1.4 3-3.1 3h-66.1c-1.7 0-3.1-1.3-3.1-3v-4z"/></g><g transform="translate(-970 -1463)"><path id="n5k3q" class="st0" d="M1104.3 1563.5c0-1.4 1.2-2.5 2.6-2.5h87.8c1.4 0 2.6 1.1 2.6 2.5s-1.2 2.5-2.6 2.5h-87.8c-1.4 0-2.6-1.1-2.6-2.5z"/></g><g transform="translate(-970 -1463)"><path id="n5k3r" class="st3" d="M1104.3 1589c0-1.7 1.4-3 3.1-3h66.1c1.7 0 3.1 1.3 3.1 3v4c0 1.7-1.4 3-3.1 3h-66.1c-1.7 0-3.1-1.3-3.1-3v-4z"/></g><g transform="translate(-970 -1463)"><path id="n5k3s" class="st0" d="M1104.3 1603.5c0-1.4 1.2-2.5 2.6-2.5h87.8c1.4 0 2.6 1.1 2.6 2.5s-1.2 2.5-2.6 2.5h-87.8c-1.4 0-2.6-1.1-2.6-2.5z"/></g><g transform="translate(-970 -1463)"><path id="n5k3t" class="st3" d="M1104.3 1629c0-1.7 1.4-3 3.1-3h66.1c1.7 0 3.1 1.3 3.1 3v4c0 1.7-1.4 3-3.1 3h-66.1c-1.7 0-3.1-1.3-3.1-3v-4z"/></g><g transform="translate(-970 -1463)"><path id="n5k3u" class="st0" d="M1104.3 1643.5c0-1.4 1.2-2.5 2.6-2.5h87.8c1.4 0 2.6 1.1 2.6 2.5s-1.2 2.5-2.6 2.5h-87.8c-1.4 0-2.6-1.1-2.6-2.5z"/></g><g transform="translate(-970 -1463)"><path id="n5k3v" class="st3" d="M1104.3 1669c0-1.7 1.4-3 3.1-3h66.1c1.7 0 3.1 1.3 3.1 3v4c0 1.7-1.4 3-3.1 3h-66.1c-1.7 0-3.1-1.3-3.1-3v-4z"/></g><g transform="translate(-970 -1463)"><path id="n5k3w" class="st0" d="M1104.3 1683.5c0-1.4 1.2-2.5 2.6-2.5h87.8c1.4 0 2.6 1.1 2.6 2.5s-1.2 2.5-2.6 2.5h-87.8c-1.4 0-2.6-1.1-2.6-2.5z"/></g><g transform="translate(-970 -1463)"><path id="n5k3x" class="st0" d="M1243.8 1543c0-1.7 1.4-3 3.1-3h24.8c1.7 0 3.1 1.3 3.1 3v24c0 1.7-1.4 3-3.1 3h-24.8c-1.7 0-3.1-1.3-3.1-3v-24z"/></g><g transform="translate(-970 -1463)"><path id="n5k3y" class="st0" d="M1243.8 1583c0-1.7 1.4-3 3.1-3h24.8c1.7 0 3.1 1.3 3.1 3v24c0 1.7-1.4 3-3.1 3h-24.8c-1.7 0-3.1-1.3-3.1-3v-24z"/></g><g transform="translate(-970 -1463)"><defs><ellipse id="SVGID_1_" cx="1259.3" cy="1636" rx="15.5" ry="15"/></defs><clipPath id="SVGID_2_"><use xlink:href="#SVGID_1_" overflow="visible"/></clipPath><g clip-path="url(#SVGID_2_)"><path id="n5k3a" class="st6" d="M1243.8 1636c0-8.3 6.9-15 15.5-15s15.5 6.7 15.5 15-6.9 15-15.5 15-15.5-6.7-15.5-15z"/></g></g><g transform="translate(-970 -1463)"><path id="n5k3A" class="st7" d="M1254.2 1636c0-2.8 2.3-5 5.2-5s5.2 2.2 5.2 5-2.3 5-5.2 5-5.2-2.2-5.2-5z"/></g><g transform="translate(-970 -1463)"><defs><ellipse id="SVGID_3_" cx="1259.3" cy="1676" rx="15.5" ry="15"/></defs><clipPath id="SVGID_4_"><use xlink:href="#SVGID_3_" overflow="visible"/></clipPath><g clip-path="url(#SVGID_4_)"><path id="n5k3b" class="st6" d="M1243.8 1676c0-8.3 6.9-15 15.5-15s15.5 6.7 15.5 15-6.9 15-15.5 15-15.5-6.7-15.5-15z"/></g></g><g transform="rotate(45 2534.247 -380.144)"><path id="n5k3C" class="st7" d="M1273.6 1541.1c0-.6.5-1 1-1l10.2-.2c.6 0 1 .4 1 1v2c0 .6-.5 1-1 1l-10.2.2c-.6 0-1-.4-1-1v-2z"/></g><g transform="rotate(45 2534.247 -380.144)"><path id="n5k3D" class="st7" d="M1286 1527.7c.6 0 1 .4 1 1l-.2 14.2c0 .6-.5 1-1 1h-2c-.6 0-1-.4-1-1l.2-14.2c0-.6.5-1 1-1h2z"/></g></svg>