<svg xmlns="http://www.w3.org/2000/svg" xmlns:xlink="http://www.w3.org/1999/xlink" width="669.57" height="469.48" viewBox="0 0 669.57 469.48"><defs><path id="a" d="M924.07 541.11c-14.53 2.69-28.1-4.78-30.32-16.71l-19.17-103.15c-2.23-11.92 7.75-23.79 22.26-26.48 14.51-2.69 28.1 4.78 30.3 16.71l19.17 103.18c2.24 11.9-7.74 23.75-22.24 26.45z"/><path id="b" d="M973.98 528.85c-14.66.71-27.04-8.59-27.6-20.75l-5-105.27c-.6-12.19 10.85-22.62 25.52-23.32 14.69-.7 27.03 8.57 27.62 20.73l5 105.29c.57 12.17-10.86 22.61-25.54 23.32z"/><path id="c" d="M1173.45 229.99l77.47 89.8 53.67-45.79-77.49-89.82z"/><path id="d" d="M1223.21 187.57l77.38 89.95 4-3.38-77.42-89.97z"/><path id="e" d="M1231 194.22l24.73 29.58 1.1-.97-24.72-29.59z"/><path id="f" d="M1208.28 215.15l64.65 75.41 18.62-15.99-64.65-75.41z"/><path id="g" d="M1227.36 270.07l28.85 33.65 12.33-10.6-28.87-33.66z"/><path id="h" d="M1216.15 279.98l29.23 33.72 8.1-6.88-29.23-33.73z"/><path id="i" d="M1203.26 219.07l26.95 31.61.7-.6-26.94-31.62z"/><path id="j" d="M1201.45 220.66l26.42 31.2.7-.62-26.42-31.19z"/><path id="k" d="M1195.12 225.68l26.95 31.18.73-.61-26.96-31.19z"/><path id="l" d="M1194.33 226.85l26.93 31.6.72-.6-26.96-31.61z"/><path id="m" d="M1192.04 228.05l13.71 15.68.7-.6-13.7-15.68z"/><path id="n" d="M1191.22 229.04l13.7 15.67.71-.61-13.67-15.68z"/><path id="o" d="M1186.54 232.7l26.4 31.19.72-.6-26.46-31.19z"/><path id="p" d="M1185.08 233.87l21.08 24.06.69-.6-21.08-24.06z"/><path id="q" d="M1183.55 235.1l5.46 5.88.72-.58-5.44-5.87z"/><path id="r" d="M1210.37 223.51l8.96 10.46 9.29-7.98-8.97-10.45z"/><path id="s" d="M1157.33 213.16l65.16 35.52.32.77-46.24 85.3-.8.14-65.17-35.51-.32-.78 46.24-85.3z"/><path id="t" d="M1117.03 302.88l51.24 27.94 46.48-85.87-51.22-27.94z"/><path id="u" d="M1150.55 239.03l51.17 27.8 6.85-12.56-51.19-27.8z"/><path id="v" d="M1207.1 239.49l.44 1.34-47.57 88.32-1.35.35-.46-1.33 47.58-88.33z"/><path id="w" d="M850.82 370.38l154.48-30.06c2.26-.43 4.38.77 4.74 2.66l8.35 43.6c.37 1.9-1.15 3.8-3.4 4.25L860.47 420.9c-2.26.45-4.35-.75-4.74-2.65l-8.34-43.62c-.35-1.88 1.16-3.8 3.43-4.24z"/><path id="x" d="M852.35 372.66l7.15-1.4 1.36 7.24-7.14 1.4z"/><path id="y" d="M861.13 370.55l7.23-1.39c.47 2.41.93 4.82 1.42 7.23l-7.26 1.4-1.39-7.24z"/><path id="z" d="M871.1 369.46c2.4-.49 4.8-.94 7.23-1.4.47 2.41.92 4.81 1.4 7.23-2.43.49-4.83.95-7.23 1.4l-1.4-7.23z"/><path id="A" d="M880.05 367.02c2.42-.5 4.82-1 7.24-1.47.47 2.5.92 5.04 1.4 7.57-2.4.48-4.82.95-7.25 1.45-.47-2.52-.92-5.06-1.39-7.55z"/><path id="B" d="M889.03 365.52c2.4-.45 4.82-.9 7.25-1.39.46 2.43.9 4.81 1.4 7.24l-7.26 1.4-1.39-7.25z"/><path id="C" d="M898.58 363.44l7.56-1.39c.48 2.4 1 4.8 1.47 7.23l-7.57 1.4-1.46-7.24z"/><path id="D" d="M907.53 362c2.52-.5 5.06-1 7.6-1.47.47 2.52.96 5.04 1.45 7.57l-7.57 1.46c-.48-2.53-.99-5.06-1.48-7.55z"/><path id="E" d="M916.49 359.89l7.58-1.46c.49 2.52 1 5.03 1.45 7.58-2.5.46-5.04.97-7.56 1.44-.5-2.52-1-5.03-1.47-7.56z"/><path id="F" d="M926.16 357.98c2.4-.5 4.81-.97 7.26-1.47l1.39 7.49c-2.42.5-4.86.95-7.27 1.44l-1.38-7.46z"/><path id="G" d="M935.11 356.97c2.42-.47 4.87-.96 7.25-1.46l1.4 7.6c-2.4.45-4.82.95-7.24 1.45l-1.41-7.6z"/><path id="H" d="M945.09 355.87c2.39-.5 4.85-.96 7.23-1.45.46 2.52.94 5.02 1.42 7.57-2.42.48-4.82.98-7.26 1.45l-1.39-7.57z"/><path id="I" d="M954.07 353.7l7.23-1.4 1.4 7.23-7.25 1.4z"/><path id="J" d="M854.23 381.43l7.22-1.4 1.4 7.25-7.23 1.38z"/><path id="K" d="M863.2 379.96l7.24-1.45c.46 2.52.92 5.03 1.4 7.57-2.42.5-4.85 1-7.25 1.47-.48-2.55-.92-5.06-1.39-7.59z"/><path id="L" d="M873.15 377.87c2.42-.5 4.82-.97 7.25-1.45.46 2.5.9 5.03 1.4 7.56l-7.26 1.47-1.39-7.58z"/><path id="M" d="M882.12 375.69l7.23-1.39 1.4 7.24c-2.42.46-4.81.9-7.23 1.39l-1.4-7.24z"/><path id="N" d="M891.09 374.76c2.4-.45 4.81-.9 7.23-1.37.45 2.38.93 4.75 1.4 7.16-2.42.45-4.85.93-7.24 1.4-.47-2.42-.95-4.8-1.39-7.19z"/><path id="O" d="M900.06 372.86c2.39-.5 4.8-.97 7.23-1.45l1.4 7.55c-2.41.5-4.85.98-7.24 1.47-.5-2.54-.94-5.05-1.39-7.57z"/><path id="P" d="M909.5 370.67c2.5-.45 5-.92 7.5-1.4l1.44 7.26-7.49 1.39c-.47-2.42-.97-4.84-1.45-7.25z"/><path id="Q" d="M919.25 369.58c2.4-.45 4.84-.93 7.23-1.39.47 2.4.96 4.8 1.4 7.23-2.39.47-4.8.93-7.24 1.42-.46-2.43-.94-4.84-1.39-7.26z"/><path id="R" d="M928.22 367.48l7.25-1.4c.46 2.4.91 4.82 1.39 7.23-2.4.49-4.81.94-7.26 1.4-.45-2.4-.9-4.82-1.38-7.23z"/><path id="S" d="M937.19 365.67c2.43-.46 4.83-.94 7.23-1.41.49 2.42.94 4.84 1.42 7.25-2.43.47-4.82.95-7.26 1.4l-1.39-7.24z"/><path id="T" d="M946.14 363.56l7.25-1.39c.45 2.4.94 4.8 1.4 7.23-2.41.47-4.82.94-7.26 1.4l-1.39-7.24z"/><path id="U" d="M955.12 362.48l7.24-1.41 1.37 7.25-7.2 1.39z"/><path id="V" d="M856.3 390.7l7.24-1.38 1.38 7.14-7.23 1.37z"/><path id="W" d="M865.25 388.71c2.42-.48 4.84-.94 7.27-1.39.45 2.39.91 4.81 1.4 7.21l-7.28 1.42c-.45-2.42-.92-4.84-1.39-7.24z"/><path id="X" d="M874.21 387.61c2.42-.45 4.83-.92 7.24-1.4l1.4 7.24-7.23 1.39-1.41-7.23z"/><path id="Y" d="M883.19 385.51c2.41-.45 4.82-.9 7.23-1.39l1.4 7.23c-2.42.45-4.84.93-7.24 1.4-.45-2.44-.93-4.82-1.39-7.24z"/><path id="Z" d="M893.17 383.42c2.39-.47 4.8-.95 7.23-1.41.48 2.41.93 4.84 1.37 7.23-2.4.48-4.8.93-7.21 1.4l-1.39-7.22z"/><path id="aa" d="M902.41 381.6l7.6-1.4c.46 2.41.96 4.81 1.45 7.23l-7.6 1.4c-.47-2.4-.94-4.83-1.45-7.23z"/><path id="ab" d="M911.35 379.5c2.42-.48 4.84-.93 7.27-1.4.46 2.42.94 4.81 1.37 7.23l-7.24 1.4c-.45-2.4-.93-4.81-1.4-7.24z"/><path id="ac" d="M920.33 378.4l7.23-1.39c.49 2.41.95 4.81 1.4 7.22l-7.24 1.4c-.47-2.41-.94-4.81-1.39-7.23z"/><path id="ad" d="M929.29 375.96c2.43-.5 4.83-1 7.25-1.46l1.4 7.54c-2.43.5-4.84.97-7.24 1.47-.48-2.51-.93-5.04-1.41-7.55z"/><path id="ae" d="M938.24 374.38l7.25-1.38c.47 2.38.95 4.76 1.4 7.14l-7.22 1.38c-.5-2.38-.93-4.77-1.43-7.14z"/><path id="af" d="M948.23 373.06c2.4-.5 4.83-1 7.25-1.48.45 2.5.9 5.04 1.39 7.56l-7.26 1.46-1.38-7.54z"/><path id="ag" d="M957.21 370.94l7.21-1.47 1.4 7.56-7.22 1.47z"/><path id="ah" d="M857.34 399.93l7.24-1.47 1.4 7.57-7.24 1.45z"/><path id="ai" d="M866.31 397.46c2.41-.48 4.84-.93 7.25-1.39.44 2.39.91 4.8 1.39 7.23-2.4.45-4.83.91-7.25 1.4-.45-2.43-.93-4.85-1.39-7.24z"/><path id="aj" d="M876.28 396l7.24-1.45 1.39 7.56-7.23 1.46c-.48-2.54-.93-5.05-1.4-7.58z"/><path id="ak" d="M885.16 393.9c2.39-.5 4.76-.95 7.13-1.45.46 2.52.94 5.02 1.38 7.57-2.37.48-4.77.96-7.16 1.46-.42-2.54-.89-5.06-1.35-7.58z"/><path id="al" d="M931.33 385.6c2.43-.44 4.85-.92 7.28-1.39.44 2.42.92 4.83 1.39 7.24-2.42.48-4.84.93-7.27 1.4-.45-2.42-.92-4.82-1.4-7.25z"/><path id="am" d="M940.31 383.52l7.25-1.41c.44 2.4.91 4.82 1.38 7.24l-7.24 1.39c-.48-2.41-.93-4.81-1.39-7.22z"/><path id="an" d="M950.28 381.7l7.24-1.4c.46 2.4.92 4.83 1.4 7.23-2.43.48-4.85.93-7.25 1.4l-1.39-7.23z"/><path id="ao" d="M958.55 379.58l7.57-1.39 1.47 7.23-7.57 1.42z"/><path id="ap" d="M859.54 409.67l7.57-1.4 1.49 7.23-7.58 1.4z"/><path id="aq" d="M868.41 407.57c2.38-.45 4.77-.94 7.17-1.39.44 2.42.9 4.81 1.36 7.23-2.4.47-4.77.95-7.17 1.4l-1.36-7.24z"/><path id="ar" d="M878.2 405.76l7.23-1.42c.47 2.42.92 4.84 1.4 7.26l-7.24 1.4c-.48-2.43-.94-4.83-1.39-7.24z"/><path id="as" d="M887.14 403.67l7.25-1.41c.45 2.4.92 4.82 1.4 7.23l-7.25 1.42-1.4-7.24z"/><path id="at" d="M896.12 401.56c2.4-.48 4.82-.95 7.23-1.39.48 2.4.94 4.8 1.4 7.22-2.41.48-4.81.95-7.24 1.4l-1.39-7.23z"/><path id="au" d="M906.08 400.48l7.24-1.43 1.41 7.26-7.26 1.4c-.45-2.43-.93-4.84-1.39-7.23z"/><path id="av" d="M915.04 398.64l7.24-1.39c.47 2.4.95 4.81 1.4 7.22l-7.25 1.43c-.45-2.43-.93-4.84-1.39-7.26z"/><path id="aw" d="M924.01 396.55c2.4-.47 4.82-.95 7.23-1.39l1.4 7.22-7.24 1.42c-.48-2.44-.96-4.85-1.39-7.25z"/><path id="ax" d="M933.55 395.47c2.52-.48 5.06-.95 7.6-1.41.49 2.4.95 4.82 1.43 7.23-2.52.45-5.03.93-7.57 1.4-.48-2.43-.97-4.84-1.46-7.22z"/><path id="ay" d="M987.07 385c2.4-.48 4.82-.96 7.24-1.46.48 2.53.92 5.05 1.37 7.57l-7.22 1.48-1.39-7.58z"/><path id="az" d="M997.02 382.43c2.41-.47 4.84-.94 7.24-1.38.48 2.38.92 4.76 1.4 7.15-2.4.45-4.8.94-7.25 1.38l-1.39-7.15z"/><path id="aA" d="M1005.57 380.44l7.57-1.4 1.46 7.23-7.57 1.4z"/><path id="aB" d="M858.67 406.6l16.3-3.08-1.37-6.98-16.32 3.07z"/><path id="aC" d="M966 376.67l.34 1.8 1.39 7.26-7.12 1.42-9.09 1.8-1.37-7.27 9.08-1.81-.33-1.79-1.36-7.26 7.09-1.41z"/><path id="aD" d="M888.5 411.93l53.1-10.54-1.37-7.38-53.12 10.54z"/><path id="aE" d="M976.48 376.62l7.58-1.41c.5 2.4.98 4.82 1.46 7.23l-7.56 1.4-1.48-7.22z"/><path id="aF" d="M985.45 374.52c2.5-.48 5.06-.94 7.58-1.39.5 2.4.96 4.8 1.44 7.22l-7.56 1.42-1.46-7.25z"/><path id="aG" d="M994.42 372.69l7.57-1.39c.5 2.4 1 4.8 1.45 7.23-2.5.45-5.02.92-7.56 1.4-.5-2.41-.97-4.84-1.46-7.24z"/><path id="aH" d="M1003.37 371.6l7.23-1.39c.47 2.4.94 4.8 1.4 7.23l-7.24 1.4-1.39-7.24z"/><path id="aI" d="M972.41 357.67l7.25-1.4-1.42-7.23-7.23 1.4z"/><path id="aJ" d="M980.54 348.98l1.48 7.57 7.57-1.47-1.48-7.57z"/><path id="aK" d="M989.52 346.87l1.46 7.58 7.58-1.45-1.48-7.57z"/><path id="aL" d="M998.38 345.7l1.35 7.24 7.18-1.4-1.37-7.24z"/><path id="aM" d="M1007.49 353.07l-7.26 1.39 1.4 7.24 7.25-1.38z"/><path id="aN" d="M999.92 361.42l-1.4-7.24-7.26 1.4 1.4 7.24z"/><path id="aO" d="M990.68 362.51l-1.4-7.25-7.24 1.41 1.4 7.24z"/><path id="aP" d="M981.7 364.33l-1.38-7.24-7.24 1.4 1.39 7.23z"/><path id="aQ" d="M982.2 366.51l-7.16 1.43 1.4 7.57 7.15-1.46z"/><path id="aR" d="M983.4 366.49l1.47 7.22 7.57-1.4-1.47-7.21z"/><path id="aS" d="M993.33 364.04l1.4 7.57 7.27-1.47-1.41-7.57z"/><path id="aT" d="M1002 371.3l-7.58 1.39 1.46 7.25 7.56-1.41z"/><path id="aU" d="M1003.37 371.6l1.4 7.25 7.23-1.41-1.4-7.23z"/><path id="aV" d="M1003.7 370.51l7.23-1.47-1.39-7.56-7.24 1.47z"/><path id="aW" d="M994.47 380.35l-1.44-7.22-7.58 1.39 1.46 7.25z"/><path id="aX" d="M985.52 382.44l-1.46-7.23-7.58 1.41 1.48 7.23z"/><path id="aY" d="M1005.66 388.2l-1.4-7.15-7.24 1.38 1.4 7.15z"/><path id="aZ" d="M1005.57 380.44l1.46 7.23 7.57-1.4-1.46-7.23z"/><path id="ba" d="M995.72 390.57l-1.36-7.07-16.3 3.13 1.38 7.06z"/><path id="bb" d="M943.6 400.59l7.24-1.5-1.4-7.56-7.23 1.46z"/><path id="bc" d="M951.17 391.9l1.4 7.58 7.25-1.47-1.4-7.57z"/><path id="bd" d="M960.15 389.43l1.4 7.25 7.24-1.39-1.41-7.25z"/><path id="be" d="M903.53 398.55l-1.45-7.23-7.58 1.41 1.48 7.23z"/><path id="bf" d="M903.47 390.78l1.46 7.18 7.56-1.38-1.45-7.17z"/><path id="bg" d="M912.44 388.89l1.47 7.57 7.58-1.47-1.48-7.57z"/><path id="bh" d="M922.38 387.72l1.5 7.22 7.58-1.41-1.5-7.22z"/><path id="bi" d="M1134.69 292.96l16.82 19.47c.81.93.56 2.49-.55 3.47l-46.91 41.04c-1.12.98-2.68 1-3.5.08l-16.83-19.48c-.79-.94-.54-2.49.54-3.47l46.95-41.05c1.1-.98 2.66-1 3.48-.06z"/><path id="bj" d="M1130.32 295.34l18.27 21.27-31.96 28.2-18.26-21.29z"/><path id="bk" d="M1104.3 330.84l40.44-19.2-13.98-16.28-32.38 28.57z"/><path id="bl" d="M1139.63 301.3l3.75 3.84-.03.43-.49-.02-3.76-3.85.06-.43z"/><path id="bm" d="M1143.33 306.47l.43.02.04-.42-.42-.01z"/><path id="bn" d="M1092.41 345.12l2.26 2.59 1.82-1.63-2.23-2.56z"/><path id="bo" d="M1090.25 341.73l.8.92.66-.56-.8-.94z"/><path id="bp" d="M1097.02 348.89l1.08.93.87-.58-1.09-.92z"/><path id="bq" d="M1095.62 325.47l1.1 1.26-1.27 1.12-1.1-1.28z"/><path id="br" d="M1097.54 327.33l1.32 1.27-1.53 1.12-1.3-1.28z"/><path id="bs" d="M1098.67 328.45l1.11 1.25-1.28 1.1-1.09-1.24z"/><path id="bt" d="M1100.58 331.08l1.1 1.52-1.27 1.32-1.09-1.52z"/><path id="bu" d="M1102.48 332.18l1.11 1.26-1.27 1.11-1.09-1.27z"/><path id="bv" d="M1103.66 335.06l1.32 1.51-1.53 1.33-1.31-1.53z"/><path id="bw" d="M1105.54 336.15l1.32 1.27-1.5 1.1-1.33-1.27z"/><path id="bx" d="M1107.46 338.28l1.09 1.27-1.27 1.1-1.09-1.27z"/><path id="by" d="M1108.63 340.39l1.31 1.25-1.5 1.11-1.34-1.27z"/><path id="bz" d="M1110.77 342.01l1.08 1.51-1.27 1.32-1.09-1.52z"/><path id="bA" d="M1111.64 343.37l1.1 1.26-1.26 1.1-1.09-1.27z"/><path id="bB" d="M1113.55 345.49l1.1 1.25-1.27 1.1-1.09-1.26z"/><path id="bC" d="M1094.56 327.12l1.08 1.52-1.26 1.32-1.1-1.52z"/><path id="bD" d="M1095.45 328.21l1.1 1.27-1.27 1.1-1.1-1.26z"/><path id="bE" d="M1097.6 330.33l1.34 1.27-1.52 1.1-1.33-1.27z"/><path id="bF" d="M1098.5 332.45l1.08 1.26-1.26 1.1-1.09-1.25z"/><path id="bG" d="M1100.41 334.31l1.11 1.25-1.28 1.11-1.09-1.27z"/><path id="bH" d="M1102.56 336.43l1.33 1.25-1.52 1.1-1.32-1.26z"/><path id="bI" d="M1103.7 338.05l1.1 1.5-1.27 1.32-1.08-1.5z"/><path id="bJ" d="M1104.61 340.15l1.1 1.26-1.26 1.1-1.09-1.26z"/><path id="bK" d="M1107.53 341.26l1.32 1.27-1.52 1.1-1.31-1.26z"/><path id="bL" d="M1108.66 343.12l1.1 1.27-1.27 1.1-1.09-1.27z"/><path id="bM" d="M1110.56 345.25l1.11 1.26-1.27 1.1-1.09-1.26z"/><path id="bN" d="M1111.47 346.35l1.11 1.27-1.28 1.1-1.09-1.26z"/><path id="bO" d="M1092.45 328.48l1.1 1.28-1.26 1.1-1.09-1.26z"/><path id="bP" d="M1094.63 330.12l1.32 1.52-1.52 1.32-1.32-1.53z"/><path id="bQ" d="M1095.75 332.21l1.12 1.26-1.3 1.1-1.08-1.26z"/><path id="bR" d="M1097.65 334.09l1.12 1.53-1.28 1.3-1.09-1.5z"/><path id="bS" d="M1098.58 336.18l1.32 1.28-1.53 1.1-1.3-1.27z"/><path id="bT" d="M1099.73 337.3l1.09 1.28-1.26 1.1-1.1-1.28z"/><path id="bU" d="M1101.6 339.41l1.12 1.27-1.24 1.1-1.12-1.27z"/><path id="bV" d="M1103.53 341.03l1.1 1.53-1.25 1.32-1.11-1.52z"/><path id="bW" d="M1104.44 342.39l1.08 1.26-1.25 1.1-1.11-1.27z"/><path id="bX" d="M1106.59 345.01l1.09 1.53-1.24 1.3-1.12-1.52z"/><path id="bY" d="M1108.48 346.16l1.11 1.5-1.27 1.32-1.09-1.5z"/><path id="bZ" d="M1110.66 348.24l1.33 1.25-1.52 1.1-1.33-1.25z"/><path id="ca" d="M1090.65 329.36l1.32 1.26-1.5 1.1-1.33-1.26z"/><path id="cb" d="M1092.53 331.47l1.34 1.27-1.52 1.1-1.34-1.27z"/><path id="cc" d="M1093.67 333.11l1.11 1.51-1.25 1.33-1.12-1.54z"/><path id="cd" d="M1095.58 335.45l1.11 1.25-1.27 1.1-1.09-1.27z"/><path id="ce" d="M1097.49 337.08l1.12 1.52-1.28 1.3-1.11-1.5z"/><path id="cf" d="M1098.63 339.17l1.1 1.26-1.26 1.11-1.09-1.28z"/><path id="cg" d="M1099.55 341.3l1.1 1.25-1.26 1.1-1.1-1.27z"/><path id="ch" d="M1101.45 342.14l1.1 1.28-1.26 1.1-1.09-1.27z"/><path id="ci" d="M1103.63 344.25l1.32 1.29-1.52 1.09-1.31-1.27z"/><path id="cj" d="M1104.75 346.38l1.11 1.26-1.26 1.11-1.1-1.28z"/><path id="ck" d="M1106.42 348l1.1 1.5-1.26 1.3-1.11-1.5z"/><path id="cl" d="M1108.55 350.13l1.34 1.52-1.52 1.3-1.33-1.5z"/><path id="cm" d="M1088.42 331.33l1.12 1.25-1.26 1.11-1.12-1.27z"/><path id="cn" d="M1090.6 333.44l1.1 1.28-1.27 1.08-1.1-1.24z"/><path id="co" d="M1091.5 335.31l1.1 1.28-1.27 1.08-1.11-1.27z"/><path id="cp" d="M1093.68 337.42l1.3 1.25-1.5 1.1-1.32-1.26z"/><path id="cq" d="M1095.56 339.03l1.32 1.52-1.5 1.32-1.33-1.52z"/><path id="cr" d="M1096.71 341.15l1.1 1.28-1.27 1.08-1.09-1.26z"/><path id="cs" d="M1098.62 342.01l1.3 1.51-1.49 1.33-1.33-1.53z"/><path id="ct" d="M1099.77 344.15l1.1 1.51-1.26 1.3-1.12-1.5z"/><path id="cu" d="M1101.66 346.24l1.1 1.26-1.27 1.1-1.1-1.27z"/><path id="cv" d="M1102.57 348.35l1.09 1.27-1.26 1.1-1.09-1.26z"/><path id="cw" d="M1104.46 349.47l1.1 1.27-1.26 1.09-1.09-1.26z"/><path id="cx" d="M1106.63 351.33l1.1 1.25-1.27 1.1-1.09-1.26z"/><path id="cy" d="M1092.15 338.65l8.92 10.18 1.4-1.2-8.92-10.17z"/><path id="cz" d="M1109.61 351.24l-.34.35-1.38 1.36-1.21-1.57-1.52-2.02 1.38-1.36 1.51 2 .35-.32 1.39-1.38 1.2 1.57z"/><path id="cA" d="M1089.15 330.62l3.14 3.2 1.58-1.21-3.15-3.21z"/><path id="cB" d="M751.37 440.07l-63.2 41.67-1.86-.34-51.29-76.88.38-1.85 63.23-41.66 1.85.36 51.29 76.88z"/><path id="cC" d="M687.42 479.79l60.47-40.15-49.9-75.31-60.46 40.15z"/><path id="cD" d="M690.32 471.44l47.28-31.84-.27-.45-47.29 31.86z"/><path id="cE" d="M689.75 469.68l47.69-31.08-.3-.42-47.71 31.08z"/><path id="cF" d="M688.74 467.96l47.71-31.42-.3-.44-47.69 31.4z"/><path id="cG" d="M687.57 466.96l47.27-31.42-.3-.44-47.27 31.42z"/><path id="cH" d="M714.56 425.64l9.92-6.9-.27-.44-9.92 6.9z"/><path id="cI" d="M714.41 424.65l10.44-6.88-.29-.46-10.43 6.92z"/><path id="cJ" d="M712.45 422.93l10.02-6.93-.3-.44-10.01 6.91z"/><path id="cK" d="M711.81 421.62l10.03-6.9-.28-.45-10.02 6.9z"/><path id="cL" d="M712.76 423.54l10.03-6.9-.29-.46-10.03 6.91z"/><path id="cM" d="M710.6 419.85l10.02-6.91-.3-.46-10.01 6.91z"/><path id="cN" d="M709.43 418.85l10.56-6.91-.28-.46-10.56 6.93z"/><path id="cO" d="M707.6 415.52l9.9-6.91-.27-.45-9.93 6.9z"/><path id="cP" d="M707.43 414.52l10.44-6.92-.26-.43-10.46 6.91z"/><path id="cQ" d="M708.72 416.74l10.03-6.92-.3-.45-10 6.92z"/><path id="cR" d="M691.36 416.58l22.3-14.63-.28-.42-22.32 14.65z"/><path id="cS" d="M690.75 415.61l22.74-14.64-.28-.44-22.75 14.65z"/><path id="cT" d="M688.8 413.88l22.7-15.18-.28-.43-22.73 15.18z"/><path id="cU" d="M688.6 412.54l22.3-14.64-.27-.43-22.33 14.64z"/><path id="cV" d="M689.51 414.52l22.3-14.64-.25-.43-22.36 14.65z"/><path id="cW" d="M687.4 411.51l22.31-14.65-.27-.41-22.32 14.63z"/><path id="cX" d="M686.8 410.52l22.73-14.63-.28-.44-22.76 14.65z"/><path id="cY" d="M684.82 407.79l22.88-15.18-.3-.44-22.87 15.18z"/><path id="cZ" d="M684.66 406.8l22.86-15.17-.3-.43-22.87 15.16z"/><path id="da" d="M685.57 409.97l22.27-15.16-.25-.45-22.32 15.18z"/><path id="db" d="M683.53 405.9l22.33-15.32-.3-.46-22.3 15.35z"/><path id="dc" d="M683.38 404.91l22.3-15.16-.28-.44-22.32 15.19z"/><path id="dd" d="M681.39 402.63l22.32-15.17-.3-.44-22.31 15.16z"/><path id="de" d="M680.8 401.64l22.72-15.16-.28-.45-22.76 15.19z"/><path id="df" d="M681.7 403.81l22.3-15.15-.28-.45-22.32 15.16z"/><path id="dg" d="M679.6 400.61l22.3-15.16-.27-.43-22.33 15.16z"/><path id="dh" d="M679.42 398.63l22.31-15.15-.29-.45-22.3 15.16z"/><path id="di" d="M677.42 395.55l22.47-14.64-.3-.44-22.45 14.65z"/><path id="dj" d="M676.83 394.56l22.88-14.65-.31-.43-22.86 14.66z"/><path id="dk" d="M677.75 397.72l22.71-14.8-.27-.42-22.73 14.82z"/><path id="dl" d="M647.49 406.7l48.04-32.08-.29-.43-48.03 32.05z"/><path id="dm" d="M646.31 405.94l47.62-32.07-.28-.44-47.63 32.07z"/><path id="dn" d="M647.81 407.9l48.02-32.07-.3-.43-48.02 32.05z"/><path id="do" d="M686.3 464.85l25.6-17.38-6.74-10.39-25.64 17.36z"/><path id="dp" d="M712.05 446.52l21.5-14.2-6.72-10.11-21.51 14.2z"/><path id="dq" d="M702.78 433.82l10.02-6.9-.27-.48-10.04 6.94z"/><path id="dr" d="M701.6 432.8l10.02-6.9-.28-.44-10.02 6.92z"/><path id="ds" d="M699.77 430.48l9.9-6.91-.28-.46-9.9 6.93z"/><path id="dt" d="M698.6 429.48l9.9-6.9-.27-.45-9.92 6.9z"/><path id="du" d="M701.37 431.7l10.54-6.92-.3-.44-10.53 6.9z"/><path id="dv" d="M697.43 426.98l10.4-6.5-.29-.42-10.43 6.51z"/><path id="dw" d="M697.3 426l10.55-6.52-.3-.41-10.54 6.5z"/><path id="dx" d="M694.83 423.68l10.02-6.92-.29-.44-10.03 6.9z"/><path id="dy" d="M694.64 422.68l10-6.91-.25-.46-10.05 6.91z"/><path id="dz" d="M696.59 424.88l10.02-6.9-.29-.44-10.02 6.88z"/><path id="dA" d="M689.33 442.6l10.56-6.9-.3-.45-10.55 6.9z"/><path id="dB" d="M688.7 441.6l10.02-6.92-.28-.43-10.02 6.9z"/><path id="dC" d="M686.69 438.85l10.01-6.9-.3-.44-10 6.89z"/><path id="dD" d="M686.49 437.86l10.04-6.92-.28-.44-10.02 6.91z"/><path id="dE" d="M688.44 440.49l10.02-6.9-.27-.46-10.04 6.91z"/><path id="dF" d="M685.3 435.77l10.55-6.9-.3-.44-10.54 6.9z"/><path id="dG" d="M684.64 434.8l10.03-6.92-.28-.44-10.02 6.89z"/><path id="dH" d="M682.83 432.45l9.9-6.91-.27-.46-9.91 6.93z"/><path id="dI" d="M681.64 431.45l9.94-6.9-.28-.44-9.9 6.91z"/><path id="dJ" d="M683.6 433.69l9.9-6.9-.3-.46-9.9 6.9z"/><path id="dK" d="M677.44 450.75l10.03-6.9-.26-.44-10.04 6.89z"/><path id="dL" d="M676.29 449.75l10.56-6.9-.29-.43-10.55 6.9z"/><path id="dM" d="M674.48 446.98l10.43-6.5-.27-.41-10.45 6.5z"/><path id="dN" d="M673.29 446l10.43-6.51-.29-.4-10.43 6.49z"/><path id="dO" d="M675.76 448.63l9.92-6.9-.3-.45-9.88 6.9z"/><path id="dP" d="M672.7 443.94l10-6.52-.26-.42-10.04 6.5z"/><path id="dQ" d="M671.5 442.93l10.03-6.5-.3-.42-10 6.51z"/><path id="dR" d="M670.52 440.6l10-6.9-.28-.45-10.02 6.92z"/><path id="dS" d="M669.33 439.62l10.54-6.93-.29-.44-10.55 6.91z"/><path id="dT" d="M670.8 441.83l10.04-6.91-.29-.46-10.02 6.91z"/><path id="dU" d="M666.61 433.55l22.3-14.64-.27-.44-22.33 14.65z"/><path id="dV" d="M665.42 432.56l22.33-14.65-.27-.43-22.33 14.65z"/><path id="dW" d="M663.45 430.8l22.3-15.15-.26-.43-22.32 15.15z"/><path id="dX" d="M662.86 430l22.73-15.33-.3-.45-22.74 15.33z"/><path id="dY" d="M664.76 431.45l22.76-14.63-.28-.43-22.76 14.65z"/><path id="dZ" d="M662.66 428.98l22.32-15.16-.3-.43-22.31 15.14z"/><path id="ea" d="M661.49 427.46l22.3-14.64-.28-.43-22.34 14.63z"/><path id="eb" d="M659.5 424.71l22.46-15.16-.3-.45-22.46 15.18z"/><path id="ec" d="M659.47 423.75l22.31-15.18-.27-.45-22.34 15.18z"/><path id="ed" d="M660.82 426.9l22.86-15.18-.28-.43-22.87 15.18z"/><path id="ee" d="M658.81 422.64l22.74-15.15-.3-.45-22.74 15.16z"/><path id="ef" d="M657.64 421.86l22.28-15.35-.25-.44-22.32 15.35z"/><path id="eg" d="M655.64 418.59l22.31-14.66-.27-.43-22.31 14.65z"/><path id="eh" d="M655.47 416.58l22.31-14.62-.27-.43-22.34 14.63z"/><path id="ei" d="M656.39 419.75l22.3-15.17-.28-.43-22.32 15.18z"/><path id="ej" d="M654.86 415.58l22.73-14.65-.3-.41-22.74 14.63z"/><path id="ek" d="M653.67 414.6l22.32-14.66-.3-.43-22.3 14.65z"/><path id="el" d="M651.68 412.46l22.88-14.63-.3-.43-22.87 14.65z"/><path id="em" d="M650.66 411.5l22.3-14.65-.27-.41-22.32 14.63z"/><path id="en" d="M653.43 413.48l22.44-14.63-.27-.43-22.45 14.65z"/><path id="eo" d="M686.26 462.89l6.57-4.31-6.75-10.09-6.57 4.32z"/><path id="ep" d="M703.38 376.32a2.12 2.12 0 0 0 .62-2.99 2.12 2.12 0 0 0-2.97-.6 2.15 2.15 0 1 0 2.36 3.6z"/><path id="eq" d="M702.25 369.05a5.23 5.23 0 0 1 2.24-2.65l1.05-.61-1.02-1.38-1.04.61a7.32 7.32 0 0 0-2.44 2.39 6.24 6.24 0 0 0 .34 7.06l1.01-.12.52-.8a4.71 4.71 0 0 1-.66-4.5z"/><path id="er" d="M708.75 383.57a2.21 2.21 0 0 0 .62-3 2.2 2.2 0 0 0-2.99-.62 2.2 2.2 0 0 0-.62 3.01c.67 1 2.03 1.25 2.99.61z"/><path id="es" d="M707.59 375.96a5.34 5.34 0 0 1 2.23-2.76l1.04-.63-1.02-1.49-1.01.66a6.94 6.94 0 0 0-2.44 2.5 6.89 6.89 0 0 0 .31 7.43l1.01-.12.52-.85a5.21 5.21 0 0 1-.64-4.74z"/><path id="et" d="M712.85 391.3a2.17 2.17 0 0 0-2.4-3.6 2.2 2.2 0 0 0-.58 3.02 2.17 2.17 0 0 0 2.98.59z"/><path id="eu" d="M711.68 383.17c.41-1.08 1.15-2 2.25-2.65l1.03-.65-1.01-1.4-1.04.64a6.96 6.96 0 0 0-2.42 2.39 6.35 6.35 0 0 0 .32 7.15l1-.12.52-.82a4.77 4.77 0 0 1-.65-4.54z"/><path id="ev" d="M717.6 398.55c.99-.66 1.25-2 .59-2.99a2.15 2.15 0 1 0-3.6 2.4c.65.97 2.01 1.26 3 .6z"/><path id="ew" d="M716.42 391.08a5.43 5.43 0 0 1 2.23-2.78l1.03-.68-1-1.47-1.03.65a7.06 7.06 0 0 0-2.12 10.04l1.03-.1.52-.86a5.35 5.35 0 0 1-.66-4.8z"/><path id="ex" d="M722.1 405.16a2.3 2.3 0 0 0 .56-3c-.6-1-1.85-1.26-2.73-.62a2.3 2.3 0 0 0-.56 3.01c.6 1 1.83 1.25 2.74.6z"/><path id="ey" d="M721.23 399.01a5.43 5.43 0 0 1 2.24-2.64l1.05-.62-1.02-1.42-1.03.63a7 7 0 0 0-2.43 2.4 6.31 6.31 0 0 0 .32 7.14l.99-.1.52-.81h.01a4.88 4.88 0 0 1-.65-4.58z"/><path id="ez" d="M727.44 413.39c1-.65 1.27-1.99.6-2.98a2.17 2.17 0 1 0-3.6 2.4c.68.98 2 1.26 3 .58z"/><path id="eA" d="M726.27 405.94a5.61 5.61 0 0 1 2.25-2.8l1.02-.67-1.02-1.46-1.04.67a7.12 7.12 0 0 0-2.1 10.04l1.01-.14.53-.84a5.36 5.36 0 0 1-.65-4.8z"/><path id="eB" d="M732.84 420.14a2.16 2.16 0 0 0-2.38-3.6 2.2 2.2 0 0 0-.62 2.98 2.15 2.15 0 0 0 3 .62z"/><path id="eC" d="M731.66 413.02c.4-1.06 1.17-2 2.24-2.66l1.04-.63-1-1.4-1.05.6a7.49 7.49 0 0 0-2.42 2.43 6.38 6.38 0 0 0 .32 7.14l1-.12.53-.81a4.8 4.8 0 0 1-.66-4.55z"/><path id="eD" d="M736.9 427.36a2.16 2.16 0 0 0-2.4-3.59 2.17 2.17 0 1 0 2.4 3.6z"/><path id="eE" d="M735.72 420.22c.38-1.05 1.13-2 2.24-2.64l1.02-.65-1-1.4-1.04.64a6.6 6.6 0 0 0-2.41 2.39 6.46 6.46 0 0 0 .27 7.15l1.03-.12.52-.8a4.879 4.879 0 0 1-.63-4.57z"/><path id="eF" d="M742.79 435.3a2.2 2.2 0 0 0 .61-3.02 2.18 2.18 0 0 0-3.63 2.4 2.181 2.181 0 0 0 3.02.61z"/><path id="eG" d="M741.63 427.16a5.22 5.22 0 0 1 2.21-2.67l1.04-.62-1.01-1.42-1.04.63a7.04 7.04 0 0 0-2.42 2.4 6.45 6.45 0 0 0 .3 7.15l1.02-.1.52-.84a4.77 4.77 0 0 1-.62-4.53z"/><path id="eH" d="M756.36 437.96l63.21-41.68.41-1.82-51.29-76.88-1.85-.36-63.22 41.67-.37 1.85 51.28 76.87z"/><path id="eI" d="M756.22 435.44l60.68-40.36-50.05-75.7-60.69 40.35z"/><path id="eJ" d="M716.35 359.97l47.43-31.43-.29-.43-47.44 31.42z"/><path id="eK" d="M716.53 360.95l47.42-31.44-.28-.4-47.43 31.4z"/><path id="eL" d="M718.52 363.7l47.25-31.86-.28-.43-47.28 31.83z"/><path id="eM" d="M719.68 364.66l47.27-31.84-.29-.43-47.28 31.84z"/><path id="eN" d="M740.3 396.77l22.45-15.16-.3-.44-22.44 15.16z"/><path id="eO" d="M741.47 397.78l22.45-14.82-.29-.44-22.45 14.82z"/><path id="eP" d="M742.45 400.89l22.3-15.19-.28-.44-22.32 15.18z"/><path id="eQ" d="M743.61 401.84l22.32-15.16-.29-.44-22.31 15.2z"/><path id="eR" d="M741.7 398.67l22.76-15.17-.3-.43-22.74 15.18z"/><path id="eS" d="M744.84 402.88l22.72-15.17-.28-.42-22.73 15.14z"/><path id="eT" d="M745.42 403.86l22.33-15.15-.28-.45-22.32 15.16z"/><path id="eU" d="M746.4 405.96l22.32-15.17-.3-.43-22.31 15.17z"/><path id="eV" d="M747.57 406.96l22.32-15.18-.3-.45-22.31 15.18z"/><path id="eW" d="M745.65 404.95L768 389.8l-.3-.44-22.31 15.15z"/><path id="eX" d="M748.83 407.47l22.73-14.64-.3-.42-22.72 14.64z"/><path id="eY" d="M749.86 409.46l22.86-14.64-.28-.43-22.87 14.65z"/><path id="eZ" d="M750.84 411.73l22.74-15.17-.3-.43-22.73 15.18z"/><path id="fa" d="M752.42 413.71l22.32-15.16-.28-.43-22.32 15.18z"/><path id="fb" d="M750.53 410.57L773 395.9l-.32-.43-22.45 14.65z"/><path id="fc" d="M752.64 413.58l22.29-14.65-.27-.43-22.33 14.65z"/><path id="fd" d="M753.81 414.57l22.73-14.66-.3-.43-22.73 14.64z"/><path id="fe" d="M754.8 417.82l22.71-15.15-.26-.45-22.76 15.17z"/><path id="ff" d="M755.39 418.82l22.33-15.17-.3-.44-22.32 15.19z"/><path id="fg" d="M754.48 416.64l22.33-15.16-.3-.44-22.31 15.15z"/><path id="fh" d="M759.43 424.92l48.04-32.06-.28-.44-48.06 32.08z"/><path id="fi" d="M759.6 425.9l48.04-32.07-.3-.43-48.06 32.05z"/><path id="fj" d="M758.68 423.74l48.06-32.08-.33-.45-48.03 32.1z"/><path id="fk" d="M738.2 392.82l22.55-14.9-17.15-25.72-22.52 14.87z"/><path id="fl" d="M765.6 379.84l22.9-15.17-.29-.43-22.86 15.16z"/><path id="fm" d="M766.77 380.8l22.76-15.32-.3-.45-22.74 15.33z"/><path id="fn" d="M767.78 383.94l22.74-15.18-.3-.44-22.73 15.18z"/><path id="fo" d="M768.39 384.91l22.3-15.17-.29-.43-22.31 15.16z"/><path id="fp" d="M767.45 381.73l22.32-15.17-.27-.43-22.34 15.16z"/><path id="fq" d="M769.56 385.93l22.32-15.16-.3-.43-22.31 15.16z"/><path id="fr" d="M770.73 386.92l22.75-15.18-.28-.43-22.73 15.18z"/><path id="fs" d="M771.74 388.66l22.73-14.82-.3-.42-22.71 14.82z"/><path id="ft" d="M772.31 389.45l22.34-14.64-.3-.42-22.31 14.64z"/><path id="fu" d="M771.42 387.46l22.32-14.63-.29-.43-22.31 14.65z"/><path id="fv" d="M774.42 390.55l22.46-14.65-.3-.43-22.43 14.63z"/><path id="fw" d="M774.58 392.53l22.34-14.65-.3-.43-22.31 14.65z"/><path id="fx" d="M776.58 394.8l22.32-15.17-.3-.44-22.31 15.18z"/><path id="fy" d="M776.75 396.77l22.73-15.15-.28-.44-22.73 15.17z"/><path id="fz" d="M775.83 393.61l22.76-14.63-.32-.44-22.7 14.65z"/><path id="fA" d="M778.37 397.8l22.32-15.33-.3-.44-22.31 15.34z"/><path id="fB" d="M778.54 398.6l22.33-14.64-.3-.43-22.31 14.66z"/><path id="fC" d="M780.53 401.9l22.3-15.17-.27-.45-22.3 15.17z"/><path id="fD" d="M780.72 402.87l22.75-15.16-.32-.44-22.72 15.17z"/><path id="fE" d="M779.8 400.7l22.73-15.17-.28-.44-22.73 15.18z"/><path id="fF" d="M762.91 376.44l22.54-14.88-16.84-25.31-22.55 14.92z"/><path id="fG" d="M715.6 368.35c1-.65 1.26-2 .6-2.99a2.17 2.17 0 0 0-3-.6 2.16 2.16 0 0 0 2.4 3.6z"/><path id="fH" d="M709.4 364.35a4.57 4.57 0 0 0-3.22.95l-.95.72-.94-1.59.94-.73a6.64 6.64 0 0 1 3.08-1.27c2.48-.29 5 .96 6.48 3.48l-.46.92-.95.14a5.02 5.02 0 0 0-3.98-2.62z"/><path id="fI" d="M719.62 374.63a1.87 1.87 0 0 0 .61-2.73 2.3 2.3 0 0 0-2.99-.57 1.9 1.9 0 0 0-.63 2.75 2.3 2.3 0 0 0 3 .55z"/><path id="fJ" d="M714.44 371.97a4.85 4.85 0 0 0-3.25.95l-.95.74-.93-1.62.96-.7a6.52 6.52 0 0 1 3.07-1.27c2.47-.31 5.01.95 6.46 3.47l-.46.91-.95.14c-.9-1.6-2.4-2.5-3.95-2.62z"/><path id="fK" d="M725.43 382.34a2.16 2.16 0 0 0-2.41-3.59c-.97.65-1.26 2-.61 3 .64.98 2 1.24 3.02.59z"/><path id="fL" d="M719.42 379.33c-1.16-.1-2.35.2-3.37.95l-1 .72-.97-1.6.98-.7c1-.73 2.1-1.14 3.19-1.27 2.57-.3 5.2.94 6.74 3.47l-.48.92-.97.12a5.33 5.33 0 0 0-4.12-2.61z"/><path id="fM" d="M730.44 389.63c1-.6 1.28-1.83.6-2.75a2.3 2.3 0 0 0-2.97-.55c-1 .61-1.29 1.85-.62 2.75.65.9 2 1.14 3 .55z"/><path id="fN" d="M723.29 386.95c-1.11-.09-2.25.2-3.22.97l-1 .7-.91-1.58.94-.73a6.51 6.51 0 0 1 3.08-1.26 6.62 6.62 0 0 1 6.48 3.46l-.47.92-.93.13a5.17 5.17 0 0 0-3.97-2.61z"/><path id="fO" d="M735.58 398.19c1-.65 1.26-2 .57-3.01-.62-1-1.99-1.25-2.95-.6a2.18 2.18 0 0 0-.63 3c.67 1 2.02 1.27 3.01.6z"/><path id="fP" d="M728.26 394.17a4.55 4.55 0 0 0-3.2.98l-.94.72-.93-1.62.95-.7a5.92 5.92 0 0 1 3.02-1.26c2.45-.31 4.95.93 6.4 3.45l-.47.91-.91.16a5.07 5.07 0 0 0-3.92-2.64z"/><path id="fQ" d="M739.62 404.44c.98-.67 1.25-2 .6-3a2.18 2.18 0 0 0-3.62 2.4c.67 1 2.01 1.26 3.02.6z"/><path id="fR" d="M733.43 401.13c-1.1-.06-2.25.21-3.26.88l-.94.62-.94-1.4.96-.66a6.82 6.82 0 0 1 9.53 1.97l-.46.81-.92.12a5.15 5.15 0 0 0-3.97-2.34z"/><path id="fS" d="M744.7 412.18a2.16 2.16 0 1 0-2.38-3.6 2.16 2.16 0 0 0 2.38 3.6z"/><path id="fT" d="M738.52 409.15c-1.1-.1-2.24.23-3.24.96l-.95.74-.93-1.6.94-.73a6.64 6.64 0 0 1 3.08-1.25c2.48-.31 5 .92 6.47 3.45l-.47.92-.92.15a5.19 5.19 0 0 0-3.98-2.64z"/><path id="fU" d="M749.44 419.42a2.2 2.2 0 0 0 .61-3.01 2.22 2.22 0 0 0-3.03-.6 2.14 2.14 0 0 0-.58 3c.65 1 2 1.28 3 .6z"/><path id="fV" d="M743.15 416.1c-1.1-.09-2.22.2-3.2.95l-.95.7-.91-1.58.95-.71a5.93 5.93 0 0 1 3.02-1.25c2.44-.31 4.95.92 6.4 3.45l-.48.92-.92.14a4.99 4.99 0 0 0-3.9-2.62z"/><path id="fW" d="M754.64 426.32c1-.65 1.26-2 .63-2.98a2.16 2.16 0 0 0-3.62 2.38c.66 1 2 1.27 3 .6z"/><path id="fX" d="M747.46 422.98a4.93 4.93 0 0 0-3.24.98l-.95.73-.93-1.62.96-.71a6.05 6.05 0 0 1 3.08-1.25c2.46-.31 5 .93 6.46 3.44l-.48.92-.92.15a5.06 5.06 0 0 0-3.98-2.64z"/><path id="fY" d="M1032 329.85c6.68.68 12.78-6.1 13.63-15.11.84-9-3.91-16.88-10.56-17.54-6.7-.66-12.82 6.12-13.64 15.12-.87 9.01 3.9 16.88 10.58 17.53z"/><path id="fZ" d="M1045.67 312.86c.3-8.18-4.45-15.06-11.01-15.68l-1.47 14.51z"/><path id="ga" d="M1021.04 310.62c1.3-8.14 7.22-14.05 13.69-13.44l-1.44 14.62z"/><path id="gb" d="M814.38 379.47l1.08-2.92-29.18-11.08-1.08 2.93z"/><path id="gc" d="M814.9 376.5l1.06-2.8-28.77-10.62-1.06 2.8z"/><path id="gd" d="M827.6 381.74l-1.03-.97c-.66-.32-1.24-.4-1.3-.21l1.07.97z"/><path id="ge" d="M812.33 378.64l14.16 2.17.14-.32.1-.28-12.22-6.98-1.08 2.7z"/><path id="gf" d="M749.51 355.55l2.01-4.94c.2-.52 1.54-.55 3-.04 1.44.5 2.44 1.37 2.24 1.86l-2 4.95c-.2.53-1.56.53-2.98.02-1.44-.5-2.46-1.32-2.27-1.85z"/><path id="gg" d="M786.1 371.9l1.64-4.47-35.04-13.34-1.65 4.48z"/><path id="gh" d="M787.06 366.56l1.62-4.3-34.52-12.85-1.61 4.3z"/><path id="gi" d="M747.55 353.47l.7-1.97.92-.44 3.04 1.2.4.94-.7 1.98-.9.45-3.07-1.2z"/><path id="gj" d="M754.23 346.68l1.17-.49 26.98 9.67.55 1.12-1.19.52-26.98-9.68z"/><path id="gk" d="M766.28 353.96l.55-1.46-8.72-3.1-.61 1.46z"/><path id="gl" d="M1165.38 264.35l70.51 3 .6.61-4.67 110.3-.65.56-70.5-3.02-.6-.6 4.67-110.29z"/><path id="gm" d="M1164.11 289.32l71.94 3.15.75-17.9-71.95-3.14z"/><path id="gn" d="M1163.03 305.56l71.92 3.08.76-17.5-71.96-3.08z"/><path id="go" d="M1178.88 263.16l.86 1.13-4.7 114.2-.92 1.06-.85-1.13 4.68-114.2z"/><path id="gp" d="M1174.06 263.48l.86 1.13-4.7 114.2-.95 1.06-.81-1.13 4.65-114.2z"/><path id="gq" d="M1071.04 325.43l2.11 1.05 29.41-57.07-2.13-1.05z"/><path id="gr" d="M1072.2 325.89l2.09 1.1 28.7-56.83-2.08-1.08z"/><path id="gs" d="M1075.06 326.86l2.12 1.03 29.4-56.79-2.12-1.06z"/><path id="gt" d="M1067.2 338.94l3.22-13.9 1.8-.98.27 2.01 1.85-1 .25 2.08 1.82-.98.26 2z"/><path id="gu" d="M1067.18 339.63l.94-4.63 1.87 1.05z"/><path id="gv" d="M1099.51 268.1l2.02 1.18 2.02 1.21 2.01 1.19-.4-1.5-4.39-2.57z"/><path id="gw" d="M1101.16 267.49l4.53 2.05.1.07a9.77 9.77 0 0 0-4.63-2.12z"/><path id="gx" d="M644.48 324.44l81.34-.26-.37-116.69-81.33.24z"/><path id="gy" d="M658.3 268.69l4.33-.02-.09-34.44-4.35.02z"/><path id="gz" d="M664.15 268.68l4.32-.01-.06-23.53-4.33.02z"/><path id="gA" d="M652.07 267.71l4.85-.02-.04-15.3H652z"/><path id="gB" d="M688.12 267.61l4.86-.01-.02-7.58-4.88.02z"/><path id="gC" d="M694.52 268.57l4.3-.01-.02-12.05h-4.33z"/><path id="gD" d="M682.16 268.62H687l-.1-23.28h-4.83z"/><path id="gE" d="M707.08 268.54l4.84-.02-.02-7.99-4.87.02z"/><path id="gF" d="M713.46 268.77h4.33v-6.23l-4.35.03z"/><path id="gG" d="M701.37 268.56l4.32-.02-.04-14.27-4.34.02z"/><path id="gH" d="M651.02 215.61l67.52-.18v-.99l-67.52.17z"/><path id="gI" d="M651.02 218.69l67.54-.2-.01-.99-67.53.19z"/><path id="gJ" d="M651.04 224.75l67.54-.2-.03-4.32-67.53.2z"/><path id="gK" d="M651.06 227.78l67.52-.27-.02-1.33-67.5.26z"/><path id="gL" d="M651.19 274.67l24.31-.09v-1.33l-24.31.1z"/><path id="gM" d="M651.2 277.74l24.3-.1v-1.3l-24.3.06z"/><path id="gN" d="M682.24 274.58l36.26-.16.01-1.31-36.28.14z"/><path id="gO" d="M682.24 277.64l36.3-.15-.03-1.31-36.25.13z"/><path id="gP" d="M661.7 291.75l-.03-8.55-3.8 2.96-3.86 2.97 1.5 4.78 1.48 4.78z"/><path id="gQ" d="M663.09 282.35l.04 8.52 7.68-2.66-3.86-2.92z"/><path id="gR" d="M671.46 290.29l-8.1 2.63 5.03 6.8 1.53-4.73z"/><path id="gS" d="M668.54 299.74l-5.12-6.58-5.06 6.6 5.09-.01z"/><path id="gT" d="M698.34 290.9l9.36-.05-.02-9.34a9.38 9.38 0 0 0-9.34 9.38z"/><path id="gU" d="M708.05 292.4l.02 9.33c4.96-.01 8.94-4.21 8.92-9.38z"/><path id="gV" d="M708.02 290.85h8.94c0-5.2-4.02-9.37-8.96-9.34z"/><path id="gW" d="M707.74 301.74l-.03-9.36-9.34.02c0 5.17 4.2 9.34 9.37 9.34z"/><path id="gX" d="M682.34 285.56l8.4-.02v-2.31l-8.4.02z"/><path id="gY" d="M682.41 291.63l2.54-.01-.02-2.3h-2.56z"/><path id="gZ" d="M686.16 291.64l2.53-.02v-2.3l-2.54-.01z"/><path id="ha" d="M682.42 296.81h2.11l-.03-2.31-2.11-.01z"/><path id="hb" d="M685.36 296.8l6.29-.03-.01-2.31-6.27.02z"/><path id="hc" d="M651.29 307.62l67.52-.25-.02-1.31-67.5.24z"/><path id="hd" d="M651.3 310.69l67.53-.25v-1.31l-67.54.23z"/><path id="he" d="M651.34 316.85l67.51-.2-.02-4.31-67.52.2z"/><path id="hf" d="M1015.64 378.22l-3.22 8.38c-5.12 1.74-9.33 2.39-14.62 4.46-5.05 1.61-10.25-.46-1.8-3.97l.85-.46a12.29 12.29 0 0 0-1.96-21.8c-2.31-.58-4.5-.8-6.6-.64-2.1.15-4.1.68-6.01 1.56-3.9.43-4.74-.62-2.52-3.13 9.33-2.77 15.6-3.28 18.8-1.54 8.16 3.29 13.05 11.3 17.08 17.14z"/><path id="hg" d="M877.37 395.21c3.6-1.99-.72-6.06-4.41-3.85 1.7-2.07-1.98-5.16-4.33-2.36.3-2.02.09-3.82-5.72-1.73-7 4.12-12.48 8.11-16.43 11.97l8.08 13.18c6.5 1.43 28.3-1.95 33.85-5.47.04-2.85-2.23-3.45-6.92-1.8-3.38 1.7-6.15 1.85-8.25.51.6-2 2.38-4 5.33-5.98 1.47-1.4 6.54-2.9 15.17-4.5 2.64-1.92 2.31-3.03-1-3.33-4.5.7-9.63 1.83-15.37 3.36z"/><path id="hh" d="M879.14 496.07c-17.07-10.45-28.88-26.05-31.63-44.66-2-13.58 1.1-26.97 8.07-39a60.23 60.23 0 0 1-3.32-5.53c-10.15 15.08-14.88 32.56-12.26 50.3 6.6 44.67 57.12 74.35 112.83 66.3 55.75-8.06 95.58-50.8 88.99-95.46-2.7-18.34-12.81-34.15-27.68-45.88a53.5 53.5 0 0 1-1.83 7.61c10.18 9.54 17 21.5 19.01 35.09 2.82 19.14-4.44 37.9-18.5 52.95-14.24-7.5-40.6-10.18-69.83-5.95-28.14 4.06-51.9 13.52-63.85 24.23z"/><path id="hi" d="M1040.68 427.76c6.51 44.86-32.88 87.79-88 95.88-55.1 8.1-105.07-21.71-111.59-66.58-2.6-17.82 2.08-35.39 12.12-50.54a53.78 53.78 0 0 1-3.96-10c-15.29 19.14-22.89 42.55-19.4 66.46 7.49 51.65 63.8 86.17 125.73 77.07 61.93-9.1 106.06-58.35 98.55-110.02-3.62-24.95-18.64-45.92-40.18-59.88.18 3.88 0 7.73-.65 11.53 14.7 11.78 24.7 27.65 27.38 46.08z"/><path id="hk" d="M964.27 553.14c16.29-7.51 26.2-27.44 23.02-49.04a55.34 55.34 0 0 0-1.3-6.28c-8.84-14.12-11.55 13.74-10.76 6.74 4.46-39.72-41.27-43.43-47.4-13.17-8.2-13.49-11.5-.97-19.43 16.71.02 2.41.23 4.86.59 7.34 3.17 21.6 18.44 37.9 36.17 40.46-2.98 4.16-4.4 10.06-3.49 16.36 1.61 10.94 9.8 18.83 18.28 17.6 8.45-1.23 14-11.1 12.4-22.04-.93-6.3-4.01-11.57-8.08-14.68z"/><path id="hl" d="M927.77 490.77c6.1-30.26 51.66-26.55 47.21 13.18-.8 7 1.91-20.87 10.71-6.74-5.29-19.84-21.02-33.89-38.42-34.5l-.05-.55c-.72-4.86-4-8.42-7.28-7.94-3.32.48-5.4 4.8-4.69 9.7l.1.52c-16.25 5.47-27.19 22.93-26.95 43.05 7.9-17.69 11.2-30.2 19.37-16.72z"/><path id="hm" d="M908.48 469.58l63.5-9.56-.25-1.67-63.48 9.56z"/><path id="hn" d="M908.96 479.52c.1-4.31.33-7.8.71-10.41l-1.67.27c-.24 3.75-.4 7.33-.49 10.72a165.2 165.2 0 0 0 .64 21.8c.2-2.33.55-4.58 1-6.78-.21-6.06-.28-11.25-.19-15.6z"/><path id="ho" d="M974.22 469.86c1.41 3.6 3.14 8.28 5.2 13.97a52.35 52.35 0 0 1 3.54 6.8 682.32 682.32 0 0 0-6.86-20.7c-1.57-4.52-2.8-7.74-3.67-9.66l-2.41.36c.4-.04 1.81 3.04 4.2 9.23z"/><path id="hp" d="M934.3 466.44c.44-.06.71-.87.58-1.76-.1-.94-.56-1.6-.98-1.53-.44.07-.7.87-.6 1.79.13.9.58 1.58 1 1.5z"/><path id="hq" d="M947.8 464.5c.52-.08.84-.88.7-1.79-.15-.91-.7-1.59-1.2-1.5-.53.06-.83.86-.7 1.77.12.9.68 1.58 1.2 1.52z"/><path id="hr" d="M697.2 187.71a5465571.3 5465571.3 0 0 1 401.56-58.9c8.28-1.2 14.1 1.41 12.84 5.74-5.5 19-10.59 36.48-15.26 52.63-4.36 15-8.42 28.98-12.2 42.11-.8 2.72-6.77 5.7-13.22 6.64-51.92 7.6-103.91 15.24-155.58 22.82l-155.68 22.83c-6.33.92-12.76-.16-14.4-2.47l-25.77-36.57c-10-14.12-20.76-29.4-32.36-45.88-2.62-3.7 1.87-7.75 10.08-8.95z"/><path id="hs" d="M929.56 244.43l-84.52 12.45c-28.12 4.16-56.3 8.3-84.47 12.45l-8.77 1.28c-3.63.53-7.23 1.06-10.79 1.6 1.63 2.34 3.27 4.64 4.86 6.9 1.64 2.3 8.07 3.39 14.4 2.46l21.23-3.12 6.74-.98 9.47-1.4 33.03-4.84 1.97-.29 2-.3 16.54-2.41 2.15-.32.23-.03.82-.12 3.5-.52 2.75-.4.22-.03c1.84-.28 3.68-.55 5.54-.81l53.61-7.87 53.36-7.83 6.77-.99a612617.22 612617.22 0 0 1 91.14-13.36c6.44-.94 12.4-3.92 13.2-6.63.76-2.67 1.53-5.35 2.33-8.06-21.46 3.17-42.69 6.28-63.96 9.43l-63.76 9.37c-2.04.3-4.12.64-6.25.94l-.16.02c-7.79 1.15-15.49 2.3-23.18 3.41z"/><path id="ht" d="M708.26 195.4l192.75-28.2c64.14-9.34 128.38-18.74 192.64-28.13-3.96 15.56-7.7 30.09-11.13 43.65-3.25 12.74-6.33 24.77-9.2 36.12l-159.53 23.47-159.6 23.5c-6.51-9.99-13.45-20.64-20.82-31.92-7.86-12-16.25-24.83-25.11-38.5z"/><path id="hu" d="M850.48 251.6c21.48-14.13 44.28-29.16 68.5-45.1 25.74-16.9 53.25-35 82.8-54.35l-146.92 21.52c-48.8 7.14-97.71 14.32-146.6 21.48 8.87 13.72 17.27 26.59 25.13 38.63l20.83 32.03c15.97-2.36 32.04-4.74 48.1-7.1 16.09-2.39 32.12-4.75 48.16-7.11z"/><path id="hv" d="M841.8 257.5c-27.05 3.98-54.1 7.93-81.15 11.89l-8.81 1.28-10.83 1.59c1.64 2.33 3.28 4.63 4.88 6.88 1.65 2.3 8.1 3.38 14.46 2.46l21.3-3.11 6.78-.98 9.5-1.4 19.59-2.85c7.93-5.1 16.06-10.36 24.27-15.76z"/><path id="hw" d="M707.7 195.47c48.94-7.14 97.89-14.3 146.73-21.4 49.05-7.15 97.94-14.29 147.04-21.43 5.7-3.73 11.44-7.53 17.27-11.38l-160.86 23.51-160.67 23.49c-8.21 1.2-12.7 5.22-10.08 8.92l29.31 41.48c8.53 12.02 16.48 23.27 23.94 33.8l10.8-1.6c2.94-.41 5.84-.84 8.77-1.27 26.97-3.96 53.91-7.91 80.86-11.89l9.24-6.02c-16.06 2.36-32.1 4.7-48.2 7.08-16.08 2.35-32.17 4.73-48.14 7.07l-20.85-31.89c-7.87-12-16.28-24.81-25.15-38.47z"/><path id="hx" d="M896.86 175.27l-54.96 8.01c-18.26 2.67-36.5 5.31-54.8 7.98 5.4 11.71 10.45 22.8 15.27 33.3 4.56 9.94 8.92 19.39 13 28.36L862 246.1c15.56-2.3 31.17-4.6 46.86-6.89-1.73-9.31-3.58-19.1-5.5-29.4-2.06-10.87-4.23-22.37-6.5-34.54z"/><path id="hy" d="M810.18 203.91l5.79-.82 7.8 19.08-5.54.78c-2.6-6.12-5.28-12.48-8.05-19.04z"/><path id="hz" d="M821.09 209.06l5.77-.81c1.72 4.4 3.37 8.7 5.03 12.9l-5.55.78-5.25-12.87z"/><path id="hA" d="M807.51 216.16l5.77-.84 3.66 8.75-5.63.82c-1.27-2.87-2.5-5.77-3.8-8.73z"/><path id="hB" d="M854.15 213.84l5.25-.84 1.22 4.6-5.2.85c-.43-1.52-.86-3.05-1.27-4.6z"/><path id="hC" d="M861.36 210.12l5.63-.82c.58 2.24 1.19 4.46 1.79 6.64l-5.47.8-1.95-6.62z"/><path id="hD" d="M843.34 205.83l5.5-.81 4.04 12.98-5.3.8c-1.38-4.22-2.77-8.55-4.24-12.97z"/><path id="hE" d="M878.14 210.03c1.9-.29 3.78-.56 5.68-.86.38 1.57.71 3.11 1.06 4.65l-5.68.86-1.06-4.65z"/><path id="hF" d="M886.14 210.03l5.66-.89.73 3.62-5.65.88c-.22-1.2-.49-2.4-.74-3.61z"/><path id="hG" d="M869.04 207.84l5.63-.81c.68 2.7 1.37 5.32 2.04 7.91l-5.5.78c-.72-2.57-1.43-5.2-2.17-7.88z"/><path id="hH" d="M888.52 180.4l-90.49 13.54.3.71c30-4.49 60.13-9 90.32-13.5z"/><path id="hI" d="M888.31 182.52c-30.11 4.42-60.17 8.88-90.08 13.28l.3.7c29.87-4.41 59.85-8.82 89.95-13.29z"/><path id="hJ" d="M889.2 184.29l-89.66 12.68c.4.83.75 1.67 1.14 2.54 29.58-4.2 59.3-8.41 89.07-12.6-.17-.89-.38-1.74-.55-2.62z"/><path id="hK" d="M889.4 188.46l-88 12.88.27.65c29.2-4.28 58.5-8.55 87.88-12.86z"/><path id="hL" d="M841.56 222.24l-30.36 4.68.25.6c10.05-1.55 20.18-3.1 30.33-4.68z"/><path id="hM" d="M842.52 224.04l-30.24 4.3.24.56 30.22-4.3z"/><path id="hN" d="M892.5 215.17c-14.72 2.08-29.39 4.15-44.04 6.24l.2.54c14.64-2.06 29.27-4.14 43.98-6.22z"/><path id="hO" d="M893.82 217l-44.4 6.23.17.54 44.38-6.22z"/><path id="hP" d="M827.82 234.4c-.55-1.38-1.15-2.82-1.73-4.25l-4.39 2.17-4.38 2.22 2.93 2.06c.95.7 1.96 1.36 2.9 2.07 1.55-1.42 3.12-2.83 4.67-4.26z"/><path id="hQ" d="M827.35 229.23c.54 1.43 1.06 2.82 1.62 4.23 3-.91 5.96-1.8 8.93-2.72l-5.24-.75c-1.77-.24-3.57-.5-5.31-.76z"/><path id="hR" d="M839.73 232.05c-3.23.98-6.46 1.96-9.67 2.91 2.54.92 5.06 1.79 7.62 2.68.31-.92.65-1.84 1.02-2.78.3-.9.68-1.85 1.03-2.81z"/><path id="hS" d="M836.5 236.99c-2.36-.82-4.75-1.63-7.07-2.46L825 238.7l5.71-.84 5.8-.87z"/><path id="hT" d="M871.22 227.51l10.51-1.63-1.1-4.73c-5.88.91-10.08 3.77-9.41 6.36z"/><path id="hU" d="M882.5 226.54l1.06 4.32c5.71-.84 9.88-3.45 9.35-5.85-3.44.5-6.95 1.01-10.41 1.53z"/><path id="hV" d="M882.53 226.46l10.45-1.67c-.54-2.7-5.69-4.13-11.54-3.2.36 1.64.72 3.28 1.1 4.87z"/><path id="hW" d="M882.8 230.45c-.34-1.45-.7-2.92-1.07-4.41-3.46.53-6.92 1.05-10.41 1.56.66 2.44 5.8 3.68 11.48 2.85z"/><path id="hX" d="M860.48 225.43l-9.98 1.32.41 1.18c3.34-.45 6.66-.9 9.97-1.33z"/><path id="hY" d="M854.23 229.07l-2.95.37.43 1.17 2.97-.38z"/><path id="hZ" d="M859.3 228.19l-2.93.37.42 1.17c.94-.13 1.92-.25 2.92-.37z"/><path id="ia" d="M854.2 232.07l-2.15.32.4 1.14 2.1-.3z"/><path id="ib" d="M864.11 230.36c-2.64.4-5.25.82-7.85 1.23l.43 1.39c2.57-.42 5.17-.83 7.82-1.24z"/><path id="ic" d="M897.77 231.33l-79.65 11.74.25.55 79.53-11.74z"/><path id="id" d="M897.49 232.55c-26.5 3.87-52.98 7.71-79.33 11.56l.23.52c26.3-3.82 52.76-7.69 79.23-11.55z"/><path id="ie" d="M898.29 234.44c-26.41 3.83-52.8 7.63-79.02 11.44l.9 1.98c26.08-3.76 52.28-7.54 78.54-11.36z"/><path id="if" d="M1025.62 156.3l-58.65 8.56-58.63 8.53c1.88 12.22 3.7 23.78 5.4 34.7l4.54 29.57 49.84-7.34 49.98-7.33c1.11-9.7 2.25-19.93 3.46-30.67 1.28-11.33 2.64-23.32 4.06-36.02z"/><path id="ig" d="M1012.75 198.43c-29.47 4.29-58.88 8.6-88.26 12.89l.03.35c29.35-4.28 58.76-8.6 88.22-12.9z"/><path id="ih" d="M1012.7 199.16c-29.27 4.41-58.49 8.85-87.69 13.26l.06.34 87.59-13.26z"/><path id="ii" d="M1012.51 201.44c-29.12 4.23-58.18 8.46-87.25 12.67l.06.36 87.16-12.68z"/><path id="ij" d="M1012.99 202.21L925.4 215.4l.04.32 87.52-13.17z"/><path id="ik" d="M1012.62 200.55c-29.2 4.23-58.36 8.47-87.48 12.68l.05.36 87.37-12.71z"/><path id="il" d="M1012.9 203.53l-87.4 12.62.03.31c29.09-4.18 58.2-8.4 87.35-12.6z"/><path id="im" d="M1011.85 204.08l-86.8 13.25.04.34 86.73-13.26z"/><path id="in" d="M1011.66 205.36c-28.83 4.42-57.6 8.8-86.37 13.2l.04.33c28.72-4.39 57.52-8.78 86.3-13.2z"/><path id="io" d="M1011.58 207.08c-28.74 4.39-57.5 8.8-86.17 13.17l.02.35c28.69-4.4 57.37-8.8 86.13-13.19z"/><path id="ip" d="M1011.74 204.44c-28.88 4.26-57.75 8.5-86.57 12.72l.05.31 86.5-12.69z"/><path id="iq" d="M1011.5 207.4l-85.98 13.02.04.33c28.58-4.32 57.23-8.68 85.92-13z"/><path id="ir" d="M1011.97 208.11c-28.66 4.2-57.3 8.4-85.91 12.57l.06.31 85.85-12.56z"/><path id="is" d="M1011.76 210.35c-28.56 4.3-57.11 8.59-85.63 12.91l.02.33c28.5-4.31 57.04-8.6 85.6-12.91z"/><path id="it" d="M1011.69 211.03c-28.5 4.16-57.01 8.3-85.49 12.48l.04.31c28.45-4.15 56.95-8.31 85.4-12.48z"/><path id="iu" d="M1011.9 209.49c-28.63 4.3-57.18 8.63-85.73 12.95l.04.32c28.51-4.32 57.06-8.61 85.66-12.93z"/><path id="iv" d="M1011.61 212.14l-85.28 13 .03.33 85.22-13z"/><path id="iw" d="M1011.53 213.4c-28.37 4.34-56.75 8.65-85.1 13l.04.3 85.03-12.95z"/><path id="ix" d="M1010.94 215.03c-28.3 4.16-56.59 8.35-84.84 12.5l.05.33c28.21-4.16 56.49-8.35 84.76-12.53z"/><path id="iy" d="M1010.87 216.25c-28.24 4.12-56.47 8.22-84.66 12.35l.05.3 84.58-12.35z"/><path id="iz" d="M1011.47 214.17c-28.34 4.33-56.64 8.64-84.93 13l.06.29c28.25-4.3 56.53-8.62 84.85-12.95z"/><path id="iA" d="M1010.5 220.18l-83.37 12.23.03.28 83.32-12.2z"/><path id="iB" d="M1010.98 220.2l-83.74 12.36.04.3 83.68-12.35z"/><path id="iC" d="M1010.59 219.36c-27.87 4.1-55.74 8.17-83.57 12.26l.03.3c27.8-4.09 55.65-8.16 83.51-12.24z"/><path id="iD" d="M921.16 187.82l27.24-4.02 15.01-2.23c16.76-2.48 33.55-4.95 50.3-7.44-.28 3.06-.54 6.06-.83 9.03l-49.22 7.3c-4.9.7-9.74 1.43-14.68 2.16l-26.7 3.96c-.35-2.9-.73-5.8-1.12-8.76z"/><path id="iE" d="M922.4 198.54l40.95-6.2c.11 3.77.2 7.46.26 11.1l-39.8 6.02c-.44-3.56-.9-7.2-1.41-10.92z"/><path id="iF" d="M972.3 191.34c13.84-2.05 27.76-4.13 41.52-6.19-.33 3.83-.65 7.57-1 11.26l-40.4 6.05c-.04-3.64-.1-7.34-.12-11.12z"/><path id="iG" d="M1016.46 162.25l-95.94 14.27.06.37 95.86-14.22z"/><path id="iH" d="M1015.93 164.08c-32 4.79-63.92 9.6-95.82 14.36l.07.39c31.84-4.77 63.76-9.54 95.73-14.34z"/><path id="iI" d="M1015.84 165.01l-95.62 14.33.06.4c31.8-4.77 63.63-9.54 95.54-14.34z"/><path id="iJ" d="M1015.62 168.07l-95.13 14.1.03.4 95.09-14.1z"/><path id="iK" d="M1015.55 168.52c-31.52 4.53-63.02 9.04-94.51 13.55l.06.39 94.41-13.53z"/><path id="iL" d="M1015.75 166.53c-31.83 4.53-63.63 9.1-95.42 13.6l.05.41c31.76-4.53 63.54-9.05 95.32-13.6z"/><path id="iM" d="M1015.44 169.46l-94.25 14.04.03.38c31.39-4.65 62.76-9.32 94.17-14z"/><path id="iN" d="M1014.92 170.35c-31.24 4.66-62.45 9.34-93.62 13.98l.06.4c31.16-4.65 62.32-9.33 93.53-14z"/><path id="iO" d="M1111.55 132.66c-1.52-5.97-4.53-8.8-9.02-8.52l-406 59.19c-7 1.17-11.32 4.08-10.15 11.54.45-2.35 2.12-6.04 10.87-6.67l320.85-46.77 85.13-12.41c4.36.12 7.49 1.5 8.32 3.64z"/><path id="iP" d="M1100.84 124.38c-143.2-10.8-279.28 9.18-408.21 59.92-4.65 1.58-7.2 4.62-6.25 10.58a6.55 6.55 0 0 1 2.32-4c.8-.64 1.86-1.24 3.24-1.7 1.4-.47 3.14-.8 5.31-.97l320.85-46.78 85.13-12.41c4.36.12 7.48 1.5 8.32 3.64-1.52-5.97-4.53-8.8-9.02-8.52z"/><path id="iQ" d="M697.23 188.2l134.17-19.59 1.63-.6c5.87-2.16 12.92-4.74 21.2-7.72 23.83-8.62 57.74-20.67 101.67-36.18a892.83 892.83 0 0 0-263.28 60.19c-4.65 1.57-7.19 4.62-6.24 10.57a6.55 6.55 0 0 1 2.31-3.99c.81-.65 1.86-1.24 3.24-1.71a22.2 22.2 0 0 1 5.3-.96z"/><path id="iR" d="M975.99 122.81a23163.07 23163.07 0 0 1-105.35 34.8c-9.75 3.18-18.26 5.95-25.54 8.3l-2.07.66 174.37-25.3 84.86-12.33c4.34.12 7.46 1.49 8.29 3.62-1.52-5.92-4.52-8.74-9-8.46l-1.68.24a975.39 975.39 0 0 0-123.88-1.53z"/><path id="iS" d="M858.76 290.59l-3.32-22.65-1.97.29-.82.12-.22.03-2.16.32-13.25 1.93 4.5 30.8a16.78 16.78 0 0 0 19 14.13l124.99-18.24a16.82 16.82 0 0 0 14.19-18.98l-4.52-30.79-6.02.88-9.53 1.38-2.88.42 3.3 22.66a12.88 12.88 0 0 1-10.87 14.56l-95.86 13.98a12.86 12.86 0 0 1-14.56-10.84z"/><path id="iT" d="M873.38 301.51a12.87 12.87 0 0 1-14.59-10.79l-3.32-22.54-1.97.29-.82.12-.23.03-2.16.32-13.27 1.92 4.5 30.65a16.79 16.79 0 0 0 19.03 14.06l37.42-5.42c4.81-4.9 9.42-9.64 13.89-14.21z"/><path id="iU" d="M1199.66 364.42l-1.3 1.34 36.23 35.16 1.28-1.33z"/><path id="iV" d="M1198.48 365.46l-1.27 1.36 36.2 35.74 1.3-1.36z"/><path id="iW" d="M1197.33 367.11l-1.3 1.36 36.21 35.32 1.3-1.35z"/><path id="iX" d="M1190.35 358.3l9.9 6 .3 1.67-1.6-.27.36 1.7-1.62-.3.28 1.69-1.57-.28z"/><path id="iY" d="M1190.36 358.3l3.38 1.96-1.32 1.35z"/><path id="iZ" d="M1237.8 399.48l-1.45 1.34-1.47 1.34-1.46 1.35h1.23l3.2-2.92z"/><path id="ja" d="M1236.63 400.49l-2.56 3-.04.07a7.66 7.66 0 0 0 2.6-3.07z"/><path id="jb" d="M1089.05 375.33c8.1-6.4 20.33-5.18 27.4 2l9.47-7.34c2.11-1.03 4.43-.62 5.38.73 1.05 2.08.65 4.38-.73 5.32l-9.57 6.6c4.45 9.78 2.29 20.54-6.55 27-9.46 7.36-22.65 4.78-30.06-4.58-7.4-9.36-4.8-22.4 4.66-29.73z"/><path id="jc" d="M1091.66 379c7.62-4.91 17.74-3.35 23.27 3.43 4.93 7.65 3.36 17.75-3.43 23.3-7.63 4.92-17.72 3.35-23.28-3.45-4.9-7.64-3.34-17.74 3.44-23.28z"/><path id="jd" d="M1090.64 387.85c7.4-5.48 17.34-3.96 21.96 2.02 2.7 3.28 3.14 6.18 2.96 9.88a16.67 16.67 0 0 0-1.13-17.54c-5.44-6.58-15.4-8.1-22.88-3.33-4.68 3.61-6.75 9.82-5.9 15.61 1.14-2.39 3.01-4.88 5-6.64z"/><path id="je" d="M1092.73 385.96c1.35-.97 2.08-1.08 2.91-.44.12.76-.52 1.62-1.14 2.47-1.36.98-2.08 1.08-2.9.43-.12-.73-.23-1.49 1.13-2.46z"/><path id="jf" d="M1088.88 389.54l1.58-.19c.12.67.12.67-.55 1.42l-1.59.19c-.12-.66-.12-.66.56-1.42z"/><path id="jg" d="M692.83 321.84l4.42-.64 4.64-.68 1.09-.14.67-1.16-.07-.43-.95-.71-5.72.83-5.49.8-.91.97.06.43 1.2.88z"/><path id="jh" d="M698.1 326.56l-4.04.5-.2.03-.73.83.08.37.97.64 4.22-.54 4.45-.56.75-.85-.07-.36-.99-.62-.44.05z"/><path id="ji" d="M693.67 327.79l4.1-.58 4.08-.58c-1.41-2.17-1.5-4.3-.3-6.39l-4.73.67-4.51.65a6.04 6.04 0 0 1 1.36 6.23z"/><path id="jj" d="M696.4 318.16l-.91 1.41 1.07-.17 1.33-.22z"/><path id="jk" d="M695.51 328.76l4.3 12.8.7-13.54-2.6.39z"/><path id="jl" d="M1124 233.32l-1.72 3.5-1.8 3.66-.4.84.63 1.1.4.16 1.11-.32 2.2-4.5 2.15-4.34-.37-1.16-.4-.18-1.4.41z"/><path id="jm" d="M1117.8 234.33l1.62-3.38.1-.18-.5-1.07-.4-.18-1.14.34-1.67 3.57-1.78 3.74.45 1.08.42.17 1.15-.34.16-.35z"/><path id="jn" d="M1118.54 230.18l-1.58 3.19-1.57 3.2c2.57.12 4.5 1.15 5.68 3.1l1.82-3.68 1.74-3.54a7.14 7.14 0 0 1-6.1-2.27z"/><path id="jo" d="M1125.64 238.36l-.48-1.13-.37.75-.4.91z"/><path id="jp" d="M1115.59 230.94l-13.03-3.47 11.1 7.5 1.01-2.09z"/><path id="jq" d="M968.33 293.63c3.5-2.74 9.15-3.39 14.42-1.1 6.24 2.72 9.9 8.59 9.03 13.76l1.48.63.53 1.43-1.4.56-1.23-.54c-2.39 5.65-10.1 7.74-17.17 4.67-7.04-3.08-10.76-10.16-8.36-15.8l1.08-1.8a5.08 5.08 0 0 0-6.66-2.9l-.57 2c-2.4 5.66-10.05 7.77-17.11 4.7-7.04-3.08-10.84-10.2-8.43-15.84l-1.2-.53-.57-1.4 1.39-.57 1.49.64c3.1-4.19 9.84-5.53 16.06-2.8 5.27 2.3 8.7 6.91 9.11 11.35 1.5-.31 3.1-.3 4.64.37a7.7 7.7 0 0 1 3.47 3.17zm-25.15 3.72c5.75 2.51 12.08.8 14.03-3.8 2-4.67-1.13-10.4-6.9-12.93-5.75-2.5-12-.87-14 3.8-1.97 4.6 1.11 10.41 6.87 12.93z"/><path id="jr" d="M1190.65 153l-15.11 7-3.38-6.86 15.1-7.01z"/><path id="js" d="M1214.18 159.83a20.8 20.8 0 0 0 9.62-27.56 20.24 20.24 0 0 0-27.17-9.74 20.8 20.8 0 0 0-9.63 27.55 20.26 20.26 0 0 0 27.18 9.75zm-15.52-32.98a15.55 15.55 0 0 1 20.87 7.48 16 16 0 0 1-7.38 21.18 15.58 15.58 0 0 1-20.86-7.48 15.97 15.97 0 0 1 7.37-21.18z"/><path id="jt" d="M1145.4 167.52a3.08 3.08 0 0 1 1.44-4.18l25.52-12.02a3.18 3.18 0 0 1 4.21 1.53l1.64 3.37c.76 1.6.13 3.47-1.45 4.2l-25.52 12.02a3.17 3.17 0 0 1-4.2-1.54z"/><path id="ju" d="M1170.32 154.5l2.2-1.01 3.07 6.08-2.23 1.01z"/><path id="jv" d="M1166.52 156.08l2.24-.96 3.06 5.75-2.23.96z"/><path id="jw" d="M1161.28 158.08l2.22-.94 3.05 5.74-2.22.94z"/><path id="jx" d="M1157.23 161.17l2.23-.98 3.06 5.75-2.24.95z"/><path id="jy" d="M1152.16 163.1l2.2-.96 3.05 5.74-2.21.96z"/><path id="jz" d="M1147.2 165.47l2.22-1.03 3.06 6.08-2.23 1.03z"/><radialGradient id="hj" cx="971.16" cy="462.39" r="8.15" gradientUnits="userSpaceOnUse"><stop offset="0" stop-color="#f05822"/><stop offset=".4" stop-color="#743012"/><stop offset="1" stop-color="#41200a"/></radialGradient></defs><g clip-path="url(#clip-E5A21460-CDF6-409C-AAF3-CC3174040300)" transform="translate(-635.02 -120.5)"><use fill="#1097ae" xlink:href="#a"/><use fill="#1097ae" xlink:href="#b"/><use fill="#fff" xlink:href="#c"/><use fill="#008ad1" xlink:href="#d"/><use fill="#fff" xlink:href="#e"/><use fill="#a89eac" xlink:href="#f"/><use fill="#d3c1ce" xlink:href="#g"/><use fill="#d3c1ce" xlink:href="#h"/><use fill="#a89eac" xlink:href="#i"/><use fill="#a89eac" xlink:href="#j"/><use fill="#a89eac" xlink:href="#k"/><use fill="#a89eac" xlink:href="#l"/><use fill="#a89eac" xlink:href="#m"/><use fill="#a89eac" xlink:href="#n"/><use fill="#a89eac" xlink:href="#o"/><use fill="#a89eac" xlink:href="#p"/><use fill="#a89eac" xlink:href="#q"/><use fill="#d6e9d7" xlink:href="#r"/><use fill="#1a1a18" xlink:href="#s"/><use fill="#41b7cd" xlink:href="#t"/><use fill="#b7dbe1" xlink:href="#u"/><use fill="#e77f00" xlink:href="#v"/><use fill="#333" xlink:href="#w"/><use fill="#fff" xlink:href="#x"/><use fill="#fff" xlink:href="#y"/><use fill="#fff" xlink:href="#z"/><use fill="#fff" xlink:href="#A"/><use fill="#fff" xlink:href="#B"/><use fill="#fff" xlink:href="#C"/><use fill="#fff" xlink:href="#D"/><use fill="#fff" xlink:href="#E"/><use fill="#fff" xlink:href="#F"/><use fill="#fff" xlink:href="#G"/><use fill="#fff" xlink:href="#H"/><use fill="#fff" xlink:href="#I"/><use fill="#fff" xlink:href="#J"/><use fill="#fff" xlink:href="#K"/><use fill="#fff" xlink:href="#L"/><use fill="#fff" xlink:href="#M"/><use fill="#fff" xlink:href="#N"/><use fill="#fff" xlink:href="#O"/><use fill="#fff" xlink:href="#P"/><use fill="#fff" xlink:href="#Q"/><use fill="#fff" xlink:href="#R"/><use fill="#fff" xlink:href="#S"/><use fill="#fff" xlink:href="#T"/><use fill="#fff" xlink:href="#U"/><use fill="#fff" xlink:href="#V"/><use fill="#fff" xlink:href="#W"/><use fill="#fff" xlink:href="#X"/><use fill="#fff" xlink:href="#Y"/><use fill="#fff" xlink:href="#Z"/><use fill="#fff" xlink:href="#aa"/><use fill="#fff" xlink:href="#ab"/><use fill="#fff" xlink:href="#ac"/><use fill="#fff" xlink:href="#ad"/><use fill="#fff" xlink:href="#ae"/><use fill="#fff" xlink:href="#af"/><use fill="#fff" xlink:href="#ag"/><use fill="#fff" xlink:href="#ah"/><use fill="#fff" xlink:href="#ai"/><use fill="#fff" xlink:href="#aj"/><use fill="#fff" xlink:href="#ak"/><use fill="#fff" xlink:href="#al"/><use fill="#fff" xlink:href="#am"/><use fill="#fff" xlink:href="#an"/><use fill="#fff" xlink:href="#ao"/><use fill="#fff" xlink:href="#ap"/><use fill="#fff" xlink:href="#aq"/><use fill="#fff" xlink:href="#ar"/><use fill="#fff" xlink:href="#as"/><use fill="#fff" xlink:href="#at"/><use fill="#fff" xlink:href="#au"/><use fill="#fff" xlink:href="#av"/><use fill="#fff" xlink:href="#aw"/><use fill="#fff" xlink:href="#ax"/><use fill="#fff" xlink:href="#ay"/><use fill="#fff" xlink:href="#az"/><use fill="#fff" xlink:href="#aA"/><use fill="#fff" xlink:href="#aB"/><use fill="#fff" xlink:href="#x"/><use fill="#fff" xlink:href="#J"/><use fill="#fff" xlink:href="#V"/><use fill="#fff" xlink:href="#ah"/><use fill="#fff" xlink:href="#ai"/><use fill="#fff" xlink:href="#aj"/><use fill="#fff" xlink:href="#ak"/><use fill="#fff" xlink:href="#ap"/><use fill="#fff" xlink:href="#aq"/><use fill="#fff" xlink:href="#ar"/><use fill="#fff" xlink:href="#as"/><use fill="#fbb03b" xlink:href="#aC"/><use fill="#e6e99f" xlink:href="#aB"/><use fill="#00baff" xlink:href="#aD"/><use fill="#e6e99f" xlink:href="#aE"/><use fill="#e6e99f" xlink:href="#aF"/><use fill="#e6e99f" xlink:href="#aG"/><use fill="#e6e99f" xlink:href="#aH"/><use fill="#fbb03b" xlink:href="#aI"/><use fill="#fbb03b" xlink:href="#aJ"/><use fill="#fbb03b" xlink:href="#aK"/><use fill="#fbb03b" xlink:href="#aL"/><use fill="#fbb03b" xlink:href="#aM"/><use fill="#fbb03b" xlink:href="#aN"/><use fill="#fbb03b" xlink:href="#aO"/><use fill="#fbb03b" xlink:href="#aP"/><use fill="#fbb03b" xlink:href="#aQ"/><use fill="#fbb03b" xlink:href="#aR"/><use fill="#fbb03b" xlink:href="#aS"/><use fill="#fbb03b" xlink:href="#aT"/><use fill="#e6e99f" xlink:href="#aU"/><use fill="#fbb03b" xlink:href="#aV"/><use fill="#fbb03b" xlink:href="#aW"/><use fill="#fbb03b" xlink:href="#aX"/><use fill="#fbb03b" xlink:href="#aY"/><use fill="#fff" xlink:href="#aZ"/><use fill="#fbb03b" xlink:href="#ba"/><use fill="#fff" xlink:href="#bb"/><use fill="#fff" xlink:href="#bc"/><use fill="#fff" xlink:href="#bd"/><use fill="#fff" xlink:href="#be"/><use fill="#fff" xlink:href="#bf"/><use fill="#fff" xlink:href="#bg"/><use fill="#fff" xlink:href="#bh"/><use fill="#202020" xlink:href="#bi"/><use fill="#f7aa1c" xlink:href="#bj"/><use fill="#f18c00" xlink:href="#bk"/><use fill="#e3007c" xlink:href="#bl"/><use fill="#fce631" xlink:href="#bm"/><use fill="#9b9b9b" xlink:href="#bn"/><use fill="#9b9b9b" xlink:href="#bo"/><use fill="#9b9b9b" xlink:href="#bp"/><use fill="#ececec" xlink:href="#bq"/><use fill="#ececec" xlink:href="#br"/><use fill="#ececec" xlink:href="#bs"/><use fill="#ececec" xlink:href="#bt"/><use fill="#ececec" xlink:href="#bu"/><use fill="#ececec" xlink:href="#bv"/><use fill="#ececec" xlink:href="#bw"/><use fill="#ececec" xlink:href="#bx"/><use fill="#ececec" xlink:href="#by"/><use fill="#ececec" xlink:href="#bz"/><use fill="#ececec" xlink:href="#bA"/><use fill="#ececec" xlink:href="#bB"/><use fill="#ececec" xlink:href="#bC"/><use fill="#ececec" xlink:href="#bD"/><use fill="#ececec" xlink:href="#bE"/><use fill="#ececec" xlink:href="#bF"/><use fill="#ececec" xlink:href="#bG"/><use fill="#ececec" xlink:href="#bH"/><use fill="#ececec" xlink:href="#bI"/><use fill="#ececec" xlink:href="#bJ"/><use fill="#ececec" xlink:href="#bK"/><use fill="#ececec" xlink:href="#bL"/><use fill="#ececec" xlink:href="#bM"/><use fill="#ececec" xlink:href="#bN"/><use fill="#ececec" xlink:href="#bO"/><use fill="#ececec" xlink:href="#bP"/><use fill="#ececec" xlink:href="#bQ"/><use fill="#ececec" xlink:href="#bR"/><use fill="#ececec" xlink:href="#bS"/><use fill="#ececec" xlink:href="#bT"/><use fill="#ececec" xlink:href="#bU"/><use fill="#ececec" xlink:href="#bV"/><use fill="#ececec" xlink:href="#bW"/><use fill="#ececec" xlink:href="#bX"/><use fill="#ececec" xlink:href="#bY"/><use fill="#ececec" xlink:href="#bZ"/><use fill="#ececec" xlink:href="#ca"/><use fill="#ececec" xlink:href="#cb"/><use fill="#ececec" xlink:href="#cc"/><use fill="#ececec" xlink:href="#cd"/><use fill="#ececec" xlink:href="#ce"/><use fill="#ececec" xlink:href="#cf"/><use fill="#ececec" xlink:href="#cg"/><use fill="#ececec" xlink:href="#ch"/><use fill="#ececec" xlink:href="#ci"/><use fill="#ececec" xlink:href="#cj"/><use fill="#ececec" xlink:href="#ck"/><use fill="#ececec" xlink:href="#cl"/><use fill="#ececec" xlink:href="#cm"/><use fill="#ececec" xlink:href="#cn"/><use fill="#ececec" xlink:href="#co"/><use fill="#ececec" xlink:href="#cp"/><use fill="#ececec" xlink:href="#cq"/><use fill="#ececec" xlink:href="#cr"/><use fill="#ececec" xlink:href="#cs"/><use fill="#ececec" xlink:href="#ct"/><use fill="#ececec" xlink:href="#cu"/><use fill="#ececec" xlink:href="#cv"/><use fill="#ececec" xlink:href="#cw"/><use fill="#ececec" xlink:href="#cx"/><use fill="#61c2cf" xlink:href="#cy"/><use fill="#61c2cf" xlink:href="#cz"/><use fill="#61c2cf" xlink:href="#cA"/><use fill="#3b3a39" xlink:href="#cB"/><use fill="#fff" xlink:href="#cC"/><use fill="#575555" xlink:href="#cD"/><use fill="#575555" xlink:href="#cE"/><use fill="#575555" xlink:href="#cF"/><use fill="#575555" xlink:href="#cG"/><use fill="#575555" xlink:href="#cH"/><use fill="#575555" xlink:href="#cI"/><use fill="#575555" xlink:href="#cJ"/><use fill="#575555" xlink:href="#cK"/><use fill="#575555" xlink:href="#cL"/><use fill="#575555" xlink:href="#cM"/><use fill="#575555" xlink:href="#cN"/><use fill="#575555" xlink:href="#cO"/><use fill="#575555" xlink:href="#cP"/><use fill="#575555" xlink:href="#cQ"/><use fill="#575555" xlink:href="#cR"/><use fill="#575555" xlink:href="#cS"/><use fill="#575555" xlink:href="#cT"/><use fill="#575555" xlink:href="#cU"/><use fill="#575555" xlink:href="#cV"/><use fill="#575555" xlink:href="#cW"/><use fill="#575555" xlink:href="#cX"/><use fill="#575555" xlink:href="#cY"/><use fill="#575555" xlink:href="#cZ"/><use fill="#575555" xlink:href="#da"/><use fill="#575555" xlink:href="#db"/><use fill="#575555" xlink:href="#dc"/><use fill="#575555" xlink:href="#dd"/><use fill="#575555" xlink:href="#de"/><use fill="#575555" xlink:href="#df"/><use fill="#575555" xlink:href="#dg"/><use fill="#575555" xlink:href="#dh"/><use fill="#575555" xlink:href="#di"/><use fill="#575555" xlink:href="#dj"/><use fill="#575555" xlink:href="#dk"/><use fill="#575555" xlink:href="#dl"/><use fill="#575555" xlink:href="#dm"/><use fill="#575555" xlink:href="#dn"/><use fill="#83c6ac" xlink:href="#do"/><use fill="#f3a693" xlink:href="#dp"/><use fill="#575555" xlink:href="#dq"/><use fill="#575555" xlink:href="#dr"/><use fill="#575555" xlink:href="#ds"/><use fill="#575555" xlink:href="#dt"/><use fill="#575555" xlink:href="#du"/><use fill="#575555" xlink:href="#dv"/><use fill="#575555" xlink:href="#dw"/><use fill="#575555" xlink:href="#dx"/><use fill="#575555" xlink:href="#dy"/><use fill="#575555" xlink:href="#dz"/><use fill="#575555" xlink:href="#dA"/><use fill="#575555" xlink:href="#dB"/><use fill="#575555" xlink:href="#dC"/><use fill="#575555" xlink:href="#dD"/><use fill="#575555" xlink:href="#dE"/><use fill="#575555" xlink:href="#dF"/><use fill="#575555" xlink:href="#dG"/><use fill="#575555" xlink:href="#dH"/><use fill="#575555" xlink:href="#dI"/><use fill="#575555" xlink:href="#dJ"/><use fill="#575555" xlink:href="#dK"/><use fill="#575555" xlink:href="#dL"/><use fill="#575555" xlink:href="#dM"/><use fill="#575555" xlink:href="#dN"/><use fill="#575555" xlink:href="#dO"/><use fill="#575555" xlink:href="#dP"/><use fill="#575555" xlink:href="#dQ"/><use fill="#575555" xlink:href="#dR"/><use fill="#575555" xlink:href="#dS"/><use fill="#575555" xlink:href="#dT"/><use fill="#575555" xlink:href="#dU"/><use fill="#575555" xlink:href="#dV"/><use fill="#575555" xlink:href="#dW"/><use fill="#575555" xlink:href="#dX"/><use fill="#575555" xlink:href="#dY"/><use fill="#575555" xlink:href="#dZ"/><use fill="#575555" xlink:href="#ea"/><use fill="#575555" xlink:href="#eb"/><use fill="#575555" xlink:href="#ec"/><use fill="#575555" xlink:href="#ed"/><use fill="#575555" xlink:href="#ee"/><use fill="#575555" xlink:href="#ef"/><use fill="#575555" xlink:href="#eg"/><use fill="#575555" xlink:href="#eh"/><use fill="#575555" xlink:href="#ei"/><use fill="#575555" xlink:href="#ej"/><use fill="#575555" xlink:href="#ek"/><use fill="#575555" xlink:href="#el"/><use fill="#575555" xlink:href="#em"/><use fill="#575555" xlink:href="#en"/><use fill="#f6a63c" xlink:href="#eo"/><use fill="#dd380c" xlink:href="#ep"/><use xlink:href="#eq"/><use fill="#dd380c" xlink:href="#er"/><use xlink:href="#es"/><use fill="#dd380c" xlink:href="#et"/><use xlink:href="#eu"/><use fill="#dd380c" xlink:href="#ev"/><use xlink:href="#ew"/><use fill="#dd380c" xlink:href="#ex"/><use xlink:href="#ey"/><use fill="#dd380c" xlink:href="#ez"/><use xlink:href="#eA"/><use fill="#dd380c" xlink:href="#eB"/><use xlink:href="#eC"/><use fill="#dd380c" xlink:href="#eD"/><use xlink:href="#eE"/><use fill="#dd380c" xlink:href="#eF"/><use xlink:href="#eG"/><use fill="#3b3a39" xlink:href="#eH"/><use fill="#fff" xlink:href="#eI"/><use fill="#575555" xlink:href="#eJ"/><use fill="#575555" xlink:href="#eK"/><use fill="#575555" xlink:href="#eL"/><use fill="#575555" xlink:href="#eM"/><use fill="#575555" xlink:href="#eN"/><use fill="#575555" xlink:href="#eO"/><use fill="#575555" xlink:href="#eP"/><use fill="#575555" xlink:href="#eQ"/><use fill="#575555" xlink:href="#eR"/><use fill="#575555" xlink:href="#eS"/><use fill="#575555" xlink:href="#eT"/><use fill="#575555" xlink:href="#eU"/><use fill="#575555" xlink:href="#eV"/><use fill="#575555" xlink:href="#eW"/><use fill="#575555" xlink:href="#eX"/><use fill="#575555" xlink:href="#eY"/><use fill="#575555" xlink:href="#eZ"/><use fill="#575555" xlink:href="#fa"/><use fill="#575555" xlink:href="#fb"/><use fill="#575555" xlink:href="#fc"/><use fill="#575555" xlink:href="#fd"/><use fill="#575555" xlink:href="#fe"/><use fill="#575555" xlink:href="#ff"/><use fill="#575555" xlink:href="#fg"/><use fill="#575555" xlink:href="#fh"/><use fill="#575555" xlink:href="#fi"/><use fill="#575555" xlink:href="#fj"/><use fill="#de935e" xlink:href="#fk"/><use fill="#575555" xlink:href="#fl"/><use fill="#575555" xlink:href="#fm"/><use fill="#575555" xlink:href="#fn"/><use fill="#575555" xlink:href="#fo"/><use fill="#575555" xlink:href="#fp"/><use fill="#575555" xlink:href="#fq"/><use fill="#575555" xlink:href="#fr"/><use fill="#575555" xlink:href="#fs"/><use fill="#575555" xlink:href="#ft"/><use fill="#575555" xlink:href="#fu"/><use fill="#575555" xlink:href="#fv"/><use fill="#575555" xlink:href="#fw"/><use fill="#575555" xlink:href="#fx"/><use fill="#575555" xlink:href="#fy"/><use fill="#575555" xlink:href="#fz"/><use fill="#575555" xlink:href="#fA"/><use fill="#575555" xlink:href="#fB"/><use fill="#575555" xlink:href="#fC"/><use fill="#575555" xlink:href="#fD"/><use fill="#575555" xlink:href="#fE"/><use fill="#e0df43" xlink:href="#fF"/><use fill="#dd380c" xlink:href="#fG"/><use xlink:href="#fH"/><use fill="#dd380c" xlink:href="#fI"/><use xlink:href="#fJ"/><use fill="#dd380c" xlink:href="#fK"/><use xlink:href="#fL"/><use fill="#dd380c" xlink:href="#fM"/><use xlink:href="#fN"/><use fill="#dd380c" xlink:href="#fO"/><use xlink:href="#fP"/><use fill="#dd380c" xlink:href="#fQ"/><use xlink:href="#fR"/><use fill="#dd380c" xlink:href="#fS"/><use xlink:href="#fT"/><use fill="#dd380c" xlink:href="#fU"/><use xlink:href="#fV"/><use fill="#dd380c" xlink:href="#fW"/><use xlink:href="#fX"/><use fill="#b5cad6" xlink:href="#fY"/><use fill="#717e83" xlink:href="#fZ"/><use fill="#93a5af" xlink:href="#ga"/><use fill="#61c7c7" xlink:href="#gb"/><use fill="#00a99d" xlink:href="#gc"/><use fill="#1a1a18" xlink:href="#gd"/><use fill="#d8d9d9" xlink:href="#ge"/><use fill="#d8d9d9" xlink:href="#gf"/><use fill="#61c7c7" xlink:href="#gg"/><use fill="#00a99d" xlink:href="#gh"/><use fill="#de6b75" xlink:href="#gi"/><use fill="#de6b75" xlink:href="#gj"/><use fill="#f3a693" xlink:href="#gk"/><use fill="#1a1a18" xlink:href="#gl"/><use fill="#f29361" xlink:href="#gm"/><use fill="#be1d38" xlink:href="#gn"/><use fill="#52a5b1" xlink:href="#go"/><use fill="#52a5b1" xlink:href="#gp"/><use fill="#83c6ac" xlink:href="#gq"/><use fill="#478679" xlink:href="#gr"/><use fill="#83c6ac" xlink:href="#gs"/><use fill="#f8c697" xlink:href="#gt"/><use fill="#050902" xlink:href="#gu"/><use fill="#f8c697" xlink:href="#gv"/><use xlink:href="#gw"/><use fill="#fff" xlink:href="#gx"/><use fill="#e54d93" xlink:href="#gy"/><use fill="#f18f58" xlink:href="#gz"/><use fill="#5ecff7" xlink:href="#gA"/><use fill="#e54d93" xlink:href="#gB"/><use fill="#5ecff7" xlink:href="#gC"/><use fill="#5ecff7" xlink:href="#gD"/><use fill="#e54d93" xlink:href="#gE"/><use fill="#5ecff7" xlink:href="#gF"/><use fill="#5ecff7" xlink:href="#gG"/><use fill="#d8d9d9" xlink:href="#gH"/><use fill="#d8d9d9" xlink:href="#gI"/><use fill="#d8d9d9" xlink:href="#gJ"/><use fill="#d8d9d9" xlink:href="#gK"/><use fill="#d8d9d9" xlink:href="#gL"/><use fill="#d8d9d9" xlink:href="#gM"/><use fill="#d8d9d9" xlink:href="#gN"/><use fill="#d8d9d9" xlink:href="#gO"/><use fill="#5ecff7" xlink:href="#gP"/><use fill="#f19390" xlink:href="#gQ"/><use fill="#e54d93" xlink:href="#gR"/><use fill="#e54d93" xlink:href="#gS"/><use fill="#5ecff7" xlink:href="#gT"/><use fill="#f18a51" xlink:href="#gU"/><use fill="#df2b87" xlink:href="#gV"/><use fill="#df2b87" xlink:href="#gW"/><use fill="#d8d9d9" xlink:href="#gX"/><use fill="#d8d9d9" xlink:href="#gY"/><use fill="#d8d9d9" xlink:href="#gZ"/><use fill="#d8d9d9" xlink:href="#ha"/><use fill="#d8d9d9" xlink:href="#hb"/><use fill="#d8d9d9" xlink:href="#hc"/><use fill="#d8d9d9" xlink:href="#hd"/><use fill="#d8d9d9" xlink:href="#he"/><use fill="#f5b793" xlink:href="#hf"/><use fill="#eda975" xlink:href="#hg"/><use fill="#40b8cd" xlink:href="#hh"/><use fill="#0f96ae" xlink:href="#hi"/><use fill="url(#hj)" xlink:href="#hk"/><use fill="#f8c697" xlink:href="#hl"/><use fill="#1a1a18" xlink:href="#hm"/><use fill="#6e6e6e" xlink:href="#hn"/><use fill="#6e6e6e" xlink:href="#ho"/><use fill="#1a1a18" xlink:href="#hp"/><use fill="#1a1a18" xlink:href="#hq"/><use fill="#211711" xlink:href="#hr"/><use fill="#cde1e4" xlink:href="#hs"/><use fill="#f8c67c" xlink:href="#ht"/><use fill="#f29347" xlink:href="#hu"/><use fill="#b4ccd1" xlink:href="#hv"/><use fill="#1c1c14" xlink:href="#hw"/><use fill="#fff" xlink:href="#hx"/><use fill="#e54d93" xlink:href="#hy"/><use fill="#f18f58" xlink:href="#hz"/><use fill="#5ecff7" xlink:href="#hA"/><use fill="#e54d93" xlink:href="#hB"/><use fill="#5ecff7" xlink:href="#hC"/><use fill="#5ecff7" xlink:href="#hD"/><use fill="#e54d93" xlink:href="#hE"/><use fill="#5ecff7" xlink:href="#hF"/><use fill="#5ecff7" xlink:href="#hG"/><use fill="#d8d9d9" xlink:href="#hH"/><use fill="#d8d9d9" xlink:href="#hI"/><use fill="#d8d9d9" xlink:href="#hJ"/><use fill="#d8d9d9" xlink:href="#hK"/><use fill="#d8d9d9" xlink:href="#hL"/><use fill="#d8d9d9" xlink:href="#hM"/><use fill="#d8d9d9" xlink:href="#hN"/><use fill="#d8d9d9" xlink:href="#hO"/><use fill="#5ecff7" xlink:href="#hP"/><use fill="#f19390" xlink:href="#hQ"/><use fill="#e54d93" xlink:href="#hR"/><use fill="#e54d93" xlink:href="#hS"/><use fill="#5ecff7" xlink:href="#hT"/><use fill="#f18a51" xlink:href="#hU"/><use fill="#df2b87" xlink:href="#hV"/><use fill="#df2b87" xlink:href="#hW"/><use fill="#d8d9d9" xlink:href="#hX"/><use fill="#d8d9d9" xlink:href="#hY"/><use fill="#d8d9d9" xlink:href="#hZ"/><use fill="#d8d9d9" xlink:href="#ia"/><use fill="#d8d9d9" xlink:href="#ib"/><use fill="#d8d9d9" xlink:href="#ic"/><use fill="#d8d9d9" xlink:href="#id"/><use fill="#d8d9d9" xlink:href="#ie"/><use fill="#fff" xlink:href="#if"/><use fill="#d8d9d9" xlink:href="#ig"/><use fill="#d8d9d9" xlink:href="#ih"/><use fill="#d8d9d9" xlink:href="#ii"/><use fill="#d8d9d9" xlink:href="#ij"/><use fill="#d8d9d9" xlink:href="#ik"/><use fill="#d8d9d9" xlink:href="#il"/><use fill="#d8d9d9" xlink:href="#im"/><use fill="#d8d9d9" xlink:href="#in"/><use fill="#d8d9d9" xlink:href="#io"/><use fill="#d8d9d9" xlink:href="#ip"/><use fill="#d8d9d9" xlink:href="#iq"/><use fill="#d8d9d9" xlink:href="#ir"/><use fill="#d8d9d9" xlink:href="#is"/><use fill="#d8d9d9" xlink:href="#it"/><use fill="#d8d9d9" xlink:href="#iu"/><use fill="#d8d9d9" xlink:href="#iv"/><use fill="#d8d9d9" xlink:href="#iw"/><use fill="#d8d9d9" xlink:href="#ix"/><use fill="#d8d9d9" xlink:href="#iy"/><use fill="#d8d9d9" xlink:href="#iz"/><use fill="#d8d9d9" xlink:href="#iA"/><use fill="#d8d9d9" xlink:href="#iB"/><use fill="#d8d9d9" xlink:href="#iC"/><use fill="#5ecff7" xlink:href="#iD"/><use fill="#f8c697" xlink:href="#iE"/><use fill="#cf3f8f" xlink:href="#iF"/><use fill="#d8d9d9" xlink:href="#iG"/><use fill="#d8d9d9" xlink:href="#iH"/><use fill="#d8d9d9" xlink:href="#iI"/><use fill="#d8d9d9" xlink:href="#iJ"/><use fill="#d8d9d9" xlink:href="#iK"/><use fill="#d8d9d9" xlink:href="#iL"/><use fill="#d8d9d9" xlink:href="#iM"/><use fill="#d8d9d9" xlink:href="#iN"/><use fill="#575555" xlink:href="#iO"/><use fill="#c0d2d5" xlink:href="#iP"/><use fill="#b5cdd1" xlink:href="#iQ"/><use fill="#cde1e5" xlink:href="#iR"/><use fill="#c0d1d4" xlink:href="#iS"/><use fill="#a5bdc1" xlink:href="#iT"/><use fill="#f7aa1c" xlink:href="#iU"/><use fill="#f18c00" xlink:href="#iV"/><use fill="#f7aa1c" xlink:href="#iW"/><use fill="#f8c697" xlink:href="#iX"/><use fill="#050902" xlink:href="#iY"/><use fill="#f8c697" xlink:href="#iZ"/><use xlink:href="#ja"/><use fill="#fff" xlink:href="#jb"/><use fill="#754c24" xlink:href="#jc"/><use fill="#41200a" xlink:href="#jd"/><use fill="#fff" xlink:href="#je"/><use fill="#fff" xlink:href="#jf"/><use fill="#0071bc" xlink:href="#jg"/><use fill="#0071bc" xlink:href="#jh"/><use fill="#29abe2" xlink:href="#ji"/><use fill="#29abe2" xlink:href="#jj"/><use fill="#29abe2" xlink:href="#jk"/><use fill="#ed1b24" xlink:href="#jl"/><use fill="#ed1b24" xlink:href="#jm"/><use fill="#da6579" xlink:href="#jn"/><use fill="#da6579" xlink:href="#jo"/><use fill="#da6579" xlink:href="#jp"/><use xlink:href="#jq"/><use fill="#f7931d" xlink:href="#jr"/><use fill="#535d61" xlink:href="#js"/><use fill="#535d61" xlink:href="#jt"/><use fill="#3c4444" xlink:href="#ju"/><use fill="#3c4444" xlink:href="#jv"/><use fill="#3c4444" xlink:href="#jw"/><use fill="#3c4444" xlink:href="#jx"/><use fill="#3c4444" xlink:href="#jy"/><use fill="#3c4444" xlink:href="#jz"/></g></svg>