<svg id="Слой_1" xmlns="http://www.w3.org/2000/svg" viewBox="0 0 310 266"><style>.st0{fill:#edf2f3}.st1{fill:#fff;fill-opacity:0;stroke:#edf2f3;stroke-width:3;stroke-linecap:square;stroke-miterlimit:50}.st2{fill:#edf2f2}</style><g transform="translate(-165 -1516)"><path id="_x31_041a" class="st0" d="M450.7 1663.9c3.1-.4 5.3-3.2 4.9-6.2-.3-2.8-2.7-4.9-5.5-5h-.2c-3.1.1-5.5 2.7-5.4 5.8.1 1.4.6 2.7 1.6 3.7-3.4 6.7-8.6 11.6-16.4 15.7-5.3 2.8-10.8 3.8-16.3 3.1-4.5-.6-8-2.6-10.2-5.9-3.2-4.9-3.5-10.2-.8-15.5 1.9-3.8 4.9-6.6 6.8-8-.4-1.3-1-3.5-1.3-5.1-14.5 10.5-13 24.7-8.6 31.4 3.3 5 10 8.1 17.4 8.1 2 0 4-.2 6-.7 12.8-2.5 22.5-10.1 28-21.4z"/></g><g transform="translate(-165 -1516)"><path id="_x31_041b" class="st0" d="M468.3 1651.5c-7.6-8.9-18.8-13.8-31.6-13.8h-1.6c-.9-1.8-2.8-3-4.9-3h-.2c-3.1.1-5.6 2.6-5.5 5.7s2.6 5.6 5.7 5.5h.2c2.2-.1 4.1-1.5 4.9-3.4h1.8c7.6 0 14.8 2.2 21.3 6.5 5 3.3 8.6 7.6 10.6 12.8 1.7 4.2 1.6 8.3-.2 11.8-2.8 5.3-7.5 8.2-13.7 8.2-4 0-7.8-1.2-9.8-2.1-1.1 1-3.1 2.6-4.5 3.6 4.3 2 8.7 3.1 12.9 3.1 9.6 0 16.7-5.3 19.4-10.6 2.9-5.8 2.7-15.8-4.8-24.3z"/></g><g transform="translate(-165 -1516)"><path id="_x31_041c" class="st0" d="M417.5 1665.6c.1 3 2.6 5.4 5.6 5.4h.2c3.1-.1 5.6-2.6 5.5-5.7s-2.6-5.6-5.7-5.5h-.2c-.2 0-.5 0-.7.1-4.1-6.8-5.8-14.2-5.2-22.2.4-6 2.4-11.2 5.9-15.5 2.9-3.7 8.5-5.5 12.3-5.6 10.6-.2 15.1 13 15.4 18.3 1.3.3 3.5 1 5 1.5-1.2-16.2-11.2-24.6-20.8-24.6-9 0-17.3 6.5-20.6 16.1-4.6 12.8-1.6 25.1 4 34.8-.5.7-.8 1.8-.7 2.9z"/></g><g transform="translate(-165 -1516)"><path id="_x31_041d" class="st0" d="M381.1 1639.5l-20 10v-20l20 10z"/></g><g transform="translate(-165 -1516)"><path id="_x31_041e" class="st0" d="M338.1 1640c0-1.4 1.1-2.5 2.5-2.5h20c1.4 0 2.5 1.1 2.5 2.5s-1.1 2.5-2.5 2.5h-20c-1.3 0-2.5-1.1-2.5-2.5z"/></g><g transform="translate(-165 -1516)"><path id="_x31_041f" class="st0" d="M321.1 1659.5l20 10v-20l-20 10z"/></g><g transform="translate(-165 -1516)"><path id="_x31_041g" class="st0" d="M338.1 1660c0-1.4 1.1-2.5 2.5-2.5h20c1.4 0 2.5 1.1 2.5 2.5s-1.1 2.5-2.5 2.5h-20c-1.3 0-2.5-1.1-2.5-2.5z"/></g><g transform="translate(-165 -1516)"><path id="_x31_041h" class="st1" d="M230.1 1609.5v80"/></g><g transform="translate(-165 -1516)"><path id="_x31_041i" class="st1" d="M230.1 1609.5h15"/></g><g transform="translate(-165 -1516)"><path id="_x31_041j" class="st1" d="M230.1 1629.5h15"/></g><g transform="translate(-165 -1516)"><path id="_x31_041k" class="st1" d="M215.1 1649.5h30"/></g><g transform="translate(-165 -1516)"><path id="_x31_041l" class="st1" d="M230.1 1669.5h15"/></g><g transform="translate(-165 -1516)"><path id="_x31_041m" class="st1" d="M230.1 1689.5h15"/></g><g transform="translate(-165 -1516)"><path id="_x31_041n" class="st2" d="M245.1 1604.5c0-1.7 1.3-3 3-3h44c1.7 0 3 1.3 3 3v9c0 1.7-1.3 3-3 3h-44c-1.7 0-3-1.3-3-3v-9z"/></g><g transform="translate(-165 -1516)"><path id="_x31_041o" class="st2" d="M245.1 1624.5c0-1.7 1.3-3 3-3h44c1.7 0 3 1.3 3 3v9c0 1.7-1.3 3-3 3h-44c-1.7 0-3-1.3-3-3v-9z"/></g><g transform="translate(-165 -1516)"><path id="_x31_041p" class="st2" d="M245.1 1644.5c0-1.7 1.3-3 3-3h44c1.7 0 3 1.3 3 3v9c0 1.7-1.3 3-3 3h-44c-1.7 0-3-1.3-3-3v-9z"/></g><g transform="translate(-165 -1516)"><path id="_x31_041q" class="st2" d="M165.1 1644.5c0-1.7 1.3-3 3-3h44c1.7 0 3 1.3 3 3v9c0 1.7-1.3 3-3 3h-44c-1.7 0-3-1.3-3-3v-9z"/></g><g><g transform="translate(-165 -1516)"><path id="_x31_041r" class="st2" d="M245.1 1664.5c0-1.7 1.3-3 3-3h44c1.7 0 3 1.3 3 3v9c0 1.7-1.3 3-3 3h-44c-1.7 0-3-1.3-3-3v-9z"/></g></g><g><g transform="translate(-165 -1516)"><path id="_x31_041s" class="st2" d="M245.1 1684.5c0-1.7 1.3-3 3-3h44c1.7 0 3 1.3 3 3v9c0 1.7-1.3 3-3 3h-44c-1.7 0-3-1.3-3-3v-9z"/></g></g></svg>