<svg id="Слой_1" xmlns="http://www.w3.org/2000/svg" viewBox="0 0 310 266"><style>.st0{fill:#edf2f3}.st2{fill:#c7d1d3}.st5{fill:#dfe8e9}</style><g transform="translate(-965 -957)"><path id="pi0qa" class="st0" d="M965 960c0-1.7 1.3-3 3-3h304c1.7 0 3 1.3 3 3v34c0 1.7-1.3 3-3 3H968c-1.7 0-3-1.3-3-3v-34z"/></g><g transform="translate(-965 -957)"><path id="pi0qb" d="M1041 970c0-1.7 1.3-3 3-3h218c1.7 0 3 1.3 3 3v14c0 1.7-1.3 3-3 3h-218c-1.7 0-3-1.3-3-3v-14z" fill="#fff"/></g><g transform="translate(-965 -957)"><path id="pi0qc" class="st2" d="M975.3 976.4l7.1-7.1c.3-.3.9-.3 1.2 0l.8.8c.3.3.3.9 0 1.2l-5.6 5.7 5.6 5.7c.3.3.3.9 0 1.2l-.8.8c-.3.3-.9.3-1.2 0l-7.1-7.1c-.4-.3-.4-.9 0-1.2z"/></g><g transform="translate(-965 -957)"><path id="pi0qd" class="st2" d="M1004.4 977.6l-7.1 7.1c-.3.3-.9.3-1.2 0l-.8-.8c-.3-.3-.3-.9 0-1.2l5.6-5.7-5.6-5.7c-.3-.3-.3-.9 0-1.2l.8-.8c.3-.3.9-.3 1.2 0l7.1 7.1c.4.3.4.9 0 1.2z"/></g><g transform="translate(-965 -957)"><path id="pi0qe" class="st2" d="M1030.6 969h-1.5c-.2 0-.4.2-.4.4l.1 2.6c-2.8-3.3-7.8-3.7-11.1-.8-1.7 1.5-2.7 3.6-2.7 5.9 0 4.3 3.5 7.9 7.9 7.9 1.9 0 3.8-.7 5.3-2 .2-.2.2-.4 0-.5l-1.1-1.1c-.1-.1-.4-.2-.5 0-2.3 2-5.8 1.8-7.9-.5s-1.8-5.8.5-7.9 5.8-1.8 7.9.5c.2.2.3.4.4.6l-3.2-.2c-.2 0-.4.1-.4.4v1.5c0 .2.2.4.4.4h6.4c.2 0 .4-.2.4-.4v-6.4c-.1-.2-.3-.4-.5-.4z"/></g><g transform="translate(-965 -957)" opacity=".5"><path id="pi0qf" d="M965 997h310v223c0 1.7-1.3 3-3 3H968c-1.7 0-3-1.3-3-3V997z" fill="#f5f7f8"/></g><g transform="translate(-965 -957)"><path id="pi0qg" class="st5" d="M1055 1022c0-1.7 1.3-3 3-3h64c1.7 0 3 1.3 3 3v4c0 1.7-1.3 3-3 3h-64c-1.7 0-3-1.3-3-3v-4z"/></g><g transform="translate(-965 -957)"><path id="pi0qh" class="st0" d="M1055 1036.5c0-1.4 1.1-2.5 2.5-2.5h85c1.4 0 2.5 1.1 2.5 2.5s-1.1 2.5-2.5 2.5h-85c-1.4 0-2.5-1.1-2.5-2.5z"/></g><g transform="translate(-965 -957)"><path id="pi0qi" class="st5" d="M1095 1062c0-1.7 1.3-3 3-3h64c1.7 0 3 1.3 3 3v4c0 1.7-1.3 3-3 3h-64c-1.7 0-3-1.3-3-3v-4z"/></g><g transform="translate(-965 -957)"><path id="pi0qj" class="st0" d="M1095 1076.5c0-1.4 1.1-2.5 2.5-2.5h85c1.4 0 2.5 1.1 2.5 2.5s-1.1 2.5-2.5 2.5h-85c-1.4 0-2.5-1.1-2.5-2.5z"/></g><g transform="translate(-965 -957)"><path id="pi0qk" class="st5" d="M1095 1102c0-1.7 1.3-3 3-3h64c1.7 0 3 1.3 3 3v4c0 1.7-1.3 3-3 3h-64c-1.7 0-3-1.3-3-3v-4z"/></g><g transform="translate(-965 -957)"><path id="pi0ql" class="st0" d="M1095 1116.5c0-1.4 1.1-2.5 2.5-2.5h85c1.4 0 2.5 1.1 2.5 2.5s-1.1 2.5-2.5 2.5h-85c-1.4 0-2.5-1.1-2.5-2.5z"/></g><g transform="translate(-965 -957)"><path id="pi0qm" class="st5" d="M1135 1142c0-1.7 1.3-3 3-3h64c1.7 0 3 1.3 3 3v4c0 1.7-1.3 3-3 3h-64c-1.7 0-3-1.3-3-3v-4z"/></g><g transform="translate(-965 -957)"><path id="pi0qn" class="st0" d="M1135 1156.5c0-1.4 1.1-2.5 2.5-2.5h85c1.4 0 2.5 1.1 2.5 2.5s-1.1 2.5-2.5 2.5h-85c-1.4 0-2.5-1.1-2.5-2.5z"/></g><g transform="translate(-965 -957)"><path id="pi0qo" class="st5" d="M1135 1182c0-1.7 1.3-3 3-3h64c1.7 0 3 1.3 3 3v4c0 1.7-1.3 3-3 3h-64c-1.7 0-3-1.3-3-3v-4z"/></g><g transform="translate(-965 -957)"><path id="pi0qp" class="st0" d="M1135 1196.5c0-1.4 1.1-2.5 2.5-2.5h85c1.4 0 2.5 1.1 2.5 2.5s-1.1 2.5-2.5 2.5h-85c-1.4 0-2.5-1.1-2.5-2.5z"/></g><g transform="translate(-965 -957)"><path id="pi0qq" class="st0" d="M1015 1017c0-1.7 1.3-3 3-3h24c1.7 0 3 1.3 3 3v24c0 1.7-1.3 3-3 3h-24c-1.7 0-3-1.3-3-3v-24z"/></g><g transform="translate(-965 -957)"><path id="pi0qr" class="st0" d="M1055 1057c0-1.7 1.3-3 3-3h24c1.7 0 3 1.3 3 3v24c0 1.7-1.3 3-3 3h-24c-1.7 0-3-1.3-3-3v-24z"/></g><g transform="translate(-965 -957)"><path id="pi0qs" class="st0" d="M1055 1097c0-1.7 1.3-3 3-3h24c1.7 0 3 1.3 3 3v24c0 1.7-1.3 3-3 3h-24c-1.7 0-3-1.3-3-3v-24z"/></g><g transform="translate(-965 -957)"><path id="pi0qt" class="st0" d="M1095 1137c0-1.7 1.3-3 3-3h24c1.7 0 3 1.3 3 3v24c0 1.7-1.3 3-3 3h-24c-1.7 0-3-1.3-3-3v-24z"/></g><g transform="translate(-965 -957)"><path id="pi0qu" class="st0" d="M1095 1177c0-1.7 1.3-3 3-3h24c1.7 0 3 1.3 3 3v24c0 1.7-1.3 3-3 3h-24c-1.7 0-3-1.3-3-3v-24z"/></g><g transform="translate(-965 -957)"><path id="pi0qv" class="st2" d="M1022 1028c0-.6.4-1 1-1h14c.6 0 1 .4 1 1v2c0 .6-.4 1-1 1h-14c-.6 0-1-.4-1-1v-2z"/></g><g transform="translate(-965 -957)"><path id="pi0qw" class="st2" d="M1062 1068c0-.6.4-1 1-1h14c.6 0 1 .4 1 1v2c0 .6-.4 1-1 1h-14c-.6 0-1-.4-1-1v-2z"/></g><g transform="translate(-965 -957)"><path id="pi0qx" class="st2" d="M1071 1061c.6 0 1 .4 1 1v14c0 .6-.4 1-1 1h-2c-.6 0-1-.4-1-1v-14c0-.6.4-1 1-1h2z"/></g><g transform="translate(-965 -957)"><path id="pi0qy" class="st2" d="M1062 1108c0-.6.4-1 1-1h14c.6 0 1 .4 1 1v2c0 .6-.4 1-1 1h-14c-.6 0-1-.4-1-1v-2z"/></g><g transform="rotate(45 1785.951 -494.108)"><path id="pi0qz" class="st2" d="M1103.7 1151.2c0-.6.4-1 1-1h10c.6 0 1 .4 1 1v2c0 .6-.4 1-1 1h-10c-.6 0-1-.4-1-1v-2z"/></g><g transform="rotate(45 1785.951 -494.108)"><path id="pi0qA" class="st2" d="M1115.7 1138.2c.6 0 1 .4 1 1v14c0 .6-.4 1-1 1h-2c-.6 0-1-.4-1-1v-14c0-.6.4-1 1-1h2z"/></g></svg>